%TF.GenerationSoftware,KiCad,Pcbnew,9.0.5*%
%TF.CreationDate,2025-11-05T12:15:29-06:00*%
%TF.ProjectId,MeshTemps,4d657368-5465-46d7-9073-2e6b69636164,rev?*%
%TF.SameCoordinates,Original*%
%TF.FileFunction,Copper,L2,Bot*%
%TF.FilePolarity,Positive*%
%FSLAX46Y46*%
G04 Gerber Fmt 4.6, Leading zero omitted, Abs format (unit mm)*
G04 Created by KiCad (PCBNEW 9.0.5) date 2025-11-05 12:15:29*
%MOMM*%
%LPD*%
G01*
G04 APERTURE LIST*
G04 Aperture macros list*
%AMRoundRect*
0 Rectangle with rounded corners*
0 $1 Rounding radius*
0 $2 $3 $4 $5 $6 $7 $8 $9 X,Y pos of 4 corners*
0 Add a 4 corners polygon primitive as box body*
4,1,4,$2,$3,$4,$5,$6,$7,$8,$9,$2,$3,0*
0 Add four circle primitives for the rounded corners*
1,1,$1+$1,$2,$3*
1,1,$1+$1,$4,$5*
1,1,$1+$1,$6,$7*
1,1,$1+$1,$8,$9*
0 Add four rect primitives between the rounded corners*
20,1,$1+$1,$2,$3,$4,$5,0*
20,1,$1+$1,$4,$5,$6,$7,0*
20,1,$1+$1,$6,$7,$8,$9,0*
20,1,$1+$1,$8,$9,$2,$3,0*%
G04 Aperture macros list end*
%TA.AperFunction,ComponentPad*%
%ADD10R,2.000000X1.200000*%
%TD*%
%TA.AperFunction,ComponentPad*%
%ADD11O,2.000000X1.200000*%
%TD*%
%TA.AperFunction,ComponentPad*%
%ADD12RoundRect,0.250000X0.845000X-0.620000X0.845000X0.620000X-0.845000X0.620000X-0.845000X-0.620000X0*%
%TD*%
%TA.AperFunction,ComponentPad*%
%ADD13O,2.190000X1.740000*%
%TD*%
%TA.AperFunction,Conductor*%
%ADD14C,1.000000*%
%TD*%
G04 APERTURE END LIST*
D10*
%TO.P,U1,1,3V3*%
%TO.N,+3V3*%
X88840000Y-53410000D03*
D11*
%TO.P,U1,2,3V3*%
X88840000Y-55950000D03*
%TO.P,U1,3,CHIP_PU*%
%TO.N,unconnected-(U1-CHIP_PU-Pad3)*%
X88840000Y-58490000D03*
%TO.P,U1,4,GPIO4/ADC1_CH3*%
%TO.N,ONEWIRE*%
X88840000Y-61030000D03*
%TO.P,U1,5,GPIO5/ADC1_CH4*%
%TO.N,unconnected-(U1-GPIO5{slash}ADC1_CH4-Pad5)*%
X88840000Y-63570000D03*
%TO.P,U1,6,GPIO6/ADC1_CH5*%
%TO.N,unconnected-(U1-GPIO6{slash}ADC1_CH5-Pad6)*%
X88840000Y-66110000D03*
%TO.P,U1,7,GPIO7/ADC1_CH6*%
%TO.N,unconnected-(U1-GPIO7{slash}ADC1_CH6-Pad7)*%
X88840000Y-68650000D03*
%TO.P,U1,8,GPIO15/ADC2_CH4/32K_P*%
%TO.N,unconnected-(U1-GPIO15{slash}ADC2_CH4{slash}32K_P-Pad8)*%
X88840000Y-71190000D03*
%TO.P,U1,9,GPIO16/ADC2_CH5/32K_N*%
%TO.N,unconnected-(U1-GPIO16{slash}ADC2_CH5{slash}32K_N-Pad9)*%
X88840000Y-73730000D03*
%TO.P,U1,10,GPIO17/ADC2_CH6*%
%TO.N,unconnected-(U1-GPIO17{slash}ADC2_CH6-Pad10)*%
X88840000Y-76270000D03*
%TO.P,U1,11,GPIO18/ADC2_CH7*%
%TO.N,unconnected-(U1-GPIO18{slash}ADC2_CH7-Pad11)*%
X88840000Y-78810000D03*
%TO.P,U1,12,GPIO8/ADC1_CH7*%
%TO.N,unconnected-(U1-GPIO8{slash}ADC1_CH7-Pad12)*%
X88840000Y-81350000D03*
%TO.P,U1,13,GPIO3/ADC1_CH2*%
%TO.N,unconnected-(U1-GPIO3{slash}ADC1_CH2-Pad13)*%
X88840000Y-83890000D03*
%TO.P,U1,14,GPIO46*%
%TO.N,unconnected-(U1-GPIO46-Pad14)*%
X88840000Y-86430000D03*
%TO.P,U1,15,GPIO9/ADC1_CH8*%
%TO.N,unconnected-(U1-GPIO9{slash}ADC1_CH8-Pad15)*%
X88840000Y-88970000D03*
%TO.P,U1,16,GPIO10/ADC1_CH9*%
%TO.N,unconnected-(U1-GPIO10{slash}ADC1_CH9-Pad16)*%
X88840000Y-91510000D03*
%TO.P,U1,17,GPIO11/ADC2_CH0*%
%TO.N,Net-(U1-GPIO11{slash}ADC2_CH0)*%
X88840000Y-94050000D03*
%TO.P,U1,18,GPIO12/ADC2_CH1*%
%TO.N,Net-(U1-GPIO12{slash}ADC2_CH1)*%
X88840000Y-96590000D03*
%TO.P,U1,19,GPIO13/ADC2_CH2*%
%TO.N,unconnected-(U1-GPIO13{slash}ADC2_CH2-Pad19)*%
X88840000Y-99130000D03*
%TO.P,U1,20,GPIO14/ADC2_CH3*%
%TO.N,CS*%
X88836320Y-101667280D03*
%TO.P,U1,21,5V*%
%TO.N,+5V*%
X88836320Y-104207280D03*
%TO.P,U1,22,GND*%
%TO.N,GND*%
X88836320Y-106747280D03*
%TO.P,U1,23,GND*%
X111700000Y-106750000D03*
%TO.P,U1,24,GND*%
X111700000Y-104210000D03*
%TO.P,U1,25,GPIO19/USB_D-*%
%TO.N,unconnected-(U1-GPIO19{slash}USB_D--Pad25)*%
X111700000Y-101670000D03*
%TO.P,U1,26,GPIO20/USB_D+*%
%TO.N,unconnected-(U1-GPIO20{slash}USB_D+-Pad26)*%
X111700000Y-99130000D03*
%TO.P,U1,27,GPIO21*%
%TO.N,unconnected-(U1-GPIO21-Pad27)*%
X111700000Y-96590000D03*
%TO.P,U1,28,GPIO47*%
%TO.N,unconnected-(U1-GPIO47-Pad28)*%
X111700000Y-94050000D03*
%TO.P,U1,29,GPIO48*%
%TO.N,unconnected-(U1-GPIO48-Pad29)*%
X111700000Y-91510000D03*
%TO.P,U1,30,GPIO45*%
%TO.N,unconnected-(U1-GPIO45-Pad30)*%
X111700000Y-88970000D03*
%TO.P,U1,31,GPIO0*%
%TO.N,unconnected-(U1-GPIO0-Pad31)*%
X111700000Y-86430000D03*
%TO.P,U1,32,GPIO35*%
%TO.N,unconnected-(U1-GPIO35-Pad32)*%
X111700000Y-83890000D03*
%TO.P,U1,33,GPIO36*%
%TO.N,unconnected-(U1-GPIO36-Pad33)*%
X111700000Y-81350000D03*
%TO.P,U1,34,GPIO37*%
%TO.N,unconnected-(U1-GPIO37-Pad34)*%
X111700000Y-78810000D03*
%TO.P,U1,35,GPIO38*%
%TO.N,unconnected-(U1-GPIO38-Pad35)*%
X111700000Y-76270000D03*
%TO.P,U1,36,GPIO39/MTCK*%
%TO.N,unconnected-(U1-GPIO39{slash}MTCK-Pad36)*%
X111700000Y-73730000D03*
%TO.P,U1,37,GPIO40/MTDO*%
%TO.N,unconnected-(U1-GPIO40{slash}MTDO-Pad37)*%
X111700000Y-71190000D03*
%TO.P,U1,38,GPIO41/MTDI*%
%TO.N,unconnected-(U1-GPIO41{slash}MTDI-Pad38)*%
X111700000Y-68650000D03*
%TO.P,U1,39,GPIO42/MTMS*%
%TO.N,unconnected-(U1-GPIO42{slash}MTMS-Pad39)*%
X111700000Y-66110000D03*
%TO.P,U1,40,GPIO2/ADC1_CH1*%
%TO.N,unconnected-(U1-GPIO2{slash}ADC1_CH1-Pad40)*%
X111700000Y-63570000D03*
%TO.P,U1,41,GPIO1/ADC1_CH0*%
%TO.N,unconnected-(U1-GPIO1{slash}ADC1_CH0-Pad41)*%
X111700000Y-61030000D03*
%TO.P,U1,42,GPIO44/U0RXD*%
%TO.N,unconnected-(U1-GPIO44{slash}U0RXD-Pad42)*%
X111700000Y-58490000D03*
%TO.P,U1,43,GPIO43/U0TXD*%
%TO.N,unconnected-(U1-GPIO43{slash}U0TXD-Pad43)*%
X111700000Y-55950000D03*
%TO.P,U1,44,GND*%
%TO.N,GND*%
X111700000Y-53410000D03*
%TD*%
D12*
%TO.P,J3,1,Pin_1*%
%TO.N,+5V*%
X83100000Y-92380000D03*
D13*
%TO.P,J3,2,Pin_2*%
%TO.N,GND*%
X83100000Y-89840000D03*
%TO.P,J3,3,Pin_3*%
%TO.N,MOSI*%
X83100000Y-87300000D03*
%TO.P,J3,4,Pin_4*%
%TO.N,CS*%
X83100000Y-84760000D03*
%TO.P,J3,5,Pin_5*%
%TO.N,SCK*%
X83100000Y-82220000D03*
%TD*%
D12*
%TO.P,J2,1,Pin_1*%
%TO.N,+3V3*%
X83120000Y-78440000D03*
D13*
%TO.P,J2,2,Pin_2*%
%TO.N,ONEWIRE*%
X83120000Y-75900000D03*
%TO.P,J2,3,Pin_3*%
%TO.N,GND*%
X83120000Y-73360000D03*
%TD*%
D12*
%TO.P,J1,1,Pin_1*%
%TO.N,+3V3*%
X83120000Y-69540000D03*
D13*
%TO.P,J1,2,Pin_2*%
%TO.N,ONEWIRE*%
X83120000Y-67000000D03*
%TO.P,J1,3,Pin_3*%
%TO.N,GND*%
X83120000Y-64460000D03*
%TD*%
D14*
%TO.N,+5V*%
X83100000Y-102100000D02*
X83100000Y-92380000D01*
X88836320Y-104207280D02*
X85207280Y-104207280D01*
X85207280Y-104207280D02*
X83100000Y-102100000D01*
%TD*%
%TA.AperFunction,Conductor*%
%TO.N,GND*%
G36*
X87292153Y-52570185D02*
G01*
X87337908Y-52622989D01*
X87347852Y-52692147D01*
X87345939Y-52702234D01*
X87345909Y-52702517D01*
X87339501Y-52762123D01*
X87339500Y-52762135D01*
X87339500Y-54057870D01*
X87339501Y-54057876D01*
X87345908Y-54117483D01*
X87396202Y-54252328D01*
X87396206Y-54252335D01*
X87482452Y-54367544D01*
X87482455Y-54367547D01*
X87597664Y-54453793D01*
X87597671Y-54453797D01*
X87732517Y-54504091D01*
X87732516Y-54504091D01*
X87739444Y-54504835D01*
X87792127Y-54510500D01*
X89887872Y-54510499D01*
X89947483Y-54504091D01*
X90082331Y-54453796D01*
X90197546Y-54367546D01*
X90283796Y-54252331D01*
X90334091Y-54117483D01*
X90340500Y-54057873D01*
X90340499Y-53357339D01*
X90340499Y-52762129D01*
X90340498Y-52762123D01*
X90340497Y-52762116D01*
X90334091Y-52702517D01*
X90333262Y-52694804D01*
X90334657Y-52694654D01*
X90337950Y-52633244D01*
X90378818Y-52576573D01*
X90443837Y-52550993D01*
X90454886Y-52550500D01*
X110321425Y-52550500D01*
X110388464Y-52570185D01*
X110434219Y-52622989D01*
X110444163Y-52692147D01*
X110421743Y-52747385D01*
X110359198Y-52833471D01*
X110280591Y-52987744D01*
X110227085Y-53152415D01*
X110225884Y-53159999D01*
X110225885Y-53160000D01*
X111384314Y-53160000D01*
X111379920Y-53164394D01*
X111327259Y-53255606D01*
X111300000Y-53357339D01*
X111300000Y-53462661D01*
X111327259Y-53564394D01*
X111379920Y-53655606D01*
X111384314Y-53660000D01*
X110225885Y-53660000D01*
X110227085Y-53667584D01*
X110280591Y-53832255D01*
X110359195Y-53986524D01*
X110460967Y-54126602D01*
X110583397Y-54249032D01*
X110723475Y-54350804D01*
X110877742Y-54429408D01*
X111042415Y-54482914D01*
X111213429Y-54510000D01*
X111450000Y-54510000D01*
X111450000Y-53725686D01*
X111454394Y-53730080D01*
X111545606Y-53782741D01*
X111647339Y-53810000D01*
X111752661Y-53810000D01*
X111854394Y-53782741D01*
X111945606Y-53730080D01*
X111950000Y-53725686D01*
X111950000Y-54510000D01*
X112186571Y-54510000D01*
X112357584Y-54482914D01*
X112522257Y-54429408D01*
X112676524Y-54350804D01*
X112816602Y-54249032D01*
X112939032Y-54126602D01*
X113040804Y-53986524D01*
X113119408Y-53832255D01*
X113172914Y-53667584D01*
X113174115Y-53660000D01*
X112015686Y-53660000D01*
X112020080Y-53655606D01*
X112072741Y-53564394D01*
X112100000Y-53462661D01*
X112100000Y-53357339D01*
X112072741Y-53255606D01*
X112020080Y-53164394D01*
X112015686Y-53160000D01*
X113174115Y-53160000D01*
X113174115Y-53159999D01*
X113172914Y-53152415D01*
X113119408Y-52987744D01*
X113040801Y-52833471D01*
X112978257Y-52747385D01*
X112954777Y-52681579D01*
X112970603Y-52613525D01*
X113020709Y-52564830D01*
X113078575Y-52550500D01*
X113325500Y-52550500D01*
X113392539Y-52570185D01*
X113438294Y-52622989D01*
X113449500Y-52674500D01*
X113449500Y-107825500D01*
X113429815Y-107892539D01*
X113377011Y-107938294D01*
X113325500Y-107949500D01*
X112685303Y-107949500D01*
X112618264Y-107929815D01*
X112572509Y-107877011D01*
X112562565Y-107807853D01*
X112591590Y-107744297D01*
X112629008Y-107715015D01*
X112676524Y-107690804D01*
X112816602Y-107589032D01*
X112939032Y-107466602D01*
X113040804Y-107326524D01*
X113119408Y-107172255D01*
X113172914Y-107007584D01*
X113174115Y-107000000D01*
X112015686Y-107000000D01*
X112020080Y-106995606D01*
X112072741Y-106904394D01*
X112100000Y-106802661D01*
X112100000Y-106697339D01*
X112072741Y-106595606D01*
X112020080Y-106504394D01*
X112015686Y-106500000D01*
X113174115Y-106500000D01*
X113174115Y-106499999D01*
X113172914Y-106492415D01*
X113119408Y-106327744D01*
X113040804Y-106173475D01*
X112939032Y-106033397D01*
X112816602Y-105910967D01*
X112676524Y-105809195D01*
X112522257Y-105730591D01*
X112357584Y-105677085D01*
X112186571Y-105650000D01*
X111950000Y-105650000D01*
X111950000Y-106434314D01*
X111945606Y-106429920D01*
X111854394Y-106377259D01*
X111752661Y-106350000D01*
X111647339Y-106350000D01*
X111545606Y-106377259D01*
X111454394Y-106429920D01*
X111450000Y-106434314D01*
X111450000Y-105650000D01*
X111213429Y-105650000D01*
X111042415Y-105677085D01*
X110877742Y-105730591D01*
X110723475Y-105809195D01*
X110583397Y-105910967D01*
X110460967Y-106033397D01*
X110359195Y-106173475D01*
X110280591Y-106327744D01*
X110227085Y-106492415D01*
X110225884Y-106499999D01*
X110225885Y-106500000D01*
X111384314Y-106500000D01*
X111379920Y-106504394D01*
X111327259Y-106595606D01*
X111300000Y-106697339D01*
X111300000Y-106802661D01*
X111327259Y-106904394D01*
X111379920Y-106995606D01*
X111384314Y-107000000D01*
X110225885Y-107000000D01*
X110227085Y-107007584D01*
X110280591Y-107172255D01*
X110359195Y-107326524D01*
X110460967Y-107466602D01*
X110583397Y-107589032D01*
X110723475Y-107690804D01*
X110770992Y-107715015D01*
X110821788Y-107762990D01*
X110838583Y-107830811D01*
X110816046Y-107896945D01*
X110761331Y-107940397D01*
X110714697Y-107949500D01*
X89816285Y-107949500D01*
X89749246Y-107929815D01*
X89703491Y-107877011D01*
X89693547Y-107807853D01*
X89722572Y-107744297D01*
X89759990Y-107715015D01*
X89812844Y-107688084D01*
X89952922Y-107586312D01*
X90075352Y-107463882D01*
X90177124Y-107323804D01*
X90255728Y-107169535D01*
X90309234Y-107004864D01*
X90310435Y-106997280D01*
X89152006Y-106997280D01*
X89156400Y-106992886D01*
X89209061Y-106901674D01*
X89236320Y-106799941D01*
X89236320Y-106694619D01*
X89209061Y-106592886D01*
X89156400Y-106501674D01*
X89152006Y-106497280D01*
X90310435Y-106497280D01*
X90310435Y-106497279D01*
X90309234Y-106489695D01*
X90255728Y-106325024D01*
X90177124Y-106170755D01*
X90075352Y-106030677D01*
X89952922Y-105908247D01*
X89812844Y-105806475D01*
X89658577Y-105727871D01*
X89493904Y-105674365D01*
X89322891Y-105647280D01*
X89086320Y-105647280D01*
X89086320Y-106431594D01*
X89081926Y-106427200D01*
X88990714Y-106374539D01*
X88888981Y-106347280D01*
X88783659Y-106347280D01*
X88681926Y-106374539D01*
X88590714Y-106427200D01*
X88586320Y-106431594D01*
X88586320Y-105647280D01*
X88349749Y-105647280D01*
X88178735Y-105674365D01*
X88014062Y-105727871D01*
X87859795Y-105806475D01*
X87719717Y-105908247D01*
X87597287Y-106030677D01*
X87495515Y-106170755D01*
X87416911Y-106325024D01*
X87363405Y-106489695D01*
X87362204Y-106497279D01*
X87362205Y-106497280D01*
X88520634Y-106497280D01*
X88516240Y-106501674D01*
X88463579Y-106592886D01*
X88436320Y-106694619D01*
X88436320Y-106799941D01*
X88463579Y-106901674D01*
X88516240Y-106992886D01*
X88520634Y-106997280D01*
X87362205Y-106997280D01*
X87363405Y-107004864D01*
X87416911Y-107169535D01*
X87495515Y-107323804D01*
X87597287Y-107463882D01*
X87719717Y-107586312D01*
X87859795Y-107688084D01*
X87912650Y-107715015D01*
X87963446Y-107762990D01*
X87980241Y-107830811D01*
X87957703Y-107896946D01*
X87902988Y-107940397D01*
X87856355Y-107949500D01*
X78674500Y-107949500D01*
X78607461Y-107929815D01*
X78561706Y-107877011D01*
X78550500Y-107825500D01*
X78550500Y-82112133D01*
X81504500Y-82112133D01*
X81504500Y-82327866D01*
X81538245Y-82540922D01*
X81538246Y-82540926D01*
X81604908Y-82746089D01*
X81702843Y-82938299D01*
X81829641Y-83112821D01*
X81982179Y-83265359D01*
X82048043Y-83313212D01*
X82153294Y-83389682D01*
X82195959Y-83445012D01*
X82201938Y-83514626D01*
X82169332Y-83576421D01*
X82153294Y-83590318D01*
X81982179Y-83714641D01*
X81982177Y-83714643D01*
X81982176Y-83714643D01*
X81829643Y-83867176D01*
X81829643Y-83867177D01*
X81829641Y-83867179D01*
X81775186Y-83942129D01*
X81702843Y-84041700D01*
X81604909Y-84233908D01*
X81538245Y-84439077D01*
X81504500Y-84652133D01*
X81504500Y-84867866D01*
X81538245Y-85080922D01*
X81538246Y-85080926D01*
X81604908Y-85286089D01*
X81702843Y-85478299D01*
X81829641Y-85652821D01*
X81982179Y-85805359D01*
X82048043Y-85853212D01*
X82153294Y-85929682D01*
X82195959Y-85985012D01*
X82201938Y-86054626D01*
X82169332Y-86116421D01*
X82153294Y-86130318D01*
X81982179Y-86254641D01*
X81982177Y-86254643D01*
X81982176Y-86254643D01*
X81829643Y-86407176D01*
X81829643Y-86407177D01*
X81829641Y-86407179D01*
X81775186Y-86482129D01*
X81702843Y-86581700D01*
X81604909Y-86773908D01*
X81538245Y-86979077D01*
X81504500Y-87192133D01*
X81504500Y-87407866D01*
X81538245Y-87620922D01*
X81538246Y-87620926D01*
X81604908Y-87826089D01*
X81702843Y-88018299D01*
X81829641Y-88192821D01*
X81982179Y-88345359D01*
X82153720Y-88469991D01*
X82196385Y-88525321D01*
X82202364Y-88594935D01*
X82169758Y-88656730D01*
X82153720Y-88670627D01*
X81982503Y-88795024D01*
X81830025Y-88947502D01*
X81830025Y-88947503D01*
X81703271Y-89121963D01*
X81605372Y-89314098D01*
X81538733Y-89519190D01*
X81527519Y-89590000D01*
X82557291Y-89590000D01*
X82545548Y-89610339D01*
X82505000Y-89761667D01*
X82505000Y-89918333D01*
X82545548Y-90069661D01*
X82557291Y-90090000D01*
X81527519Y-90090000D01*
X81538733Y-90160809D01*
X81605372Y-90365901D01*
X81703271Y-90558036D01*
X81830025Y-90732496D01*
X81830025Y-90732497D01*
X81972107Y-90874579D01*
X82005592Y-90935902D01*
X82000608Y-91005594D01*
X81958736Y-91061527D01*
X81936840Y-91074638D01*
X81935672Y-91075182D01*
X81786342Y-91167289D01*
X81662289Y-91291342D01*
X81570187Y-91440663D01*
X81570186Y-91440666D01*
X81515001Y-91607203D01*
X81515001Y-91607204D01*
X81515000Y-91607204D01*
X81504500Y-91709983D01*
X81504500Y-93050001D01*
X81504501Y-93050018D01*
X81515000Y-93152796D01*
X81515001Y-93152799D01*
X81570185Y-93319331D01*
X81570187Y-93319336D01*
X81605069Y-93375888D01*
X81662288Y-93468656D01*
X81786344Y-93592712D01*
X81935666Y-93684814D01*
X82014505Y-93710938D01*
X82071948Y-93750709D01*
X82098772Y-93815224D01*
X82099500Y-93828643D01*
X82099500Y-102198541D01*
X82099500Y-102198543D01*
X82099499Y-102198543D01*
X82137947Y-102391829D01*
X82137950Y-102391839D01*
X82213364Y-102573907D01*
X82213371Y-102573920D01*
X82322860Y-102737781D01*
X82322863Y-102737785D01*
X82466537Y-102881459D01*
X82466559Y-102881479D01*
X84427015Y-104841935D01*
X84427044Y-104841966D01*
X84569494Y-104984416D01*
X84569498Y-104984419D01*
X84733359Y-105093908D01*
X84733372Y-105093915D01*
X84862113Y-105147241D01*
X84905024Y-105165015D01*
X84915444Y-105169331D01*
X85012092Y-105188555D01*
X85060415Y-105198167D01*
X85108738Y-105207780D01*
X85108739Y-105207780D01*
X85108740Y-105207780D01*
X85305820Y-105207780D01*
X87946083Y-105207780D01*
X88002379Y-105221296D01*
X88013870Y-105227151D01*
X88013872Y-105227151D01*
X88013875Y-105227153D01*
X88178619Y-105280682D01*
X88349709Y-105307780D01*
X88349710Y-105307780D01*
X89322930Y-105307780D01*
X89322931Y-105307780D01*
X89494021Y-105280682D01*
X89658765Y-105227153D01*
X89813108Y-105148512D01*
X89953248Y-105046694D01*
X90075734Y-104924208D01*
X90177552Y-104784068D01*
X90256193Y-104629725D01*
X90309722Y-104464981D01*
X90336820Y-104293891D01*
X90336820Y-104120669D01*
X90311372Y-103959999D01*
X110225884Y-103959999D01*
X110225885Y-103960000D01*
X111384314Y-103960000D01*
X111379920Y-103964394D01*
X111327259Y-104055606D01*
X111300000Y-104157339D01*
X111300000Y-104262661D01*
X111327259Y-104364394D01*
X111379920Y-104455606D01*
X111384314Y-104460000D01*
X110225885Y-104460000D01*
X110227085Y-104467584D01*
X110280591Y-104632255D01*
X110359195Y-104786524D01*
X110460967Y-104926602D01*
X110583397Y-105049032D01*
X110723475Y-105150804D01*
X110877742Y-105229408D01*
X111042415Y-105282914D01*
X111213429Y-105310000D01*
X111450000Y-105310000D01*
X111450000Y-104525686D01*
X111454394Y-104530080D01*
X111545606Y-104582741D01*
X111647339Y-104610000D01*
X111752661Y-104610000D01*
X111854394Y-104582741D01*
X111945606Y-104530080D01*
X111950000Y-104525686D01*
X111950000Y-105310000D01*
X112186571Y-105310000D01*
X112357584Y-105282914D01*
X112522257Y-105229408D01*
X112676524Y-105150804D01*
X112816602Y-105049032D01*
X112939032Y-104926602D01*
X113040804Y-104786524D01*
X113119408Y-104632255D01*
X113172914Y-104467584D01*
X113174115Y-104460000D01*
X112015686Y-104460000D01*
X112020080Y-104455606D01*
X112072741Y-104364394D01*
X112100000Y-104262661D01*
X112100000Y-104157339D01*
X112072741Y-104055606D01*
X112020080Y-103964394D01*
X112015686Y-103960000D01*
X113174115Y-103960000D01*
X113174115Y-103959999D01*
X113172914Y-103952415D01*
X113119408Y-103787744D01*
X113040804Y-103633475D01*
X112939032Y-103493397D01*
X112816602Y-103370967D01*
X112676524Y-103269195D01*
X112522257Y-103190591D01*
X112357584Y-103137085D01*
X112186571Y-103110000D01*
X111950000Y-103110000D01*
X111950000Y-103894314D01*
X111945606Y-103889920D01*
X111854394Y-103837259D01*
X111752661Y-103810000D01*
X111647339Y-103810000D01*
X111545606Y-103837259D01*
X111454394Y-103889920D01*
X111450000Y-103894314D01*
X111450000Y-103110000D01*
X111213429Y-103110000D01*
X111042415Y-103137085D01*
X110877742Y-103190591D01*
X110723475Y-103269195D01*
X110583397Y-103370967D01*
X110460967Y-103493397D01*
X110359195Y-103633475D01*
X110280591Y-103787744D01*
X110227085Y-103952415D01*
X110225884Y-103959999D01*
X90311372Y-103959999D01*
X90309722Y-103949579D01*
X90256193Y-103784835D01*
X90177552Y-103630492D01*
X90075734Y-103490352D01*
X89953248Y-103367866D01*
X89813108Y-103266048D01*
X89658765Y-103187407D01*
X89494021Y-103133878D01*
X89494019Y-103133877D01*
X89494018Y-103133877D01*
X89343261Y-103110000D01*
X89322931Y-103106780D01*
X88349709Y-103106780D01*
X88329379Y-103110000D01*
X88178622Y-103133877D01*
X88013870Y-103187408D01*
X88002379Y-103193264D01*
X87946083Y-103206780D01*
X85673062Y-103206780D01*
X85606023Y-103187095D01*
X85585381Y-103170461D01*
X84136819Y-101721899D01*
X84122115Y-101694971D01*
X84105523Y-101669153D01*
X84104631Y-101662952D01*
X84103334Y-101660576D01*
X84100500Y-101634218D01*
X84100500Y-101580669D01*
X87335820Y-101580669D01*
X87335820Y-101753891D01*
X87362918Y-101924981D01*
X87416447Y-102089725D01*
X87495088Y-102244068D01*
X87596906Y-102384208D01*
X87719392Y-102506694D01*
X87859532Y-102608512D01*
X88013875Y-102687153D01*
X88178619Y-102740682D01*
X88349709Y-102767780D01*
X88349710Y-102767780D01*
X89322930Y-102767780D01*
X89322931Y-102767780D01*
X89494021Y-102740682D01*
X89658765Y-102687153D01*
X89813108Y-102608512D01*
X89953248Y-102506694D01*
X90075734Y-102384208D01*
X90177552Y-102244068D01*
X90256193Y-102089725D01*
X90309722Y-101924981D01*
X90336820Y-101753891D01*
X90336820Y-101583389D01*
X110199500Y-101583389D01*
X110199500Y-101756610D01*
X110226166Y-101924977D01*
X110226598Y-101927701D01*
X110280127Y-102092445D01*
X110358768Y-102246788D01*
X110460586Y-102386928D01*
X110583072Y-102509414D01*
X110723212Y-102611232D01*
X110877555Y-102689873D01*
X111042299Y-102743402D01*
X111213389Y-102770500D01*
X111213390Y-102770500D01*
X112186610Y-102770500D01*
X112186611Y-102770500D01*
X112357701Y-102743402D01*
X112522445Y-102689873D01*
X112676788Y-102611232D01*
X112816928Y-102509414D01*
X112939414Y-102386928D01*
X113041232Y-102246788D01*
X113119873Y-102092445D01*
X113173402Y-101927701D01*
X113200500Y-101756611D01*
X113200500Y-101583389D01*
X113173402Y-101412299D01*
X113119873Y-101247555D01*
X113041232Y-101093212D01*
X112939414Y-100953072D01*
X112816928Y-100830586D01*
X112676788Y-100728768D01*
X112522445Y-100650127D01*
X112357701Y-100596598D01*
X112357699Y-100596597D01*
X112357698Y-100596597D01*
X112226271Y-100575781D01*
X112186611Y-100569500D01*
X111213389Y-100569500D01*
X111173728Y-100575781D01*
X111042302Y-100596597D01*
X110877552Y-100650128D01*
X110723211Y-100728768D01*
X110643256Y-100786859D01*
X110583072Y-100830586D01*
X110583070Y-100830588D01*
X110583069Y-100830588D01*
X110460588Y-100953069D01*
X110460588Y-100953070D01*
X110460586Y-100953072D01*
X110416859Y-101013256D01*
X110358768Y-101093211D01*
X110280128Y-101247552D01*
X110226597Y-101412302D01*
X110199500Y-101583389D01*
X90336820Y-101583389D01*
X90336820Y-101580669D01*
X90309722Y-101409579D01*
X90256193Y-101244835D01*
X90177552Y-101090492D01*
X90075734Y-100950352D01*
X89953248Y-100827866D01*
X89813108Y-100726048D01*
X89658765Y-100647407D01*
X89494021Y-100593878D01*
X89494019Y-100593877D01*
X89494018Y-100593877D01*
X89340104Y-100569500D01*
X89322931Y-100566780D01*
X88349709Y-100566780D01*
X88332536Y-100569500D01*
X88178622Y-100593877D01*
X88013872Y-100647408D01*
X87859531Y-100726048D01*
X87779576Y-100784139D01*
X87719392Y-100827866D01*
X87719390Y-100827868D01*
X87719389Y-100827868D01*
X87596908Y-100950349D01*
X87596908Y-100950350D01*
X87596906Y-100950352D01*
X87594930Y-100953072D01*
X87495088Y-101090491D01*
X87416448Y-101244832D01*
X87362917Y-101409582D01*
X87335820Y-101580669D01*
X84100500Y-101580669D01*
X84100500Y-99043389D01*
X87339500Y-99043389D01*
X87339500Y-99216611D01*
X87366598Y-99387701D01*
X87420127Y-99552445D01*
X87498768Y-99706788D01*
X87600586Y-99846928D01*
X87723072Y-99969414D01*
X87863212Y-100071232D01*
X88017555Y-100149873D01*
X88182299Y-100203402D01*
X88353389Y-100230500D01*
X88353390Y-100230500D01*
X89326610Y-100230500D01*
X89326611Y-100230500D01*
X89497701Y-100203402D01*
X89662445Y-100149873D01*
X89816788Y-100071232D01*
X89956928Y-99969414D01*
X90079414Y-99846928D01*
X90181232Y-99706788D01*
X90259873Y-99552445D01*
X90313402Y-99387701D01*
X90340500Y-99216611D01*
X90340500Y-99043389D01*
X110199500Y-99043389D01*
X110199500Y-99216611D01*
X110226598Y-99387701D01*
X110280127Y-99552445D01*
X110358768Y-99706788D01*
X110460586Y-99846928D01*
X110583072Y-99969414D01*
X110723212Y-100071232D01*
X110877555Y-100149873D01*
X111042299Y-100203402D01*
X111213389Y-100230500D01*
X111213390Y-100230500D01*
X112186610Y-100230500D01*
X112186611Y-100230500D01*
X112357701Y-100203402D01*
X112522445Y-100149873D01*
X112676788Y-100071232D01*
X112816928Y-99969414D01*
X112939414Y-99846928D01*
X113041232Y-99706788D01*
X113119873Y-99552445D01*
X113173402Y-99387701D01*
X113200500Y-99216611D01*
X113200500Y-99043389D01*
X113173402Y-98872299D01*
X113119873Y-98707555D01*
X113041232Y-98553212D01*
X112939414Y-98413072D01*
X112816928Y-98290586D01*
X112676788Y-98188768D01*
X112522445Y-98110127D01*
X112357701Y-98056598D01*
X112357699Y-98056597D01*
X112357698Y-98056597D01*
X112226271Y-98035781D01*
X112186611Y-98029500D01*
X111213389Y-98029500D01*
X111173728Y-98035781D01*
X111042302Y-98056597D01*
X110877552Y-98110128D01*
X110723211Y-98188768D01*
X110643256Y-98246859D01*
X110583072Y-98290586D01*
X110583070Y-98290588D01*
X110583069Y-98290588D01*
X110460588Y-98413069D01*
X110460588Y-98413070D01*
X110460586Y-98413072D01*
X110416859Y-98473256D01*
X110358768Y-98553211D01*
X110280128Y-98707552D01*
X110226597Y-98872302D01*
X110199500Y-99043389D01*
X90340500Y-99043389D01*
X90313402Y-98872299D01*
X90259873Y-98707555D01*
X90181232Y-98553212D01*
X90079414Y-98413072D01*
X89956928Y-98290586D01*
X89816788Y-98188768D01*
X89662445Y-98110127D01*
X89497701Y-98056598D01*
X89497699Y-98056597D01*
X89497698Y-98056597D01*
X89366271Y-98035781D01*
X89326611Y-98029500D01*
X88353389Y-98029500D01*
X88313728Y-98035781D01*
X88182302Y-98056597D01*
X88017552Y-98110128D01*
X87863211Y-98188768D01*
X87783256Y-98246859D01*
X87723072Y-98290586D01*
X87723070Y-98290588D01*
X87723069Y-98290588D01*
X87600588Y-98413069D01*
X87600588Y-98413070D01*
X87600586Y-98413072D01*
X87556859Y-98473256D01*
X87498768Y-98553211D01*
X87420128Y-98707552D01*
X87366597Y-98872302D01*
X87339500Y-99043389D01*
X84100500Y-99043389D01*
X84100500Y-96503389D01*
X87339500Y-96503389D01*
X87339500Y-96676611D01*
X87366598Y-96847701D01*
X87420127Y-97012445D01*
X87498768Y-97166788D01*
X87600586Y-97306928D01*
X87723072Y-97429414D01*
X87863212Y-97531232D01*
X88017555Y-97609873D01*
X88182299Y-97663402D01*
X88353389Y-97690500D01*
X88353390Y-97690500D01*
X89326610Y-97690500D01*
X89326611Y-97690500D01*
X89497701Y-97663402D01*
X89662445Y-97609873D01*
X89816788Y-97531232D01*
X89956928Y-97429414D01*
X90079414Y-97306928D01*
X90181232Y-97166788D01*
X90259873Y-97012445D01*
X90313402Y-96847701D01*
X90340500Y-96676611D01*
X90340500Y-96503389D01*
X110199500Y-96503389D01*
X110199500Y-96676611D01*
X110226598Y-96847701D01*
X110280127Y-97012445D01*
X110358768Y-97166788D01*
X110460586Y-97306928D01*
X110583072Y-97429414D01*
X110723212Y-97531232D01*
X110877555Y-97609873D01*
X111042299Y-97663402D01*
X111213389Y-97690500D01*
X111213390Y-97690500D01*
X112186610Y-97690500D01*
X112186611Y-97690500D01*
X112357701Y-97663402D01*
X112522445Y-97609873D01*
X112676788Y-97531232D01*
X112816928Y-97429414D01*
X112939414Y-97306928D01*
X113041232Y-97166788D01*
X113119873Y-97012445D01*
X113173402Y-96847701D01*
X113200500Y-96676611D01*
X113200500Y-96503389D01*
X113173402Y-96332299D01*
X113119873Y-96167555D01*
X113041232Y-96013212D01*
X112939414Y-95873072D01*
X112816928Y-95750586D01*
X112676788Y-95648768D01*
X112522445Y-95570127D01*
X112357701Y-95516598D01*
X112357699Y-95516597D01*
X112357698Y-95516597D01*
X112226271Y-95495781D01*
X112186611Y-95489500D01*
X111213389Y-95489500D01*
X111173728Y-95495781D01*
X111042302Y-95516597D01*
X110877552Y-95570128D01*
X110723211Y-95648768D01*
X110643256Y-95706859D01*
X110583072Y-95750586D01*
X110583070Y-95750588D01*
X110583069Y-95750588D01*
X110460588Y-95873069D01*
X110460588Y-95873070D01*
X110460586Y-95873072D01*
X110416859Y-95933256D01*
X110358768Y-96013211D01*
X110280128Y-96167552D01*
X110226597Y-96332302D01*
X110199500Y-96503389D01*
X90340500Y-96503389D01*
X90313402Y-96332299D01*
X90259873Y-96167555D01*
X90181232Y-96013212D01*
X90079414Y-95873072D01*
X89956928Y-95750586D01*
X89816788Y-95648768D01*
X89662445Y-95570127D01*
X89497701Y-95516598D01*
X89497699Y-95516597D01*
X89497698Y-95516597D01*
X89366271Y-95495781D01*
X89326611Y-95489500D01*
X88353389Y-95489500D01*
X88313728Y-95495781D01*
X88182302Y-95516597D01*
X88017552Y-95570128D01*
X87863211Y-95648768D01*
X87783256Y-95706859D01*
X87723072Y-95750586D01*
X87723070Y-95750588D01*
X87723069Y-95750588D01*
X87600588Y-95873069D01*
X87600588Y-95873070D01*
X87600586Y-95873072D01*
X87556859Y-95933256D01*
X87498768Y-96013211D01*
X87420128Y-96167552D01*
X87366597Y-96332302D01*
X87339500Y-96503389D01*
X84100500Y-96503389D01*
X84100500Y-93963389D01*
X87339500Y-93963389D01*
X87339500Y-94136611D01*
X87366598Y-94307701D01*
X87420127Y-94472445D01*
X87498768Y-94626788D01*
X87600586Y-94766928D01*
X87723072Y-94889414D01*
X87863212Y-94991232D01*
X88017555Y-95069873D01*
X88182299Y-95123402D01*
X88353389Y-95150500D01*
X88353390Y-95150500D01*
X89326610Y-95150500D01*
X89326611Y-95150500D01*
X89497701Y-95123402D01*
X89662445Y-95069873D01*
X89816788Y-94991232D01*
X89956928Y-94889414D01*
X90079414Y-94766928D01*
X90181232Y-94626788D01*
X90259873Y-94472445D01*
X90313402Y-94307701D01*
X90340500Y-94136611D01*
X90340500Y-93963389D01*
X110199500Y-93963389D01*
X110199500Y-94136611D01*
X110226598Y-94307701D01*
X110280127Y-94472445D01*
X110358768Y-94626788D01*
X110460586Y-94766928D01*
X110583072Y-94889414D01*
X110723212Y-94991232D01*
X110877555Y-95069873D01*
X111042299Y-95123402D01*
X111213389Y-95150500D01*
X111213390Y-95150500D01*
X112186610Y-95150500D01*
X112186611Y-95150500D01*
X112357701Y-95123402D01*
X112522445Y-95069873D01*
X112676788Y-94991232D01*
X112816928Y-94889414D01*
X112939414Y-94766928D01*
X113041232Y-94626788D01*
X113119873Y-94472445D01*
X113173402Y-94307701D01*
X113200500Y-94136611D01*
X113200500Y-93963389D01*
X113173402Y-93792299D01*
X113119873Y-93627555D01*
X113041232Y-93473212D01*
X112939414Y-93333072D01*
X112816928Y-93210586D01*
X112676788Y-93108768D01*
X112522445Y-93030127D01*
X112357701Y-92976598D01*
X112357699Y-92976597D01*
X112357698Y-92976597D01*
X112226271Y-92955781D01*
X112186611Y-92949500D01*
X111213389Y-92949500D01*
X111173728Y-92955781D01*
X111042302Y-92976597D01*
X110877552Y-93030128D01*
X110723211Y-93108768D01*
X110643256Y-93166859D01*
X110583072Y-93210586D01*
X110583070Y-93210588D01*
X110583069Y-93210588D01*
X110460588Y-93333069D01*
X110460588Y-93333070D01*
X110460586Y-93333072D01*
X110416859Y-93393256D01*
X110358768Y-93473211D01*
X110280128Y-93627552D01*
X110226597Y-93792302D01*
X110199500Y-93963389D01*
X90340500Y-93963389D01*
X90313402Y-93792299D01*
X90259873Y-93627555D01*
X90181232Y-93473212D01*
X90079414Y-93333072D01*
X89956928Y-93210586D01*
X89816788Y-93108768D01*
X89662445Y-93030127D01*
X89497701Y-92976598D01*
X89497699Y-92976597D01*
X89497698Y-92976597D01*
X89366271Y-92955781D01*
X89326611Y-92949500D01*
X88353389Y-92949500D01*
X88313728Y-92955781D01*
X88182302Y-92976597D01*
X88017552Y-93030128D01*
X87863211Y-93108768D01*
X87783256Y-93166859D01*
X87723072Y-93210586D01*
X87723070Y-93210588D01*
X87723069Y-93210588D01*
X87600588Y-93333069D01*
X87600588Y-93333070D01*
X87600586Y-93333072D01*
X87556859Y-93393256D01*
X87498768Y-93473211D01*
X87420128Y-93627552D01*
X87366597Y-93792302D01*
X87339500Y-93963389D01*
X84100500Y-93963389D01*
X84100500Y-93828643D01*
X84120185Y-93761604D01*
X84172989Y-93715849D01*
X84185482Y-93710942D01*
X84264334Y-93684814D01*
X84413656Y-93592712D01*
X84537712Y-93468656D01*
X84629814Y-93319334D01*
X84684999Y-93152797D01*
X84695500Y-93050009D01*
X84695499Y-91709992D01*
X84684999Y-91607203D01*
X84629814Y-91440666D01*
X84619158Y-91423389D01*
X87339500Y-91423389D01*
X87339500Y-91596610D01*
X87357457Y-91709991D01*
X87366598Y-91767701D01*
X87420127Y-91932445D01*
X87498768Y-92086788D01*
X87600586Y-92226928D01*
X87723072Y-92349414D01*
X87863212Y-92451232D01*
X88017555Y-92529873D01*
X88182299Y-92583402D01*
X88353389Y-92610500D01*
X88353390Y-92610500D01*
X89326610Y-92610500D01*
X89326611Y-92610500D01*
X89497701Y-92583402D01*
X89662445Y-92529873D01*
X89816788Y-92451232D01*
X89956928Y-92349414D01*
X90079414Y-92226928D01*
X90181232Y-92086788D01*
X90259873Y-91932445D01*
X90313402Y-91767701D01*
X90340500Y-91596611D01*
X90340500Y-91423389D01*
X110199500Y-91423389D01*
X110199500Y-91596610D01*
X110217457Y-91709991D01*
X110226598Y-91767701D01*
X110280127Y-91932445D01*
X110358768Y-92086788D01*
X110460586Y-92226928D01*
X110583072Y-92349414D01*
X110723212Y-92451232D01*
X110877555Y-92529873D01*
X111042299Y-92583402D01*
X111213389Y-92610500D01*
X111213390Y-92610500D01*
X112186610Y-92610500D01*
X112186611Y-92610500D01*
X112357701Y-92583402D01*
X112522445Y-92529873D01*
X112676788Y-92451232D01*
X112816928Y-92349414D01*
X112939414Y-92226928D01*
X113041232Y-92086788D01*
X113119873Y-91932445D01*
X113173402Y-91767701D01*
X113200500Y-91596611D01*
X113200500Y-91423389D01*
X113173402Y-91252299D01*
X113119873Y-91087555D01*
X113041232Y-90933212D01*
X112939414Y-90793072D01*
X112816928Y-90670586D01*
X112676788Y-90568768D01*
X112522445Y-90490127D01*
X112357701Y-90436598D01*
X112357699Y-90436597D01*
X112357698Y-90436597D01*
X112226271Y-90415781D01*
X112186611Y-90409500D01*
X111213389Y-90409500D01*
X111173728Y-90415781D01*
X111042302Y-90436597D01*
X110877552Y-90490128D01*
X110723211Y-90568768D01*
X110643256Y-90626859D01*
X110583072Y-90670586D01*
X110583070Y-90670588D01*
X110583069Y-90670588D01*
X110460588Y-90793069D01*
X110460588Y-90793070D01*
X110460586Y-90793072D01*
X110416859Y-90853256D01*
X110358768Y-90933211D01*
X110280128Y-91087552D01*
X110226597Y-91252302D01*
X110199500Y-91423389D01*
X90340500Y-91423389D01*
X90313402Y-91252299D01*
X90259873Y-91087555D01*
X90181232Y-90933212D01*
X90079414Y-90793072D01*
X89956928Y-90670586D01*
X89816788Y-90568768D01*
X89662445Y-90490127D01*
X89497701Y-90436598D01*
X89497699Y-90436597D01*
X89497698Y-90436597D01*
X89366271Y-90415781D01*
X89326611Y-90409500D01*
X88353389Y-90409500D01*
X88313728Y-90415781D01*
X88182302Y-90436597D01*
X88017552Y-90490128D01*
X87863211Y-90568768D01*
X87783256Y-90626859D01*
X87723072Y-90670586D01*
X87723070Y-90670588D01*
X87723069Y-90670588D01*
X87600588Y-90793069D01*
X87600588Y-90793070D01*
X87600586Y-90793072D01*
X87556859Y-90853256D01*
X87498768Y-90933211D01*
X87420128Y-91087552D01*
X87366597Y-91252302D01*
X87339500Y-91423389D01*
X84619158Y-91423389D01*
X84537712Y-91291344D01*
X84413656Y-91167288D01*
X84264334Y-91075186D01*
X84264332Y-91075185D01*
X84264325Y-91075181D01*
X84263165Y-91074640D01*
X84262503Y-91074057D01*
X84258187Y-91071395D01*
X84258642Y-91070657D01*
X84210727Y-91028466D01*
X84191577Y-90961272D01*
X84211795Y-90894392D01*
X84227892Y-90874578D01*
X84369977Y-90732493D01*
X84496728Y-90558036D01*
X84594627Y-90365901D01*
X84661266Y-90160809D01*
X84672481Y-90090000D01*
X83642709Y-90090000D01*
X83654452Y-90069661D01*
X83695000Y-89918333D01*
X83695000Y-89761667D01*
X83654452Y-89610339D01*
X83642709Y-89590000D01*
X84672481Y-89590000D01*
X84661266Y-89519190D01*
X84594627Y-89314098D01*
X84496728Y-89121963D01*
X84372808Y-88951403D01*
X84372806Y-88951399D01*
X84369979Y-88947508D01*
X84369974Y-88947502D01*
X84305861Y-88883389D01*
X87339500Y-88883389D01*
X87339500Y-89056611D01*
X87366598Y-89227701D01*
X87420127Y-89392445D01*
X87498768Y-89546788D01*
X87600586Y-89686928D01*
X87723072Y-89809414D01*
X87863212Y-89911232D01*
X88017555Y-89989873D01*
X88182299Y-90043402D01*
X88353389Y-90070500D01*
X88353390Y-90070500D01*
X89326610Y-90070500D01*
X89326611Y-90070500D01*
X89497701Y-90043402D01*
X89662445Y-89989873D01*
X89816788Y-89911232D01*
X89956928Y-89809414D01*
X90079414Y-89686928D01*
X90181232Y-89546788D01*
X90259873Y-89392445D01*
X90313402Y-89227701D01*
X90340500Y-89056611D01*
X90340500Y-88883389D01*
X110199500Y-88883389D01*
X110199500Y-89056611D01*
X110226598Y-89227701D01*
X110280127Y-89392445D01*
X110358768Y-89546788D01*
X110460586Y-89686928D01*
X110583072Y-89809414D01*
X110723212Y-89911232D01*
X110877555Y-89989873D01*
X111042299Y-90043402D01*
X111213389Y-90070500D01*
X111213390Y-90070500D01*
X112186610Y-90070500D01*
X112186611Y-90070500D01*
X112357701Y-90043402D01*
X112522445Y-89989873D01*
X112676788Y-89911232D01*
X112816928Y-89809414D01*
X112939414Y-89686928D01*
X113041232Y-89546788D01*
X113119873Y-89392445D01*
X113173402Y-89227701D01*
X113200500Y-89056611D01*
X113200500Y-88883389D01*
X113173402Y-88712299D01*
X113119873Y-88547555D01*
X113041232Y-88393212D01*
X112939414Y-88253072D01*
X112816928Y-88130586D01*
X112676788Y-88028768D01*
X112522445Y-87950127D01*
X112357701Y-87896598D01*
X112357699Y-87896597D01*
X112357698Y-87896597D01*
X112226271Y-87875781D01*
X112186611Y-87869500D01*
X111213389Y-87869500D01*
X111173728Y-87875781D01*
X111042302Y-87896597D01*
X110877552Y-87950128D01*
X110723211Y-88028768D01*
X110643256Y-88086859D01*
X110583072Y-88130586D01*
X110583070Y-88130588D01*
X110583069Y-88130588D01*
X110460588Y-88253069D01*
X110460588Y-88253070D01*
X110460586Y-88253072D01*
X110416859Y-88313256D01*
X110358768Y-88393211D01*
X110280128Y-88547552D01*
X110226597Y-88712302D01*
X110213495Y-88795025D01*
X110199500Y-88883389D01*
X90340500Y-88883389D01*
X90313402Y-88712299D01*
X90259873Y-88547555D01*
X90181232Y-88393212D01*
X90079414Y-88253072D01*
X89956928Y-88130586D01*
X89816788Y-88028768D01*
X89662445Y-87950127D01*
X89497701Y-87896598D01*
X89497699Y-87896597D01*
X89497698Y-87896597D01*
X89366271Y-87875781D01*
X89326611Y-87869500D01*
X88353389Y-87869500D01*
X88313728Y-87875781D01*
X88182302Y-87896597D01*
X88017552Y-87950128D01*
X87863211Y-88028768D01*
X87783256Y-88086859D01*
X87723072Y-88130586D01*
X87723070Y-88130588D01*
X87723069Y-88130588D01*
X87600588Y-88253069D01*
X87600588Y-88253070D01*
X87600586Y-88253072D01*
X87556859Y-88313256D01*
X87498768Y-88393211D01*
X87420128Y-88547552D01*
X87366597Y-88712302D01*
X87353495Y-88795025D01*
X87339500Y-88883389D01*
X84305861Y-88883389D01*
X84217497Y-88795025D01*
X84046279Y-88670627D01*
X84003614Y-88615297D01*
X83997635Y-88545683D01*
X84030241Y-88483888D01*
X84046280Y-88469991D01*
X84217821Y-88345359D01*
X84370359Y-88192821D01*
X84497157Y-88018299D01*
X84595092Y-87826089D01*
X84661754Y-87620926D01*
X84688846Y-87449873D01*
X84695500Y-87407866D01*
X84695500Y-87192133D01*
X84661754Y-86979077D01*
X84661754Y-86979074D01*
X84595092Y-86773911D01*
X84497157Y-86581701D01*
X84370359Y-86407179D01*
X84306569Y-86343389D01*
X87339500Y-86343389D01*
X87339500Y-86516611D01*
X87366598Y-86687701D01*
X87420127Y-86852445D01*
X87498768Y-87006788D01*
X87600586Y-87146928D01*
X87723072Y-87269414D01*
X87863212Y-87371232D01*
X88017555Y-87449873D01*
X88182299Y-87503402D01*
X88353389Y-87530500D01*
X88353390Y-87530500D01*
X89326610Y-87530500D01*
X89326611Y-87530500D01*
X89497701Y-87503402D01*
X89662445Y-87449873D01*
X89816788Y-87371232D01*
X89956928Y-87269414D01*
X90079414Y-87146928D01*
X90181232Y-87006788D01*
X90259873Y-86852445D01*
X90313402Y-86687701D01*
X90340500Y-86516611D01*
X90340500Y-86343389D01*
X110199500Y-86343389D01*
X110199500Y-86516611D01*
X110226598Y-86687701D01*
X110280127Y-86852445D01*
X110358768Y-87006788D01*
X110460586Y-87146928D01*
X110583072Y-87269414D01*
X110723212Y-87371232D01*
X110877555Y-87449873D01*
X111042299Y-87503402D01*
X111213389Y-87530500D01*
X111213390Y-87530500D01*
X112186610Y-87530500D01*
X112186611Y-87530500D01*
X112357701Y-87503402D01*
X112522445Y-87449873D01*
X112676788Y-87371232D01*
X112816928Y-87269414D01*
X112939414Y-87146928D01*
X113041232Y-87006788D01*
X113119873Y-86852445D01*
X113173402Y-86687701D01*
X113200500Y-86516611D01*
X113200500Y-86343389D01*
X113173402Y-86172299D01*
X113119873Y-86007555D01*
X113041232Y-85853212D01*
X112939414Y-85713072D01*
X112816928Y-85590586D01*
X112676788Y-85488768D01*
X112522445Y-85410127D01*
X112357701Y-85356598D01*
X112357699Y-85356597D01*
X112357698Y-85356597D01*
X112226271Y-85335781D01*
X112186611Y-85329500D01*
X111213389Y-85329500D01*
X111173728Y-85335781D01*
X111042302Y-85356597D01*
X110877552Y-85410128D01*
X110723211Y-85488768D01*
X110643256Y-85546859D01*
X110583072Y-85590586D01*
X110583070Y-85590588D01*
X110583069Y-85590588D01*
X110460588Y-85713069D01*
X110460588Y-85713070D01*
X110460586Y-85713072D01*
X110416859Y-85773256D01*
X110358768Y-85853211D01*
X110280128Y-86007552D01*
X110226597Y-86172302D01*
X110213556Y-86254641D01*
X110199500Y-86343389D01*
X90340500Y-86343389D01*
X90313402Y-86172299D01*
X90259873Y-86007555D01*
X90181232Y-85853212D01*
X90079414Y-85713072D01*
X89956928Y-85590586D01*
X89816788Y-85488768D01*
X89662445Y-85410127D01*
X89497701Y-85356598D01*
X89497699Y-85356597D01*
X89497698Y-85356597D01*
X89366271Y-85335781D01*
X89326611Y-85329500D01*
X88353389Y-85329500D01*
X88313728Y-85335781D01*
X88182302Y-85356597D01*
X88017552Y-85410128D01*
X87863211Y-85488768D01*
X87783256Y-85546859D01*
X87723072Y-85590586D01*
X87723070Y-85590588D01*
X87723069Y-85590588D01*
X87600588Y-85713069D01*
X87600588Y-85713070D01*
X87600586Y-85713072D01*
X87556859Y-85773256D01*
X87498768Y-85853211D01*
X87420128Y-86007552D01*
X87366597Y-86172302D01*
X87353556Y-86254641D01*
X87339500Y-86343389D01*
X84306569Y-86343389D01*
X84217821Y-86254641D01*
X84046704Y-86130317D01*
X84004040Y-86074988D01*
X83998061Y-86005374D01*
X84030667Y-85943580D01*
X84046702Y-85929684D01*
X84217821Y-85805359D01*
X84370359Y-85652821D01*
X84497157Y-85478299D01*
X84595092Y-85286089D01*
X84661754Y-85080926D01*
X84688846Y-84909873D01*
X84695500Y-84867866D01*
X84695500Y-84652133D01*
X84661754Y-84439077D01*
X84661754Y-84439074D01*
X84595092Y-84233911D01*
X84497157Y-84041701D01*
X84370359Y-83867179D01*
X84306569Y-83803389D01*
X87339500Y-83803389D01*
X87339500Y-83976611D01*
X87366598Y-84147701D01*
X87420127Y-84312445D01*
X87498768Y-84466788D01*
X87600586Y-84606928D01*
X87723072Y-84729414D01*
X87863212Y-84831232D01*
X88017555Y-84909873D01*
X88182299Y-84963402D01*
X88353389Y-84990500D01*
X88353390Y-84990500D01*
X89326610Y-84990500D01*
X89326611Y-84990500D01*
X89497701Y-84963402D01*
X89662445Y-84909873D01*
X89816788Y-84831232D01*
X89956928Y-84729414D01*
X90079414Y-84606928D01*
X90181232Y-84466788D01*
X90259873Y-84312445D01*
X90313402Y-84147701D01*
X90340500Y-83976611D01*
X90340500Y-83803389D01*
X110199500Y-83803389D01*
X110199500Y-83976611D01*
X110226598Y-84147701D01*
X110280127Y-84312445D01*
X110358768Y-84466788D01*
X110460586Y-84606928D01*
X110583072Y-84729414D01*
X110723212Y-84831232D01*
X110877555Y-84909873D01*
X111042299Y-84963402D01*
X111213389Y-84990500D01*
X111213390Y-84990500D01*
X112186610Y-84990500D01*
X112186611Y-84990500D01*
X112357701Y-84963402D01*
X112522445Y-84909873D01*
X112676788Y-84831232D01*
X112816928Y-84729414D01*
X112939414Y-84606928D01*
X113041232Y-84466788D01*
X113119873Y-84312445D01*
X113173402Y-84147701D01*
X113200500Y-83976611D01*
X113200500Y-83803389D01*
X113173402Y-83632299D01*
X113119873Y-83467555D01*
X113041232Y-83313212D01*
X112939414Y-83173072D01*
X112816928Y-83050586D01*
X112676788Y-82948768D01*
X112522445Y-82870127D01*
X112357701Y-82816598D01*
X112357699Y-82816597D01*
X112357698Y-82816597D01*
X112226271Y-82795781D01*
X112186611Y-82789500D01*
X111213389Y-82789500D01*
X111173728Y-82795781D01*
X111042302Y-82816597D01*
X110877552Y-82870128D01*
X110723211Y-82948768D01*
X110643256Y-83006859D01*
X110583072Y-83050586D01*
X110583070Y-83050588D01*
X110583069Y-83050588D01*
X110460588Y-83173069D01*
X110460588Y-83173070D01*
X110460586Y-83173072D01*
X110416859Y-83233256D01*
X110358768Y-83313211D01*
X110280128Y-83467552D01*
X110226597Y-83632302D01*
X110213556Y-83714641D01*
X110199500Y-83803389D01*
X90340500Y-83803389D01*
X90313402Y-83632299D01*
X90259873Y-83467555D01*
X90181232Y-83313212D01*
X90079414Y-83173072D01*
X89956928Y-83050586D01*
X89816788Y-82948768D01*
X89662445Y-82870127D01*
X89497701Y-82816598D01*
X89497699Y-82816597D01*
X89497698Y-82816597D01*
X89366271Y-82795781D01*
X89326611Y-82789500D01*
X88353389Y-82789500D01*
X88313728Y-82795781D01*
X88182302Y-82816597D01*
X88017552Y-82870128D01*
X87863211Y-82948768D01*
X87783256Y-83006859D01*
X87723072Y-83050586D01*
X87723070Y-83050588D01*
X87723069Y-83050588D01*
X87600588Y-83173069D01*
X87600588Y-83173070D01*
X87600586Y-83173072D01*
X87556859Y-83233256D01*
X87498768Y-83313211D01*
X87420128Y-83467552D01*
X87366597Y-83632302D01*
X87353556Y-83714641D01*
X87339500Y-83803389D01*
X84306569Y-83803389D01*
X84217821Y-83714641D01*
X84046704Y-83590317D01*
X84004040Y-83534988D01*
X83998061Y-83465374D01*
X84030667Y-83403580D01*
X84046702Y-83389684D01*
X84217821Y-83265359D01*
X84370359Y-83112821D01*
X84497157Y-82938299D01*
X84595092Y-82746089D01*
X84661754Y-82540926D01*
X84688846Y-82369873D01*
X84695500Y-82327866D01*
X84695500Y-82112133D01*
X84661754Y-81899077D01*
X84661754Y-81899074D01*
X84595092Y-81693911D01*
X84497157Y-81501701D01*
X84370359Y-81327179D01*
X84306569Y-81263389D01*
X87339500Y-81263389D01*
X87339500Y-81436611D01*
X87366598Y-81607701D01*
X87420127Y-81772445D01*
X87498768Y-81926788D01*
X87600586Y-82066928D01*
X87723072Y-82189414D01*
X87863212Y-82291232D01*
X88017555Y-82369873D01*
X88182299Y-82423402D01*
X88353389Y-82450500D01*
X88353390Y-82450500D01*
X89326610Y-82450500D01*
X89326611Y-82450500D01*
X89497701Y-82423402D01*
X89662445Y-82369873D01*
X89816788Y-82291232D01*
X89956928Y-82189414D01*
X90079414Y-82066928D01*
X90181232Y-81926788D01*
X90259873Y-81772445D01*
X90313402Y-81607701D01*
X90340500Y-81436611D01*
X90340500Y-81263389D01*
X110199500Y-81263389D01*
X110199500Y-81436611D01*
X110226598Y-81607701D01*
X110280127Y-81772445D01*
X110358768Y-81926788D01*
X110460586Y-82066928D01*
X110583072Y-82189414D01*
X110723212Y-82291232D01*
X110877555Y-82369873D01*
X111042299Y-82423402D01*
X111213389Y-82450500D01*
X111213390Y-82450500D01*
X112186610Y-82450500D01*
X112186611Y-82450500D01*
X112357701Y-82423402D01*
X112522445Y-82369873D01*
X112676788Y-82291232D01*
X112816928Y-82189414D01*
X112939414Y-82066928D01*
X113041232Y-81926788D01*
X113119873Y-81772445D01*
X113173402Y-81607701D01*
X113200500Y-81436611D01*
X113200500Y-81263389D01*
X113173402Y-81092299D01*
X113119873Y-80927555D01*
X113041232Y-80773212D01*
X112939414Y-80633072D01*
X112816928Y-80510586D01*
X112676788Y-80408768D01*
X112522445Y-80330127D01*
X112357701Y-80276598D01*
X112357699Y-80276597D01*
X112357698Y-80276597D01*
X112226271Y-80255781D01*
X112186611Y-80249500D01*
X111213389Y-80249500D01*
X111173728Y-80255781D01*
X111042302Y-80276597D01*
X110877552Y-80330128D01*
X110723211Y-80408768D01*
X110643256Y-80466859D01*
X110583072Y-80510586D01*
X110583070Y-80510588D01*
X110583069Y-80510588D01*
X110460588Y-80633069D01*
X110460588Y-80633070D01*
X110460586Y-80633072D01*
X110416859Y-80693256D01*
X110358768Y-80773211D01*
X110280128Y-80927552D01*
X110226597Y-81092302D01*
X110213556Y-81174641D01*
X110199500Y-81263389D01*
X90340500Y-81263389D01*
X90313402Y-81092299D01*
X90259873Y-80927555D01*
X90181232Y-80773212D01*
X90079414Y-80633072D01*
X89956928Y-80510586D01*
X89816788Y-80408768D01*
X89662445Y-80330127D01*
X89497701Y-80276598D01*
X89497699Y-80276597D01*
X89497698Y-80276597D01*
X89366271Y-80255781D01*
X89326611Y-80249500D01*
X88353389Y-80249500D01*
X88313728Y-80255781D01*
X88182302Y-80276597D01*
X88017552Y-80330128D01*
X87863211Y-80408768D01*
X87783256Y-80466859D01*
X87723072Y-80510586D01*
X87723070Y-80510588D01*
X87723069Y-80510588D01*
X87600588Y-80633069D01*
X87600588Y-80633070D01*
X87600586Y-80633072D01*
X87556859Y-80693256D01*
X87498768Y-80773211D01*
X87420128Y-80927552D01*
X87366597Y-81092302D01*
X87353556Y-81174641D01*
X87339500Y-81263389D01*
X84306569Y-81263389D01*
X84217821Y-81174641D01*
X84043299Y-81047843D01*
X83851089Y-80949908D01*
X83645926Y-80883246D01*
X83645924Y-80883245D01*
X83645922Y-80883245D01*
X83432866Y-80849500D01*
X83432861Y-80849500D01*
X82767139Y-80849500D01*
X82767134Y-80849500D01*
X82554077Y-80883245D01*
X82348908Y-80949909D01*
X82156700Y-81047843D01*
X82057129Y-81120186D01*
X81982179Y-81174641D01*
X81982177Y-81174643D01*
X81982176Y-81174643D01*
X81829643Y-81327176D01*
X81829643Y-81327177D01*
X81829641Y-81327179D01*
X81775186Y-81402129D01*
X81702843Y-81501700D01*
X81604909Y-81693908D01*
X81538245Y-81899077D01*
X81504500Y-82112133D01*
X78550500Y-82112133D01*
X78550500Y-75792133D01*
X81524500Y-75792133D01*
X81524500Y-76007866D01*
X81558245Y-76220922D01*
X81558245Y-76220924D01*
X81558246Y-76220926D01*
X81624908Y-76426089D01*
X81722843Y-76618299D01*
X81849641Y-76792821D01*
X81849643Y-76792823D01*
X81991624Y-76934804D01*
X82025109Y-76996127D01*
X82020125Y-77065819D01*
X81978253Y-77121752D01*
X81956360Y-77134861D01*
X81955677Y-77135179D01*
X81806342Y-77227289D01*
X81682289Y-77351342D01*
X81590187Y-77500663D01*
X81590186Y-77500666D01*
X81535001Y-77667203D01*
X81535001Y-77667204D01*
X81535000Y-77667204D01*
X81524500Y-77769983D01*
X81524500Y-79110001D01*
X81524501Y-79110018D01*
X81535000Y-79212796D01*
X81535001Y-79212799D01*
X81590185Y-79379331D01*
X81590187Y-79379336D01*
X81625069Y-79435888D01*
X81682288Y-79528656D01*
X81806344Y-79652712D01*
X81955666Y-79744814D01*
X82122203Y-79799999D01*
X82224991Y-79810500D01*
X84015008Y-79810499D01*
X84117797Y-79799999D01*
X84284334Y-79744814D01*
X84433656Y-79652712D01*
X84557712Y-79528656D01*
X84649814Y-79379334D01*
X84704999Y-79212797D01*
X84715500Y-79110009D01*
X84715499Y-78723389D01*
X87339500Y-78723389D01*
X87339500Y-78896611D01*
X87366598Y-79067701D01*
X87420127Y-79232445D01*
X87498768Y-79386788D01*
X87600586Y-79526928D01*
X87723072Y-79649414D01*
X87863212Y-79751232D01*
X88017555Y-79829873D01*
X88182299Y-79883402D01*
X88353389Y-79910500D01*
X88353390Y-79910500D01*
X89326610Y-79910500D01*
X89326611Y-79910500D01*
X89497701Y-79883402D01*
X89662445Y-79829873D01*
X89816788Y-79751232D01*
X89956928Y-79649414D01*
X90079414Y-79526928D01*
X90181232Y-79386788D01*
X90259873Y-79232445D01*
X90313402Y-79067701D01*
X90340500Y-78896611D01*
X90340500Y-78723389D01*
X110199500Y-78723389D01*
X110199500Y-78896611D01*
X110226598Y-79067701D01*
X110280127Y-79232445D01*
X110358768Y-79386788D01*
X110460586Y-79526928D01*
X110583072Y-79649414D01*
X110723212Y-79751232D01*
X110877555Y-79829873D01*
X111042299Y-79883402D01*
X111213389Y-79910500D01*
X111213390Y-79910500D01*
X112186610Y-79910500D01*
X112186611Y-79910500D01*
X112357701Y-79883402D01*
X112522445Y-79829873D01*
X112676788Y-79751232D01*
X112816928Y-79649414D01*
X112939414Y-79526928D01*
X113041232Y-79386788D01*
X113119873Y-79232445D01*
X113173402Y-79067701D01*
X113200500Y-78896611D01*
X113200500Y-78723389D01*
X113173402Y-78552299D01*
X113119873Y-78387555D01*
X113041232Y-78233212D01*
X112939414Y-78093072D01*
X112816928Y-77970586D01*
X112676788Y-77868768D01*
X112522445Y-77790127D01*
X112357701Y-77736598D01*
X112357699Y-77736597D01*
X112357698Y-77736597D01*
X112226271Y-77715781D01*
X112186611Y-77709500D01*
X111213389Y-77709500D01*
X111173728Y-77715781D01*
X111042302Y-77736597D01*
X110877552Y-77790128D01*
X110723211Y-77868768D01*
X110643256Y-77926859D01*
X110583072Y-77970586D01*
X110583070Y-77970588D01*
X110583069Y-77970588D01*
X110460588Y-78093069D01*
X110460588Y-78093070D01*
X110460586Y-78093072D01*
X110416859Y-78153256D01*
X110358768Y-78233211D01*
X110280128Y-78387552D01*
X110226597Y-78552302D01*
X110200272Y-78718517D01*
X110199500Y-78723389D01*
X90340500Y-78723389D01*
X90313402Y-78552299D01*
X90259873Y-78387555D01*
X90181232Y-78233212D01*
X90079414Y-78093072D01*
X89956928Y-77970586D01*
X89816788Y-77868768D01*
X89662445Y-77790127D01*
X89497701Y-77736598D01*
X89497699Y-77736597D01*
X89497698Y-77736597D01*
X89366271Y-77715781D01*
X89326611Y-77709500D01*
X88353389Y-77709500D01*
X88313728Y-77715781D01*
X88182302Y-77736597D01*
X88017552Y-77790128D01*
X87863211Y-77868768D01*
X87783256Y-77926859D01*
X87723072Y-77970586D01*
X87723070Y-77970588D01*
X87723069Y-77970588D01*
X87600588Y-78093069D01*
X87600588Y-78093070D01*
X87600586Y-78093072D01*
X87556859Y-78153256D01*
X87498768Y-78233211D01*
X87420128Y-78387552D01*
X87366597Y-78552302D01*
X87340272Y-78718517D01*
X87339500Y-78723389D01*
X84715499Y-78723389D01*
X84715499Y-78387555D01*
X84715499Y-77769998D01*
X84715498Y-77769981D01*
X84704999Y-77667203D01*
X84704998Y-77667200D01*
X84649814Y-77500666D01*
X84557712Y-77351344D01*
X84433656Y-77227288D01*
X84284334Y-77135186D01*
X84284326Y-77135181D01*
X84283645Y-77134864D01*
X84283256Y-77134521D01*
X84278187Y-77131395D01*
X84278721Y-77130528D01*
X84231208Y-77088688D01*
X84212060Y-77021494D01*
X84232280Y-76954614D01*
X84248366Y-76934813D01*
X84390359Y-76792821D01*
X84517157Y-76618299D01*
X84615092Y-76426089D01*
X84681754Y-76220926D01*
X84687699Y-76183389D01*
X87339500Y-76183389D01*
X87339500Y-76356610D01*
X87350504Y-76426091D01*
X87366598Y-76527701D01*
X87420127Y-76692445D01*
X87498768Y-76846788D01*
X87600586Y-76986928D01*
X87723072Y-77109414D01*
X87863212Y-77211232D01*
X88017555Y-77289873D01*
X88182299Y-77343402D01*
X88353389Y-77370500D01*
X88353390Y-77370500D01*
X89326610Y-77370500D01*
X89326611Y-77370500D01*
X89497701Y-77343402D01*
X89662445Y-77289873D01*
X89816788Y-77211232D01*
X89956928Y-77109414D01*
X90079414Y-76986928D01*
X90181232Y-76846788D01*
X90259873Y-76692445D01*
X90313402Y-76527701D01*
X90340500Y-76356611D01*
X90340500Y-76183389D01*
X110199500Y-76183389D01*
X110199500Y-76356610D01*
X110210504Y-76426091D01*
X110226598Y-76527701D01*
X110280127Y-76692445D01*
X110358768Y-76846788D01*
X110460586Y-76986928D01*
X110583072Y-77109414D01*
X110723212Y-77211232D01*
X110877555Y-77289873D01*
X111042299Y-77343402D01*
X111213389Y-77370500D01*
X111213390Y-77370500D01*
X112186610Y-77370500D01*
X112186611Y-77370500D01*
X112357701Y-77343402D01*
X112522445Y-77289873D01*
X112676788Y-77211232D01*
X112816928Y-77109414D01*
X112939414Y-76986928D01*
X113041232Y-76846788D01*
X113119873Y-76692445D01*
X113173402Y-76527701D01*
X113200500Y-76356611D01*
X113200500Y-76183389D01*
X113173402Y-76012299D01*
X113119873Y-75847555D01*
X113041232Y-75693212D01*
X112939414Y-75553072D01*
X112816928Y-75430586D01*
X112676788Y-75328768D01*
X112522445Y-75250127D01*
X112357701Y-75196598D01*
X112357699Y-75196597D01*
X112357698Y-75196597D01*
X112226271Y-75175781D01*
X112186611Y-75169500D01*
X111213389Y-75169500D01*
X111173728Y-75175781D01*
X111042302Y-75196597D01*
X110877552Y-75250128D01*
X110723211Y-75328768D01*
X110661082Y-75373908D01*
X110583072Y-75430586D01*
X110583070Y-75430588D01*
X110583069Y-75430588D01*
X110460588Y-75553069D01*
X110460588Y-75553070D01*
X110460586Y-75553072D01*
X110416859Y-75613256D01*
X110358768Y-75693211D01*
X110280128Y-75847552D01*
X110226597Y-76012302D01*
X110199500Y-76183389D01*
X90340500Y-76183389D01*
X90313402Y-76012299D01*
X90259873Y-75847555D01*
X90181232Y-75693212D01*
X90079414Y-75553072D01*
X89956928Y-75430586D01*
X89816788Y-75328768D01*
X89662445Y-75250127D01*
X89497701Y-75196598D01*
X89497699Y-75196597D01*
X89497698Y-75196597D01*
X89366271Y-75175781D01*
X89326611Y-75169500D01*
X88353389Y-75169500D01*
X88313728Y-75175781D01*
X88182302Y-75196597D01*
X88017552Y-75250128D01*
X87863211Y-75328768D01*
X87801082Y-75373908D01*
X87723072Y-75430586D01*
X87723070Y-75430588D01*
X87723069Y-75430588D01*
X87600588Y-75553069D01*
X87600588Y-75553070D01*
X87600586Y-75553072D01*
X87556859Y-75613256D01*
X87498768Y-75693211D01*
X87420128Y-75847552D01*
X87366597Y-76012302D01*
X87339500Y-76183389D01*
X84687699Y-76183389D01*
X84691544Y-76159118D01*
X84691544Y-76159117D01*
X84715500Y-76007866D01*
X84715500Y-75792133D01*
X84681754Y-75579077D01*
X84681754Y-75579074D01*
X84615092Y-75373911D01*
X84517157Y-75181701D01*
X84390359Y-75007179D01*
X84237821Y-74854641D01*
X84066279Y-74730008D01*
X84023614Y-74674678D01*
X84017635Y-74605064D01*
X84050241Y-74543269D01*
X84066280Y-74529372D01*
X84237491Y-74404979D01*
X84237497Y-74404974D01*
X84389974Y-74252497D01*
X84389974Y-74252496D01*
X84516728Y-74078036D01*
X84614627Y-73885901D01*
X84681266Y-73680809D01*
X84687193Y-73643389D01*
X87339500Y-73643389D01*
X87339500Y-73816610D01*
X87361418Y-73955000D01*
X87366598Y-73987701D01*
X87420127Y-74152445D01*
X87498768Y-74306788D01*
X87600586Y-74446928D01*
X87723072Y-74569414D01*
X87863212Y-74671232D01*
X88017555Y-74749873D01*
X88182299Y-74803402D01*
X88353389Y-74830500D01*
X88353390Y-74830500D01*
X89326610Y-74830500D01*
X89326611Y-74830500D01*
X89497701Y-74803402D01*
X89662445Y-74749873D01*
X89816788Y-74671232D01*
X89956928Y-74569414D01*
X90079414Y-74446928D01*
X90181232Y-74306788D01*
X90259873Y-74152445D01*
X90313402Y-73987701D01*
X90340500Y-73816611D01*
X90340500Y-73643389D01*
X110199500Y-73643389D01*
X110199500Y-73816610D01*
X110221418Y-73955000D01*
X110226598Y-73987701D01*
X110280127Y-74152445D01*
X110358768Y-74306788D01*
X110460586Y-74446928D01*
X110583072Y-74569414D01*
X110723212Y-74671232D01*
X110877555Y-74749873D01*
X111042299Y-74803402D01*
X111213389Y-74830500D01*
X111213390Y-74830500D01*
X112186610Y-74830500D01*
X112186611Y-74830500D01*
X112357701Y-74803402D01*
X112522445Y-74749873D01*
X112676788Y-74671232D01*
X112816928Y-74569414D01*
X112939414Y-74446928D01*
X113041232Y-74306788D01*
X113119873Y-74152445D01*
X113173402Y-73987701D01*
X113200500Y-73816611D01*
X113200500Y-73643389D01*
X113173402Y-73472299D01*
X113119873Y-73307555D01*
X113041232Y-73153212D01*
X112939414Y-73013072D01*
X112816928Y-72890586D01*
X112676788Y-72788768D01*
X112522445Y-72710127D01*
X112357701Y-72656598D01*
X112357699Y-72656597D01*
X112357698Y-72656597D01*
X112226271Y-72635781D01*
X112186611Y-72629500D01*
X111213389Y-72629500D01*
X111173728Y-72635781D01*
X111042302Y-72656597D01*
X110877552Y-72710128D01*
X110723211Y-72788768D01*
X110700116Y-72805548D01*
X110583072Y-72890586D01*
X110583070Y-72890588D01*
X110583069Y-72890588D01*
X110460588Y-73013069D01*
X110460588Y-73013070D01*
X110460586Y-73013072D01*
X110441610Y-73039190D01*
X110358768Y-73153211D01*
X110280128Y-73307552D01*
X110226597Y-73472302D01*
X110199500Y-73643389D01*
X90340500Y-73643389D01*
X90313402Y-73472299D01*
X90259873Y-73307555D01*
X90181232Y-73153212D01*
X90079414Y-73013072D01*
X89956928Y-72890586D01*
X89816788Y-72788768D01*
X89662445Y-72710127D01*
X89497701Y-72656598D01*
X89497699Y-72656597D01*
X89497698Y-72656597D01*
X89366271Y-72635781D01*
X89326611Y-72629500D01*
X88353389Y-72629500D01*
X88313728Y-72635781D01*
X88182302Y-72656597D01*
X88017552Y-72710128D01*
X87863211Y-72788768D01*
X87840116Y-72805548D01*
X87723072Y-72890586D01*
X87723070Y-72890588D01*
X87723069Y-72890588D01*
X87600588Y-73013069D01*
X87600588Y-73013070D01*
X87600586Y-73013072D01*
X87581610Y-73039190D01*
X87498768Y-73153211D01*
X87420128Y-73307552D01*
X87366597Y-73472302D01*
X87339500Y-73643389D01*
X84687193Y-73643389D01*
X84691037Y-73619119D01*
X84692481Y-73610000D01*
X83662709Y-73610000D01*
X83674452Y-73589661D01*
X83715000Y-73438333D01*
X83715000Y-73281667D01*
X83674452Y-73130339D01*
X83662709Y-73110000D01*
X84692481Y-73110000D01*
X84681266Y-73039190D01*
X84614627Y-72834098D01*
X84516728Y-72641963D01*
X84389974Y-72467503D01*
X84389974Y-72467502D01*
X84237497Y-72315025D01*
X84063036Y-72188271D01*
X83870901Y-72090372D01*
X83665809Y-72023734D01*
X83452820Y-71990000D01*
X83370000Y-71990000D01*
X83370000Y-72817290D01*
X83349661Y-72805548D01*
X83198333Y-72765000D01*
X83041667Y-72765000D01*
X82890339Y-72805548D01*
X82870000Y-72817290D01*
X82870000Y-71990000D01*
X82787180Y-71990000D01*
X82574190Y-72023734D01*
X82369098Y-72090372D01*
X82176963Y-72188271D01*
X82002503Y-72315025D01*
X82002502Y-72315025D01*
X81850025Y-72467502D01*
X81850025Y-72467503D01*
X81723271Y-72641963D01*
X81625372Y-72834098D01*
X81558733Y-73039190D01*
X81547519Y-73110000D01*
X82577291Y-73110000D01*
X82565548Y-73130339D01*
X82525000Y-73281667D01*
X82525000Y-73438333D01*
X82565548Y-73589661D01*
X82577291Y-73610000D01*
X81547519Y-73610000D01*
X81558733Y-73680809D01*
X81625372Y-73885901D01*
X81723271Y-74078036D01*
X81850025Y-74252496D01*
X81850025Y-74252497D01*
X82002502Y-74404974D01*
X82173720Y-74529372D01*
X82216385Y-74584702D01*
X82222364Y-74654316D01*
X82189758Y-74716110D01*
X82173720Y-74730008D01*
X82002177Y-74854642D01*
X81849643Y-75007176D01*
X81849643Y-75007177D01*
X81849641Y-75007179D01*
X81795186Y-75082129D01*
X81722843Y-75181700D01*
X81624909Y-75373908D01*
X81558245Y-75579077D01*
X81524500Y-75792133D01*
X78550500Y-75792133D01*
X78550500Y-71103389D01*
X87339500Y-71103389D01*
X87339500Y-71276611D01*
X87366598Y-71447701D01*
X87420127Y-71612445D01*
X87498768Y-71766788D01*
X87600586Y-71906928D01*
X87723072Y-72029414D01*
X87863212Y-72131232D01*
X88017555Y-72209873D01*
X88182299Y-72263402D01*
X88353389Y-72290500D01*
X88353390Y-72290500D01*
X89326610Y-72290500D01*
X89326611Y-72290500D01*
X89497701Y-72263402D01*
X89662445Y-72209873D01*
X89816788Y-72131232D01*
X89956928Y-72029414D01*
X90079414Y-71906928D01*
X90181232Y-71766788D01*
X90259873Y-71612445D01*
X90313402Y-71447701D01*
X90340500Y-71276611D01*
X90340500Y-71103389D01*
X110199500Y-71103389D01*
X110199500Y-71276611D01*
X110226598Y-71447701D01*
X110280127Y-71612445D01*
X110358768Y-71766788D01*
X110460586Y-71906928D01*
X110583072Y-72029414D01*
X110723212Y-72131232D01*
X110877555Y-72209873D01*
X111042299Y-72263402D01*
X111213389Y-72290500D01*
X111213390Y-72290500D01*
X112186610Y-72290500D01*
X112186611Y-72290500D01*
X112357701Y-72263402D01*
X112522445Y-72209873D01*
X112676788Y-72131232D01*
X112816928Y-72029414D01*
X112939414Y-71906928D01*
X113041232Y-71766788D01*
X113119873Y-71612445D01*
X113173402Y-71447701D01*
X113200500Y-71276611D01*
X113200500Y-71103389D01*
X113173402Y-70932299D01*
X113119873Y-70767555D01*
X113041232Y-70613212D01*
X112939414Y-70473072D01*
X112816928Y-70350586D01*
X112676788Y-70248768D01*
X112522445Y-70170127D01*
X112357701Y-70116598D01*
X112357699Y-70116597D01*
X112357698Y-70116597D01*
X112226271Y-70095781D01*
X112186611Y-70089500D01*
X111213389Y-70089500D01*
X111173728Y-70095781D01*
X111042302Y-70116597D01*
X110877552Y-70170128D01*
X110723211Y-70248768D01*
X110643256Y-70306859D01*
X110583072Y-70350586D01*
X110583070Y-70350588D01*
X110583069Y-70350588D01*
X110460588Y-70473069D01*
X110460588Y-70473070D01*
X110460586Y-70473072D01*
X110456035Y-70479336D01*
X110358768Y-70613211D01*
X110280128Y-70767552D01*
X110226597Y-70932302D01*
X110199500Y-71103389D01*
X90340500Y-71103389D01*
X90313402Y-70932299D01*
X90259873Y-70767555D01*
X90181232Y-70613212D01*
X90079414Y-70473072D01*
X89956928Y-70350586D01*
X89816788Y-70248768D01*
X89662445Y-70170127D01*
X89497701Y-70116598D01*
X89497699Y-70116597D01*
X89497698Y-70116597D01*
X89366271Y-70095781D01*
X89326611Y-70089500D01*
X88353389Y-70089500D01*
X88313728Y-70095781D01*
X88182302Y-70116597D01*
X88017552Y-70170128D01*
X87863211Y-70248768D01*
X87783256Y-70306859D01*
X87723072Y-70350586D01*
X87723070Y-70350588D01*
X87723069Y-70350588D01*
X87600588Y-70473069D01*
X87600588Y-70473070D01*
X87600586Y-70473072D01*
X87596035Y-70479336D01*
X87498768Y-70613211D01*
X87420128Y-70767552D01*
X87366597Y-70932302D01*
X87339500Y-71103389D01*
X78550500Y-71103389D01*
X78550500Y-66892133D01*
X81524500Y-66892133D01*
X81524500Y-67107866D01*
X81527986Y-67129873D01*
X81558246Y-67320926D01*
X81624908Y-67526089D01*
X81722843Y-67718299D01*
X81849641Y-67892821D01*
X81849643Y-67892823D01*
X81991624Y-68034804D01*
X82025109Y-68096127D01*
X82020125Y-68165819D01*
X81978253Y-68221752D01*
X81956360Y-68234861D01*
X81955677Y-68235179D01*
X81806342Y-68327289D01*
X81682289Y-68451342D01*
X81590187Y-68600663D01*
X81590186Y-68600666D01*
X81535001Y-68767203D01*
X81535001Y-68767204D01*
X81535000Y-68767204D01*
X81524500Y-68869983D01*
X81524500Y-70210001D01*
X81524501Y-70210018D01*
X81535000Y-70312796D01*
X81535001Y-70312799D01*
X81588110Y-70473069D01*
X81590186Y-70479334D01*
X81682288Y-70628656D01*
X81806344Y-70752712D01*
X81955666Y-70844814D01*
X82122203Y-70899999D01*
X82224991Y-70910500D01*
X84015008Y-70910499D01*
X84117797Y-70899999D01*
X84284334Y-70844814D01*
X84433656Y-70752712D01*
X84557712Y-70628656D01*
X84649814Y-70479334D01*
X84704999Y-70312797D01*
X84715500Y-70210009D01*
X84715499Y-68869992D01*
X84704999Y-68767203D01*
X84649814Y-68600666D01*
X84626821Y-68563389D01*
X87339500Y-68563389D01*
X87339500Y-68736611D01*
X87347677Y-68788239D01*
X87360623Y-68869981D01*
X87366598Y-68907701D01*
X87420127Y-69072445D01*
X87498768Y-69226788D01*
X87600586Y-69366928D01*
X87723072Y-69489414D01*
X87863212Y-69591232D01*
X88017555Y-69669873D01*
X88182299Y-69723402D01*
X88353389Y-69750500D01*
X88353390Y-69750500D01*
X89326610Y-69750500D01*
X89326611Y-69750500D01*
X89497701Y-69723402D01*
X89662445Y-69669873D01*
X89816788Y-69591232D01*
X89956928Y-69489414D01*
X90079414Y-69366928D01*
X90181232Y-69226788D01*
X90259873Y-69072445D01*
X90313402Y-68907701D01*
X90340500Y-68736611D01*
X90340500Y-68563389D01*
X110199500Y-68563389D01*
X110199500Y-68736611D01*
X110207677Y-68788239D01*
X110220623Y-68869981D01*
X110226598Y-68907701D01*
X110280127Y-69072445D01*
X110358768Y-69226788D01*
X110460586Y-69366928D01*
X110583072Y-69489414D01*
X110723212Y-69591232D01*
X110877555Y-69669873D01*
X111042299Y-69723402D01*
X111213389Y-69750500D01*
X111213390Y-69750500D01*
X112186610Y-69750500D01*
X112186611Y-69750500D01*
X112357701Y-69723402D01*
X112522445Y-69669873D01*
X112676788Y-69591232D01*
X112816928Y-69489414D01*
X112939414Y-69366928D01*
X113041232Y-69226788D01*
X113119873Y-69072445D01*
X113173402Y-68907701D01*
X113200500Y-68736611D01*
X113200500Y-68563389D01*
X113173402Y-68392299D01*
X113119873Y-68227555D01*
X113041232Y-68073212D01*
X112939414Y-67933072D01*
X112816928Y-67810586D01*
X112676788Y-67708768D01*
X112522445Y-67630127D01*
X112357701Y-67576598D01*
X112357699Y-67576597D01*
X112357698Y-67576597D01*
X112226271Y-67555781D01*
X112186611Y-67549500D01*
X111213389Y-67549500D01*
X111173728Y-67555781D01*
X111042302Y-67576597D01*
X110877552Y-67630128D01*
X110723211Y-67708768D01*
X110643256Y-67766859D01*
X110583072Y-67810586D01*
X110583070Y-67810588D01*
X110583069Y-67810588D01*
X110460588Y-67933069D01*
X110460588Y-67933070D01*
X110460586Y-67933072D01*
X110416859Y-67993256D01*
X110358768Y-68073211D01*
X110280128Y-68227552D01*
X110226597Y-68392302D01*
X110217246Y-68451344D01*
X110199500Y-68563389D01*
X90340500Y-68563389D01*
X90313402Y-68392299D01*
X90259873Y-68227555D01*
X90181232Y-68073212D01*
X90079414Y-67933072D01*
X89956928Y-67810586D01*
X89816788Y-67708768D01*
X89662445Y-67630127D01*
X89497701Y-67576598D01*
X89497699Y-67576597D01*
X89497698Y-67576597D01*
X89366271Y-67555781D01*
X89326611Y-67549500D01*
X88353389Y-67549500D01*
X88313728Y-67555781D01*
X88182302Y-67576597D01*
X88017552Y-67630128D01*
X87863211Y-67708768D01*
X87783256Y-67766859D01*
X87723072Y-67810586D01*
X87723070Y-67810588D01*
X87723069Y-67810588D01*
X87600588Y-67933069D01*
X87600588Y-67933070D01*
X87600586Y-67933072D01*
X87556859Y-67993256D01*
X87498768Y-68073211D01*
X87420128Y-68227552D01*
X87366597Y-68392302D01*
X87357246Y-68451344D01*
X87339500Y-68563389D01*
X84626821Y-68563389D01*
X84557712Y-68451344D01*
X84433656Y-68327288D01*
X84284334Y-68235186D01*
X84284326Y-68235181D01*
X84283645Y-68234864D01*
X84283256Y-68234521D01*
X84278187Y-68231395D01*
X84278721Y-68230528D01*
X84231208Y-68188688D01*
X84212060Y-68121494D01*
X84232280Y-68054614D01*
X84248366Y-68034813D01*
X84390359Y-67892821D01*
X84517157Y-67718299D01*
X84615092Y-67526089D01*
X84681754Y-67320926D01*
X84712014Y-67129873D01*
X84715500Y-67107866D01*
X84715500Y-66892133D01*
X84693002Y-66750095D01*
X84681754Y-66679074D01*
X84615092Y-66473911D01*
X84517157Y-66281701D01*
X84390359Y-66107179D01*
X84306569Y-66023389D01*
X87339500Y-66023389D01*
X87339500Y-66196611D01*
X87366598Y-66367701D01*
X87420127Y-66532445D01*
X87498768Y-66686788D01*
X87600586Y-66826928D01*
X87723072Y-66949414D01*
X87863212Y-67051232D01*
X88017555Y-67129873D01*
X88182299Y-67183402D01*
X88353389Y-67210500D01*
X88353390Y-67210500D01*
X89326610Y-67210500D01*
X89326611Y-67210500D01*
X89497701Y-67183402D01*
X89662445Y-67129873D01*
X89816788Y-67051232D01*
X89956928Y-66949414D01*
X90079414Y-66826928D01*
X90181232Y-66686788D01*
X90259873Y-66532445D01*
X90313402Y-66367701D01*
X90340500Y-66196611D01*
X90340500Y-66023389D01*
X110199500Y-66023389D01*
X110199500Y-66196611D01*
X110226598Y-66367701D01*
X110280127Y-66532445D01*
X110358768Y-66686788D01*
X110460586Y-66826928D01*
X110583072Y-66949414D01*
X110723212Y-67051232D01*
X110877555Y-67129873D01*
X111042299Y-67183402D01*
X111213389Y-67210500D01*
X111213390Y-67210500D01*
X112186610Y-67210500D01*
X112186611Y-67210500D01*
X112357701Y-67183402D01*
X112522445Y-67129873D01*
X112676788Y-67051232D01*
X112816928Y-66949414D01*
X112939414Y-66826928D01*
X113041232Y-66686788D01*
X113119873Y-66532445D01*
X113173402Y-66367701D01*
X113200500Y-66196611D01*
X113200500Y-66023389D01*
X113173402Y-65852299D01*
X113119873Y-65687555D01*
X113041232Y-65533212D01*
X112939414Y-65393072D01*
X112816928Y-65270586D01*
X112676788Y-65168768D01*
X112522445Y-65090127D01*
X112357701Y-65036598D01*
X112357699Y-65036597D01*
X112357698Y-65036597D01*
X112226271Y-65015781D01*
X112186611Y-65009500D01*
X111213389Y-65009500D01*
X111173728Y-65015781D01*
X111042302Y-65036597D01*
X110877552Y-65090128D01*
X110723211Y-65168768D01*
X110643256Y-65226859D01*
X110583072Y-65270586D01*
X110583070Y-65270588D01*
X110583069Y-65270588D01*
X110460588Y-65393069D01*
X110460588Y-65393070D01*
X110460586Y-65393072D01*
X110416859Y-65453256D01*
X110358768Y-65533211D01*
X110280128Y-65687552D01*
X110226597Y-65852302D01*
X110210388Y-65954642D01*
X110199500Y-66023389D01*
X90340500Y-66023389D01*
X90313402Y-65852299D01*
X90259873Y-65687555D01*
X90181232Y-65533212D01*
X90079414Y-65393072D01*
X89956928Y-65270586D01*
X89816788Y-65168768D01*
X89662445Y-65090127D01*
X89497701Y-65036598D01*
X89497699Y-65036597D01*
X89497698Y-65036597D01*
X89366271Y-65015781D01*
X89326611Y-65009500D01*
X88353389Y-65009500D01*
X88313728Y-65015781D01*
X88182302Y-65036597D01*
X88017552Y-65090128D01*
X87863211Y-65168768D01*
X87783256Y-65226859D01*
X87723072Y-65270586D01*
X87723070Y-65270588D01*
X87723069Y-65270588D01*
X87600588Y-65393069D01*
X87600588Y-65393070D01*
X87600586Y-65393072D01*
X87556859Y-65453256D01*
X87498768Y-65533211D01*
X87420128Y-65687552D01*
X87366597Y-65852302D01*
X87350388Y-65954642D01*
X87339500Y-66023389D01*
X84306569Y-66023389D01*
X84237821Y-65954641D01*
X84066279Y-65830008D01*
X84023614Y-65774678D01*
X84017635Y-65705064D01*
X84050241Y-65643269D01*
X84066280Y-65629372D01*
X84237491Y-65504979D01*
X84237497Y-65504974D01*
X84389974Y-65352497D01*
X84389974Y-65352496D01*
X84516728Y-65178036D01*
X84614627Y-64985901D01*
X84681266Y-64780809D01*
X84692481Y-64710000D01*
X83662709Y-64710000D01*
X83674452Y-64689661D01*
X83715000Y-64538333D01*
X83715000Y-64381667D01*
X83674452Y-64230339D01*
X83662709Y-64210000D01*
X84692481Y-64210000D01*
X84681266Y-64139190D01*
X84614627Y-63934098D01*
X84516728Y-63741963D01*
X84389974Y-63567503D01*
X84389974Y-63567502D01*
X84305861Y-63483389D01*
X87339500Y-63483389D01*
X87339500Y-63656611D01*
X87366598Y-63827701D01*
X87420127Y-63992445D01*
X87498768Y-64146788D01*
X87600586Y-64286928D01*
X87723072Y-64409414D01*
X87863212Y-64511232D01*
X88017555Y-64589873D01*
X88182299Y-64643402D01*
X88353389Y-64670500D01*
X88353390Y-64670500D01*
X89326610Y-64670500D01*
X89326611Y-64670500D01*
X89497701Y-64643402D01*
X89662445Y-64589873D01*
X89816788Y-64511232D01*
X89956928Y-64409414D01*
X90079414Y-64286928D01*
X90181232Y-64146788D01*
X90259873Y-63992445D01*
X90313402Y-63827701D01*
X90340500Y-63656611D01*
X90340500Y-63483389D01*
X110199500Y-63483389D01*
X110199500Y-63656611D01*
X110226598Y-63827701D01*
X110280127Y-63992445D01*
X110358768Y-64146788D01*
X110460586Y-64286928D01*
X110583072Y-64409414D01*
X110723212Y-64511232D01*
X110877555Y-64589873D01*
X111042299Y-64643402D01*
X111213389Y-64670500D01*
X111213390Y-64670500D01*
X112186610Y-64670500D01*
X112186611Y-64670500D01*
X112357701Y-64643402D01*
X112522445Y-64589873D01*
X112676788Y-64511232D01*
X112816928Y-64409414D01*
X112939414Y-64286928D01*
X113041232Y-64146788D01*
X113119873Y-63992445D01*
X113173402Y-63827701D01*
X113200500Y-63656611D01*
X113200500Y-63483389D01*
X113173402Y-63312299D01*
X113119873Y-63147555D01*
X113041232Y-62993212D01*
X112939414Y-62853072D01*
X112816928Y-62730586D01*
X112676788Y-62628768D01*
X112522445Y-62550127D01*
X112357701Y-62496598D01*
X112357699Y-62496597D01*
X112357698Y-62496597D01*
X112226271Y-62475781D01*
X112186611Y-62469500D01*
X111213389Y-62469500D01*
X111173728Y-62475781D01*
X111042302Y-62496597D01*
X110877552Y-62550128D01*
X110723211Y-62628768D01*
X110643256Y-62686859D01*
X110583072Y-62730586D01*
X110583070Y-62730588D01*
X110583069Y-62730588D01*
X110460588Y-62853069D01*
X110460588Y-62853070D01*
X110460586Y-62853072D01*
X110416859Y-62913256D01*
X110358768Y-62993211D01*
X110280128Y-63147552D01*
X110226597Y-63312302D01*
X110210328Y-63415025D01*
X110199500Y-63483389D01*
X90340500Y-63483389D01*
X90313402Y-63312299D01*
X90259873Y-63147555D01*
X90181232Y-62993212D01*
X90079414Y-62853072D01*
X89956928Y-62730586D01*
X89816788Y-62628768D01*
X89662445Y-62550127D01*
X89497701Y-62496598D01*
X89497699Y-62496597D01*
X89497698Y-62496597D01*
X89366271Y-62475781D01*
X89326611Y-62469500D01*
X88353389Y-62469500D01*
X88313728Y-62475781D01*
X88182302Y-62496597D01*
X88017552Y-62550128D01*
X87863211Y-62628768D01*
X87783256Y-62686859D01*
X87723072Y-62730586D01*
X87723070Y-62730588D01*
X87723069Y-62730588D01*
X87600588Y-62853069D01*
X87600588Y-62853070D01*
X87600586Y-62853072D01*
X87556859Y-62913256D01*
X87498768Y-62993211D01*
X87420128Y-63147552D01*
X87366597Y-63312302D01*
X87350328Y-63415025D01*
X87339500Y-63483389D01*
X84305861Y-63483389D01*
X84237497Y-63415025D01*
X84063036Y-63288271D01*
X83870901Y-63190372D01*
X83665809Y-63123734D01*
X83452820Y-63090000D01*
X83370000Y-63090000D01*
X83370000Y-63917290D01*
X83349661Y-63905548D01*
X83198333Y-63865000D01*
X83041667Y-63865000D01*
X82890339Y-63905548D01*
X82870000Y-63917290D01*
X82870000Y-63090000D01*
X82787180Y-63090000D01*
X82574190Y-63123734D01*
X82369098Y-63190372D01*
X82176963Y-63288271D01*
X82002503Y-63415025D01*
X82002502Y-63415025D01*
X81850025Y-63567502D01*
X81850025Y-63567503D01*
X81723271Y-63741963D01*
X81625372Y-63934098D01*
X81558733Y-64139190D01*
X81547519Y-64210000D01*
X82577291Y-64210000D01*
X82565548Y-64230339D01*
X82525000Y-64381667D01*
X82525000Y-64538333D01*
X82565548Y-64689661D01*
X82577291Y-64710000D01*
X81547519Y-64710000D01*
X81558733Y-64780809D01*
X81625372Y-64985901D01*
X81723271Y-65178036D01*
X81850025Y-65352496D01*
X81850025Y-65352497D01*
X82002502Y-65504974D01*
X82173720Y-65629372D01*
X82216385Y-65684702D01*
X82222364Y-65754316D01*
X82189758Y-65816110D01*
X82173720Y-65830008D01*
X82002177Y-65954642D01*
X81849643Y-66107176D01*
X81849643Y-66107177D01*
X81849641Y-66107179D01*
X81795186Y-66182129D01*
X81722843Y-66281700D01*
X81624909Y-66473908D01*
X81558245Y-66679077D01*
X81524500Y-66892133D01*
X78550500Y-66892133D01*
X78550500Y-60943389D01*
X87339500Y-60943389D01*
X87339500Y-61116611D01*
X87366598Y-61287701D01*
X87420127Y-61452445D01*
X87498768Y-61606788D01*
X87600586Y-61746928D01*
X87723072Y-61869414D01*
X87863212Y-61971232D01*
X88017555Y-62049873D01*
X88182299Y-62103402D01*
X88353389Y-62130500D01*
X88353390Y-62130500D01*
X89326610Y-62130500D01*
X89326611Y-62130500D01*
X89497701Y-62103402D01*
X89662445Y-62049873D01*
X89816788Y-61971232D01*
X89956928Y-61869414D01*
X90079414Y-61746928D01*
X90181232Y-61606788D01*
X90259873Y-61452445D01*
X90313402Y-61287701D01*
X90340500Y-61116611D01*
X90340500Y-60943389D01*
X110199500Y-60943389D01*
X110199500Y-61116611D01*
X110226598Y-61287701D01*
X110280127Y-61452445D01*
X110358768Y-61606788D01*
X110460586Y-61746928D01*
X110583072Y-61869414D01*
X110723212Y-61971232D01*
X110877555Y-62049873D01*
X111042299Y-62103402D01*
X111213389Y-62130500D01*
X111213390Y-62130500D01*
X112186610Y-62130500D01*
X112186611Y-62130500D01*
X112357701Y-62103402D01*
X112522445Y-62049873D01*
X112676788Y-61971232D01*
X112816928Y-61869414D01*
X112939414Y-61746928D01*
X113041232Y-61606788D01*
X113119873Y-61452445D01*
X113173402Y-61287701D01*
X113200500Y-61116611D01*
X113200500Y-60943389D01*
X113173402Y-60772299D01*
X113119873Y-60607555D01*
X113041232Y-60453212D01*
X112939414Y-60313072D01*
X112816928Y-60190586D01*
X112676788Y-60088768D01*
X112522445Y-60010127D01*
X112357701Y-59956598D01*
X112357699Y-59956597D01*
X112357698Y-59956597D01*
X112226271Y-59935781D01*
X112186611Y-59929500D01*
X111213389Y-59929500D01*
X111173728Y-59935781D01*
X111042302Y-59956597D01*
X110877552Y-60010128D01*
X110723211Y-60088768D01*
X110643256Y-60146859D01*
X110583072Y-60190586D01*
X110583070Y-60190588D01*
X110583069Y-60190588D01*
X110460588Y-60313069D01*
X110460588Y-60313070D01*
X110460586Y-60313072D01*
X110416859Y-60373256D01*
X110358768Y-60453211D01*
X110280128Y-60607552D01*
X110226597Y-60772302D01*
X110199500Y-60943389D01*
X90340500Y-60943389D01*
X90313402Y-60772299D01*
X90259873Y-60607555D01*
X90181232Y-60453212D01*
X90079414Y-60313072D01*
X89956928Y-60190586D01*
X89816788Y-60088768D01*
X89662445Y-60010127D01*
X89497701Y-59956598D01*
X89497699Y-59956597D01*
X89497698Y-59956597D01*
X89366271Y-59935781D01*
X89326611Y-59929500D01*
X88353389Y-59929500D01*
X88313728Y-59935781D01*
X88182302Y-59956597D01*
X88017552Y-60010128D01*
X87863211Y-60088768D01*
X87783256Y-60146859D01*
X87723072Y-60190586D01*
X87723070Y-60190588D01*
X87723069Y-60190588D01*
X87600588Y-60313069D01*
X87600588Y-60313070D01*
X87600586Y-60313072D01*
X87556859Y-60373256D01*
X87498768Y-60453211D01*
X87420128Y-60607552D01*
X87366597Y-60772302D01*
X87339500Y-60943389D01*
X78550500Y-60943389D01*
X78550500Y-58403389D01*
X87339500Y-58403389D01*
X87339500Y-58576611D01*
X87366598Y-58747701D01*
X87420127Y-58912445D01*
X87498768Y-59066788D01*
X87600586Y-59206928D01*
X87723072Y-59329414D01*
X87863212Y-59431232D01*
X88017555Y-59509873D01*
X88182299Y-59563402D01*
X88353389Y-59590500D01*
X88353390Y-59590500D01*
X89326610Y-59590500D01*
X89326611Y-59590500D01*
X89497701Y-59563402D01*
X89662445Y-59509873D01*
X89816788Y-59431232D01*
X89956928Y-59329414D01*
X90079414Y-59206928D01*
X90181232Y-59066788D01*
X90259873Y-58912445D01*
X90313402Y-58747701D01*
X90340500Y-58576611D01*
X90340500Y-58403389D01*
X110199500Y-58403389D01*
X110199500Y-58576611D01*
X110226598Y-58747701D01*
X110280127Y-58912445D01*
X110358768Y-59066788D01*
X110460586Y-59206928D01*
X110583072Y-59329414D01*
X110723212Y-59431232D01*
X110877555Y-59509873D01*
X111042299Y-59563402D01*
X111213389Y-59590500D01*
X111213390Y-59590500D01*
X112186610Y-59590500D01*
X112186611Y-59590500D01*
X112357701Y-59563402D01*
X112522445Y-59509873D01*
X112676788Y-59431232D01*
X112816928Y-59329414D01*
X112939414Y-59206928D01*
X113041232Y-59066788D01*
X113119873Y-58912445D01*
X113173402Y-58747701D01*
X113200500Y-58576611D01*
X113200500Y-58403389D01*
X113173402Y-58232299D01*
X113119873Y-58067555D01*
X113041232Y-57913212D01*
X112939414Y-57773072D01*
X112816928Y-57650586D01*
X112676788Y-57548768D01*
X112522445Y-57470127D01*
X112357701Y-57416598D01*
X112357699Y-57416597D01*
X112357698Y-57416597D01*
X112226271Y-57395781D01*
X112186611Y-57389500D01*
X111213389Y-57389500D01*
X111173728Y-57395781D01*
X111042302Y-57416597D01*
X110877552Y-57470128D01*
X110723211Y-57548768D01*
X110643256Y-57606859D01*
X110583072Y-57650586D01*
X110583070Y-57650588D01*
X110583069Y-57650588D01*
X110460588Y-57773069D01*
X110460588Y-57773070D01*
X110460586Y-57773072D01*
X110416859Y-57833256D01*
X110358768Y-57913211D01*
X110280128Y-58067552D01*
X110226597Y-58232302D01*
X110199500Y-58403389D01*
X90340500Y-58403389D01*
X90313402Y-58232299D01*
X90259873Y-58067555D01*
X90181232Y-57913212D01*
X90079414Y-57773072D01*
X89956928Y-57650586D01*
X89816788Y-57548768D01*
X89662445Y-57470127D01*
X89497701Y-57416598D01*
X89497699Y-57416597D01*
X89497698Y-57416597D01*
X89366271Y-57395781D01*
X89326611Y-57389500D01*
X88353389Y-57389500D01*
X88313728Y-57395781D01*
X88182302Y-57416597D01*
X88017552Y-57470128D01*
X87863211Y-57548768D01*
X87783256Y-57606859D01*
X87723072Y-57650586D01*
X87723070Y-57650588D01*
X87723069Y-57650588D01*
X87600588Y-57773069D01*
X87600588Y-57773070D01*
X87600586Y-57773072D01*
X87556859Y-57833256D01*
X87498768Y-57913211D01*
X87420128Y-58067552D01*
X87366597Y-58232302D01*
X87339500Y-58403389D01*
X78550500Y-58403389D01*
X78550500Y-55863389D01*
X87339500Y-55863389D01*
X87339500Y-56036611D01*
X87366598Y-56207701D01*
X87420127Y-56372445D01*
X87498768Y-56526788D01*
X87600586Y-56666928D01*
X87723072Y-56789414D01*
X87863212Y-56891232D01*
X88017555Y-56969873D01*
X88182299Y-57023402D01*
X88353389Y-57050500D01*
X88353390Y-57050500D01*
X89326610Y-57050500D01*
X89326611Y-57050500D01*
X89497701Y-57023402D01*
X89662445Y-56969873D01*
X89816788Y-56891232D01*
X89956928Y-56789414D01*
X90079414Y-56666928D01*
X90181232Y-56526788D01*
X90259873Y-56372445D01*
X90313402Y-56207701D01*
X90340500Y-56036611D01*
X90340500Y-55863389D01*
X110199500Y-55863389D01*
X110199500Y-56036611D01*
X110226598Y-56207701D01*
X110280127Y-56372445D01*
X110358768Y-56526788D01*
X110460586Y-56666928D01*
X110583072Y-56789414D01*
X110723212Y-56891232D01*
X110877555Y-56969873D01*
X111042299Y-57023402D01*
X111213389Y-57050500D01*
X111213390Y-57050500D01*
X112186610Y-57050500D01*
X112186611Y-57050500D01*
X112357701Y-57023402D01*
X112522445Y-56969873D01*
X112676788Y-56891232D01*
X112816928Y-56789414D01*
X112939414Y-56666928D01*
X113041232Y-56526788D01*
X113119873Y-56372445D01*
X113173402Y-56207701D01*
X113200500Y-56036611D01*
X113200500Y-55863389D01*
X113173402Y-55692299D01*
X113119873Y-55527555D01*
X113041232Y-55373212D01*
X112939414Y-55233072D01*
X112816928Y-55110586D01*
X112676788Y-55008768D01*
X112522445Y-54930127D01*
X112357701Y-54876598D01*
X112357699Y-54876597D01*
X112357698Y-54876597D01*
X112226271Y-54855781D01*
X112186611Y-54849500D01*
X111213389Y-54849500D01*
X111173728Y-54855781D01*
X111042302Y-54876597D01*
X110877552Y-54930128D01*
X110723211Y-55008768D01*
X110643256Y-55066859D01*
X110583072Y-55110586D01*
X110583070Y-55110588D01*
X110583069Y-55110588D01*
X110460588Y-55233069D01*
X110460588Y-55233070D01*
X110460586Y-55233072D01*
X110416859Y-55293256D01*
X110358768Y-55373211D01*
X110280128Y-55527552D01*
X110226597Y-55692302D01*
X110199500Y-55863389D01*
X90340500Y-55863389D01*
X90313402Y-55692299D01*
X90259873Y-55527555D01*
X90181232Y-55373212D01*
X90079414Y-55233072D01*
X89956928Y-55110586D01*
X89816788Y-55008768D01*
X89662445Y-54930127D01*
X89497701Y-54876598D01*
X89497699Y-54876597D01*
X89497698Y-54876597D01*
X89366271Y-54855781D01*
X89326611Y-54849500D01*
X88353389Y-54849500D01*
X88313728Y-54855781D01*
X88182302Y-54876597D01*
X88017552Y-54930128D01*
X87863211Y-55008768D01*
X87783256Y-55066859D01*
X87723072Y-55110586D01*
X87723070Y-55110588D01*
X87723069Y-55110588D01*
X87600588Y-55233069D01*
X87600588Y-55233070D01*
X87600586Y-55233072D01*
X87556859Y-55293256D01*
X87498768Y-55373211D01*
X87420128Y-55527552D01*
X87366597Y-55692302D01*
X87339500Y-55863389D01*
X78550500Y-55863389D01*
X78550500Y-52674500D01*
X78570185Y-52607461D01*
X78622989Y-52561706D01*
X78674500Y-52550500D01*
X87225114Y-52550500D01*
X87292153Y-52570185D01*
G37*
%TD.AperFunction*%
%TD*%
M02*
