%TF.GenerationSoftware,KiCad,Pcbnew,9.0.5*%
%TF.CreationDate,2025-11-05T12:15:29-06:00*%
%TF.ProjectId,MeshTemps,4d657368-5465-46d7-9073-2e6b69636164,rev?*%
%TF.SameCoordinates,Original*%
%TF.FileFunction,Soldermask,Top*%
%TF.FilePolarity,Negative*%
%FSLAX46Y46*%
G04 Gerber Fmt 4.6, Leading zero omitted, Abs format (unit mm)*
G04 Created by KiCad (PCBNEW 9.0.5) date 2025-11-05 12:15:29*
%MOMM*%
%LPD*%
G01*
G04 APERTURE LIST*
G04 Aperture macros list*
%AMRoundRect*
0 Rectangle with rounded corners*
0 $1 Rounding radius*
0 $2 $3 $4 $5 $6 $7 $8 $9 X,Y pos of 4 corners*
0 Add a 4 corners polygon primitive as box body*
4,1,4,$2,$3,$4,$5,$6,$7,$8,$9,$2,$3,0*
0 Add four circle primitives for the rounded corners*
1,1,$1+$1,$2,$3*
1,1,$1+$1,$4,$5*
1,1,$1+$1,$6,$7*
1,1,$1+$1,$8,$9*
0 Add four rect primitives between the rounded corners*
20,1,$1+$1,$2,$3,$4,$5,0*
20,1,$1+$1,$4,$5,$6,$7,0*
20,1,$1+$1,$6,$7,$8,$9,0*
20,1,$1+$1,$8,$9,$2,$3,0*%
G04 Aperture macros list end*
%ADD10R,2.000000X1.200000*%
%ADD11O,2.000000X1.200000*%
%ADD12RoundRect,0.237500X-0.250000X-0.237500X0.250000X-0.237500X0.250000X0.237500X-0.250000X0.237500X0*%
%ADD13RoundRect,0.250000X0.845000X-0.620000X0.845000X0.620000X-0.845000X0.620000X-0.845000X-0.620000X0*%
%ADD14O,2.190000X1.740000*%
G04 APERTURE END LIST*
D10*
%TO.C,U1*%
X88840000Y-53410000D03*
D11*
X88840000Y-55950000D03*
X88840000Y-58490000D03*
X88840000Y-61030000D03*
X88840000Y-63570000D03*
X88840000Y-66110000D03*
X88840000Y-68650000D03*
X88840000Y-71190000D03*
X88840000Y-73730000D03*
X88840000Y-76270000D03*
X88840000Y-78810000D03*
X88840000Y-81350000D03*
X88840000Y-83890000D03*
X88840000Y-86430000D03*
X88840000Y-88970000D03*
X88840000Y-91510000D03*
X88840000Y-94050000D03*
X88840000Y-96590000D03*
X88840000Y-99130000D03*
X88836320Y-101667280D03*
X88836320Y-104207280D03*
X88836320Y-106747280D03*
X111700000Y-106750000D03*
X111700000Y-104210000D03*
X111700000Y-101670000D03*
X111700000Y-99130000D03*
X111700000Y-96590000D03*
X111700000Y-94050000D03*
X111700000Y-91510000D03*
X111700000Y-88970000D03*
X111700000Y-86430000D03*
X111700000Y-83890000D03*
X111700000Y-81350000D03*
X111700000Y-78810000D03*
X111700000Y-76270000D03*
X111700000Y-73730000D03*
X111700000Y-71190000D03*
X111700000Y-68650000D03*
X111700000Y-66110000D03*
X111700000Y-63570000D03*
X111700000Y-61030000D03*
X111700000Y-58490000D03*
X111700000Y-55950000D03*
X111700000Y-53410000D03*
%TD*%
D12*
%TO.C,R12*%
X84537500Y-99350000D03*
X86362500Y-99350000D03*
%TD*%
%TO.C,R11*%
X84637500Y-96550000D03*
X86462500Y-96550000D03*
%TD*%
%TO.C,R1*%
X84687500Y-61000000D03*
X86512500Y-61000000D03*
%TD*%
D13*
%TO.C,J3*%
X83100000Y-92380000D03*
D14*
X83100000Y-89840000D03*
X83100000Y-87300000D03*
X83100000Y-84760000D03*
X83100000Y-82220000D03*
%TD*%
D13*
%TO.C,J2*%
X83120000Y-78440000D03*
D14*
X83120000Y-75900000D03*
X83120000Y-73360000D03*
%TD*%
D13*
%TO.C,J1*%
X83120000Y-69540000D03*
D14*
X83120000Y-67000000D03*
X83120000Y-64460000D03*
%TD*%
M02*
