%TF.GenerationSoftware,KiCad,Pcbnew,9.0.5*%
%TF.CreationDate,2025-11-05T12:15:29-06:00*%
%TF.ProjectId,MeshTemps,4d657368-5465-46d7-9073-2e6b69636164,rev?*%
%TF.SameCoordinates,Original*%
%TF.FileFunction,Legend,Top*%
%TF.FilePolarity,Positive*%
%FSLAX46Y46*%
G04 Gerber Fmt 4.6, Leading zero omitted, Abs format (unit mm)*
G04 Created by KiCad (PCBNEW 9.0.5) date 2025-11-05 12:15:29*
%MOMM*%
%LPD*%
G01*
G04 APERTURE LIST*
G04 Aperture macros list*
%AMRoundRect*
0 Rectangle with rounded corners*
0 $1 Rounding radius*
0 $2 $3 $4 $5 $6 $7 $8 $9 X,Y pos of 4 corners*
0 Add a 4 corners polygon primitive as box body*
4,1,4,$2,$3,$4,$5,$6,$7,$8,$9,$2,$3,0*
0 Add four circle primitives for the rounded corners*
1,1,$1+$1,$2,$3*
1,1,$1+$1,$4,$5*
1,1,$1+$1,$6,$7*
1,1,$1+$1,$8,$9*
0 Add four rect primitives between the rounded corners*
20,1,$1+$1,$2,$3,$4,$5,0*
20,1,$1+$1,$4,$5,$6,$7,0*
20,1,$1+$1,$6,$7,$8,$9,0*
20,1,$1+$1,$8,$9,$2,$3,0*%
G04 Aperture macros list end*
%ADD10C,0.150000*%
%ADD11C,0.120000*%
%ADD12R,2.000000X1.200000*%
%ADD13O,2.000000X1.200000*%
%ADD14RoundRect,0.237500X-0.250000X-0.237500X0.250000X-0.237500X0.250000X0.237500X-0.250000X0.237500X0*%
%ADD15RoundRect,0.250000X0.845000X-0.620000X0.845000X0.620000X-0.845000X0.620000X-0.845000X-0.620000X0*%
%ADD16O,2.190000X1.740000*%
G04 APERTURE END LIST*
D10*
X100778095Y-50764819D02*
X100778095Y-51574342D01*
X100778095Y-51574342D02*
X100825714Y-51669580D01*
X100825714Y-51669580D02*
X100873333Y-51717200D01*
X100873333Y-51717200D02*
X100968571Y-51764819D01*
X100968571Y-51764819D02*
X101159047Y-51764819D01*
X101159047Y-51764819D02*
X101254285Y-51717200D01*
X101254285Y-51717200D02*
X101301904Y-51669580D01*
X101301904Y-51669580D02*
X101349523Y-51574342D01*
X101349523Y-51574342D02*
X101349523Y-50764819D01*
X102349523Y-51764819D02*
X101778095Y-51764819D01*
X102063809Y-51764819D02*
X102063809Y-50764819D01*
X102063809Y-50764819D02*
X101968571Y-50907676D01*
X101968571Y-50907676D02*
X101873333Y-51002914D01*
X101873333Y-51002914D02*
X101778095Y-51050533D01*
X100197329Y-90037946D02*
X100197329Y-89704613D01*
X100721139Y-89561756D02*
X100721139Y-90037946D01*
X100721139Y-90037946D02*
X99721139Y-90037946D01*
X99721139Y-90037946D02*
X99721139Y-89561756D01*
X100673520Y-89180803D02*
X100721139Y-89037946D01*
X100721139Y-89037946D02*
X100721139Y-88799851D01*
X100721139Y-88799851D02*
X100673520Y-88704613D01*
X100673520Y-88704613D02*
X100625900Y-88656994D01*
X100625900Y-88656994D02*
X100530662Y-88609375D01*
X100530662Y-88609375D02*
X100435424Y-88609375D01*
X100435424Y-88609375D02*
X100340186Y-88656994D01*
X100340186Y-88656994D02*
X100292567Y-88704613D01*
X100292567Y-88704613D02*
X100244948Y-88799851D01*
X100244948Y-88799851D02*
X100197329Y-88990327D01*
X100197329Y-88990327D02*
X100149710Y-89085565D01*
X100149710Y-89085565D02*
X100102091Y-89133184D01*
X100102091Y-89133184D02*
X100006853Y-89180803D01*
X100006853Y-89180803D02*
X99911615Y-89180803D01*
X99911615Y-89180803D02*
X99816377Y-89133184D01*
X99816377Y-89133184D02*
X99768758Y-89085565D01*
X99768758Y-89085565D02*
X99721139Y-88990327D01*
X99721139Y-88990327D02*
X99721139Y-88752232D01*
X99721139Y-88752232D02*
X99768758Y-88609375D01*
X100721139Y-88180803D02*
X99721139Y-88180803D01*
X99721139Y-88180803D02*
X99721139Y-87799851D01*
X99721139Y-87799851D02*
X99768758Y-87704613D01*
X99768758Y-87704613D02*
X99816377Y-87656994D01*
X99816377Y-87656994D02*
X99911615Y-87609375D01*
X99911615Y-87609375D02*
X100054472Y-87609375D01*
X100054472Y-87609375D02*
X100149710Y-87656994D01*
X100149710Y-87656994D02*
X100197329Y-87704613D01*
X100197329Y-87704613D02*
X100244948Y-87799851D01*
X100244948Y-87799851D02*
X100244948Y-88180803D01*
X99721139Y-87276041D02*
X99721139Y-86656994D01*
X99721139Y-86656994D02*
X100102091Y-86990327D01*
X100102091Y-86990327D02*
X100102091Y-86847470D01*
X100102091Y-86847470D02*
X100149710Y-86752232D01*
X100149710Y-86752232D02*
X100197329Y-86704613D01*
X100197329Y-86704613D02*
X100292567Y-86656994D01*
X100292567Y-86656994D02*
X100530662Y-86656994D01*
X100530662Y-86656994D02*
X100625900Y-86704613D01*
X100625900Y-86704613D02*
X100673520Y-86752232D01*
X100673520Y-86752232D02*
X100721139Y-86847470D01*
X100721139Y-86847470D02*
X100721139Y-87133184D01*
X100721139Y-87133184D02*
X100673520Y-87228422D01*
X100673520Y-87228422D02*
X100625900Y-87276041D01*
X99816377Y-86276041D02*
X99768758Y-86228422D01*
X99768758Y-86228422D02*
X99721139Y-86133184D01*
X99721139Y-86133184D02*
X99721139Y-85895089D01*
X99721139Y-85895089D02*
X99768758Y-85799851D01*
X99768758Y-85799851D02*
X99816377Y-85752232D01*
X99816377Y-85752232D02*
X99911615Y-85704613D01*
X99911615Y-85704613D02*
X100006853Y-85704613D01*
X100006853Y-85704613D02*
X100149710Y-85752232D01*
X100149710Y-85752232D02*
X100721139Y-86323660D01*
X100721139Y-86323660D02*
X100721139Y-85704613D01*
X100340186Y-85276041D02*
X100340186Y-84514137D01*
X100673520Y-84085565D02*
X100721139Y-83942708D01*
X100721139Y-83942708D02*
X100721139Y-83704613D01*
X100721139Y-83704613D02*
X100673520Y-83609375D01*
X100673520Y-83609375D02*
X100625900Y-83561756D01*
X100625900Y-83561756D02*
X100530662Y-83514137D01*
X100530662Y-83514137D02*
X100435424Y-83514137D01*
X100435424Y-83514137D02*
X100340186Y-83561756D01*
X100340186Y-83561756D02*
X100292567Y-83609375D01*
X100292567Y-83609375D02*
X100244948Y-83704613D01*
X100244948Y-83704613D02*
X100197329Y-83895089D01*
X100197329Y-83895089D02*
X100149710Y-83990327D01*
X100149710Y-83990327D02*
X100102091Y-84037946D01*
X100102091Y-84037946D02*
X100006853Y-84085565D01*
X100006853Y-84085565D02*
X99911615Y-84085565D01*
X99911615Y-84085565D02*
X99816377Y-84037946D01*
X99816377Y-84037946D02*
X99768758Y-83990327D01*
X99768758Y-83990327D02*
X99721139Y-83895089D01*
X99721139Y-83895089D02*
X99721139Y-83656994D01*
X99721139Y-83656994D02*
X99768758Y-83514137D01*
X99721139Y-83180803D02*
X99721139Y-82561756D01*
X99721139Y-82561756D02*
X100102091Y-82895089D01*
X100102091Y-82895089D02*
X100102091Y-82752232D01*
X100102091Y-82752232D02*
X100149710Y-82656994D01*
X100149710Y-82656994D02*
X100197329Y-82609375D01*
X100197329Y-82609375D02*
X100292567Y-82561756D01*
X100292567Y-82561756D02*
X100530662Y-82561756D01*
X100530662Y-82561756D02*
X100625900Y-82609375D01*
X100625900Y-82609375D02*
X100673520Y-82656994D01*
X100673520Y-82656994D02*
X100721139Y-82752232D01*
X100721139Y-82752232D02*
X100721139Y-83037946D01*
X100721139Y-83037946D02*
X100673520Y-83133184D01*
X100673520Y-83133184D02*
X100625900Y-83180803D01*
X100340186Y-82133184D02*
X100340186Y-81371280D01*
X100721139Y-80895089D02*
X99721139Y-80895089D01*
X99721139Y-80895089D02*
X99721139Y-80656994D01*
X99721139Y-80656994D02*
X99768758Y-80514137D01*
X99768758Y-80514137D02*
X99863996Y-80418899D01*
X99863996Y-80418899D02*
X99959234Y-80371280D01*
X99959234Y-80371280D02*
X100149710Y-80323661D01*
X100149710Y-80323661D02*
X100292567Y-80323661D01*
X100292567Y-80323661D02*
X100483043Y-80371280D01*
X100483043Y-80371280D02*
X100578281Y-80418899D01*
X100578281Y-80418899D02*
X100673520Y-80514137D01*
X100673520Y-80514137D02*
X100721139Y-80656994D01*
X100721139Y-80656994D02*
X100721139Y-80895089D01*
X100673520Y-79514137D02*
X100721139Y-79609375D01*
X100721139Y-79609375D02*
X100721139Y-79799851D01*
X100721139Y-79799851D02*
X100673520Y-79895089D01*
X100673520Y-79895089D02*
X100578281Y-79942708D01*
X100578281Y-79942708D02*
X100197329Y-79942708D01*
X100197329Y-79942708D02*
X100102091Y-79895089D01*
X100102091Y-79895089D02*
X100054472Y-79799851D01*
X100054472Y-79799851D02*
X100054472Y-79609375D01*
X100054472Y-79609375D02*
X100102091Y-79514137D01*
X100102091Y-79514137D02*
X100197329Y-79466518D01*
X100197329Y-79466518D02*
X100292567Y-79466518D01*
X100292567Y-79466518D02*
X100387805Y-79942708D01*
X100054472Y-79133184D02*
X100721139Y-78895089D01*
X100721139Y-78895089D02*
X100054472Y-78656994D01*
X100721139Y-78276041D02*
X99721139Y-78276041D01*
X100721139Y-77704613D02*
X100149710Y-78133184D01*
X99721139Y-77704613D02*
X100292567Y-78276041D01*
X100721139Y-77276041D02*
X100054472Y-77276041D01*
X99721139Y-77276041D02*
X99768758Y-77323660D01*
X99768758Y-77323660D02*
X99816377Y-77276041D01*
X99816377Y-77276041D02*
X99768758Y-77228422D01*
X99768758Y-77228422D02*
X99721139Y-77276041D01*
X99721139Y-77276041D02*
X99816377Y-77276041D01*
X100054472Y-76942708D02*
X100054472Y-76561756D01*
X99721139Y-76799851D02*
X100578281Y-76799851D01*
X100578281Y-76799851D02*
X100673520Y-76752232D01*
X100673520Y-76752232D02*
X100721139Y-76656994D01*
X100721139Y-76656994D02*
X100721139Y-76561756D01*
X100625900Y-75656994D02*
X100673520Y-75704613D01*
X100673520Y-75704613D02*
X100721139Y-75847470D01*
X100721139Y-75847470D02*
X100721139Y-75942708D01*
X100721139Y-75942708D02*
X100673520Y-76085565D01*
X100673520Y-76085565D02*
X100578281Y-76180803D01*
X100578281Y-76180803D02*
X100483043Y-76228422D01*
X100483043Y-76228422D02*
X100292567Y-76276041D01*
X100292567Y-76276041D02*
X100149710Y-76276041D01*
X100149710Y-76276041D02*
X99959234Y-76228422D01*
X99959234Y-76228422D02*
X99863996Y-76180803D01*
X99863996Y-76180803D02*
X99768758Y-76085565D01*
X99768758Y-76085565D02*
X99721139Y-75942708D01*
X99721139Y-75942708D02*
X99721139Y-75847470D01*
X99721139Y-75847470D02*
X99768758Y-75704613D01*
X99768758Y-75704613D02*
X99816377Y-75656994D01*
X90351541Y-55404819D02*
X90970588Y-55404819D01*
X90970588Y-55404819D02*
X90637255Y-55785771D01*
X90637255Y-55785771D02*
X90780112Y-55785771D01*
X90780112Y-55785771D02*
X90875350Y-55833390D01*
X90875350Y-55833390D02*
X90922969Y-55881009D01*
X90922969Y-55881009D02*
X90970588Y-55976247D01*
X90970588Y-55976247D02*
X90970588Y-56214342D01*
X90970588Y-56214342D02*
X90922969Y-56309580D01*
X90922969Y-56309580D02*
X90875350Y-56357200D01*
X90875350Y-56357200D02*
X90780112Y-56404819D01*
X90780112Y-56404819D02*
X90494398Y-56404819D01*
X90494398Y-56404819D02*
X90399160Y-56357200D01*
X90399160Y-56357200D02*
X90351541Y-56309580D01*
X91256303Y-55404819D02*
X91589636Y-56404819D01*
X91589636Y-56404819D02*
X91922969Y-55404819D01*
X92161065Y-55404819D02*
X92780112Y-55404819D01*
X92780112Y-55404819D02*
X92446779Y-55785771D01*
X92446779Y-55785771D02*
X92589636Y-55785771D01*
X92589636Y-55785771D02*
X92684874Y-55833390D01*
X92684874Y-55833390D02*
X92732493Y-55881009D01*
X92732493Y-55881009D02*
X92780112Y-55976247D01*
X92780112Y-55976247D02*
X92780112Y-56214342D01*
X92780112Y-56214342D02*
X92732493Y-56309580D01*
X92732493Y-56309580D02*
X92684874Y-56357200D01*
X92684874Y-56357200D02*
X92589636Y-56404819D01*
X92589636Y-56404819D02*
X92303922Y-56404819D01*
X92303922Y-56404819D02*
X92208684Y-56357200D01*
X92208684Y-56357200D02*
X92161065Y-56309580D01*
X105664649Y-78312438D02*
X105569411Y-78264819D01*
X105569411Y-78264819D02*
X105426554Y-78264819D01*
X105426554Y-78264819D02*
X105283697Y-78312438D01*
X105283697Y-78312438D02*
X105188459Y-78407676D01*
X105188459Y-78407676D02*
X105140840Y-78502914D01*
X105140840Y-78502914D02*
X105093221Y-78693390D01*
X105093221Y-78693390D02*
X105093221Y-78836247D01*
X105093221Y-78836247D02*
X105140840Y-79026723D01*
X105140840Y-79026723D02*
X105188459Y-79121961D01*
X105188459Y-79121961D02*
X105283697Y-79217200D01*
X105283697Y-79217200D02*
X105426554Y-79264819D01*
X105426554Y-79264819D02*
X105521792Y-79264819D01*
X105521792Y-79264819D02*
X105664649Y-79217200D01*
X105664649Y-79217200D02*
X105712268Y-79169580D01*
X105712268Y-79169580D02*
X105712268Y-78836247D01*
X105712268Y-78836247D02*
X105521792Y-78836247D01*
X106140840Y-79264819D02*
X106140840Y-78264819D01*
X106140840Y-78264819D02*
X106521792Y-78264819D01*
X106521792Y-78264819D02*
X106617030Y-78312438D01*
X106617030Y-78312438D02*
X106664649Y-78360057D01*
X106664649Y-78360057D02*
X106712268Y-78455295D01*
X106712268Y-78455295D02*
X106712268Y-78598152D01*
X106712268Y-78598152D02*
X106664649Y-78693390D01*
X106664649Y-78693390D02*
X106617030Y-78741009D01*
X106617030Y-78741009D02*
X106521792Y-78788628D01*
X106521792Y-78788628D02*
X106140840Y-78788628D01*
X107140840Y-79264819D02*
X107140840Y-78264819D01*
X107807506Y-78264819D02*
X107997982Y-78264819D01*
X107997982Y-78264819D02*
X108093220Y-78312438D01*
X108093220Y-78312438D02*
X108188458Y-78407676D01*
X108188458Y-78407676D02*
X108236077Y-78598152D01*
X108236077Y-78598152D02*
X108236077Y-78931485D01*
X108236077Y-78931485D02*
X108188458Y-79121961D01*
X108188458Y-79121961D02*
X108093220Y-79217200D01*
X108093220Y-79217200D02*
X107997982Y-79264819D01*
X107997982Y-79264819D02*
X107807506Y-79264819D01*
X107807506Y-79264819D02*
X107712268Y-79217200D01*
X107712268Y-79217200D02*
X107617030Y-79121961D01*
X107617030Y-79121961D02*
X107569411Y-78931485D01*
X107569411Y-78931485D02*
X107569411Y-78598152D01*
X107569411Y-78598152D02*
X107617030Y-78407676D01*
X107617030Y-78407676D02*
X107712268Y-78312438D01*
X107712268Y-78312438D02*
X107807506Y-78264819D01*
X108569411Y-78264819D02*
X109188458Y-78264819D01*
X109188458Y-78264819D02*
X108855125Y-78645771D01*
X108855125Y-78645771D02*
X108997982Y-78645771D01*
X108997982Y-78645771D02*
X109093220Y-78693390D01*
X109093220Y-78693390D02*
X109140839Y-78741009D01*
X109140839Y-78741009D02*
X109188458Y-78836247D01*
X109188458Y-78836247D02*
X109188458Y-79074342D01*
X109188458Y-79074342D02*
X109140839Y-79169580D01*
X109140839Y-79169580D02*
X109093220Y-79217200D01*
X109093220Y-79217200D02*
X108997982Y-79264819D01*
X108997982Y-79264819D02*
X108712268Y-79264819D01*
X108712268Y-79264819D02*
X108617030Y-79217200D01*
X108617030Y-79217200D02*
X108569411Y-79169580D01*
X109521792Y-78264819D02*
X110188458Y-78264819D01*
X110188458Y-78264819D02*
X109759887Y-79264819D01*
X91220908Y-106249718D02*
X91125670Y-106202099D01*
X91125670Y-106202099D02*
X90982813Y-106202099D01*
X90982813Y-106202099D02*
X90839956Y-106249718D01*
X90839956Y-106249718D02*
X90744718Y-106344956D01*
X90744718Y-106344956D02*
X90697099Y-106440194D01*
X90697099Y-106440194D02*
X90649480Y-106630670D01*
X90649480Y-106630670D02*
X90649480Y-106773527D01*
X90649480Y-106773527D02*
X90697099Y-106964003D01*
X90697099Y-106964003D02*
X90744718Y-107059241D01*
X90744718Y-107059241D02*
X90839956Y-107154480D01*
X90839956Y-107154480D02*
X90982813Y-107202099D01*
X90982813Y-107202099D02*
X91078051Y-107202099D01*
X91078051Y-107202099D02*
X91220908Y-107154480D01*
X91220908Y-107154480D02*
X91268527Y-107106860D01*
X91268527Y-107106860D02*
X91268527Y-106773527D01*
X91268527Y-106773527D02*
X91078051Y-106773527D01*
X91697099Y-107202099D02*
X91697099Y-106202099D01*
X91697099Y-106202099D02*
X92268527Y-107202099D01*
X92268527Y-107202099D02*
X92268527Y-106202099D01*
X92744718Y-107202099D02*
X92744718Y-106202099D01*
X92744718Y-106202099D02*
X92982813Y-106202099D01*
X92982813Y-106202099D02*
X93125670Y-106249718D01*
X93125670Y-106249718D02*
X93220908Y-106344956D01*
X93220908Y-106344956D02*
X93268527Y-106440194D01*
X93268527Y-106440194D02*
X93316146Y-106630670D01*
X93316146Y-106630670D02*
X93316146Y-106773527D01*
X93316146Y-106773527D02*
X93268527Y-106964003D01*
X93268527Y-106964003D02*
X93220908Y-107059241D01*
X93220908Y-107059241D02*
X93125670Y-107154480D01*
X93125670Y-107154480D02*
X92982813Y-107202099D01*
X92982813Y-107202099D02*
X92744718Y-107202099D01*
X105664649Y-96092438D02*
X105569411Y-96044819D01*
X105569411Y-96044819D02*
X105426554Y-96044819D01*
X105426554Y-96044819D02*
X105283697Y-96092438D01*
X105283697Y-96092438D02*
X105188459Y-96187676D01*
X105188459Y-96187676D02*
X105140840Y-96282914D01*
X105140840Y-96282914D02*
X105093221Y-96473390D01*
X105093221Y-96473390D02*
X105093221Y-96616247D01*
X105093221Y-96616247D02*
X105140840Y-96806723D01*
X105140840Y-96806723D02*
X105188459Y-96901961D01*
X105188459Y-96901961D02*
X105283697Y-96997200D01*
X105283697Y-96997200D02*
X105426554Y-97044819D01*
X105426554Y-97044819D02*
X105521792Y-97044819D01*
X105521792Y-97044819D02*
X105664649Y-96997200D01*
X105664649Y-96997200D02*
X105712268Y-96949580D01*
X105712268Y-96949580D02*
X105712268Y-96616247D01*
X105712268Y-96616247D02*
X105521792Y-96616247D01*
X106140840Y-97044819D02*
X106140840Y-96044819D01*
X106140840Y-96044819D02*
X106521792Y-96044819D01*
X106521792Y-96044819D02*
X106617030Y-96092438D01*
X106617030Y-96092438D02*
X106664649Y-96140057D01*
X106664649Y-96140057D02*
X106712268Y-96235295D01*
X106712268Y-96235295D02*
X106712268Y-96378152D01*
X106712268Y-96378152D02*
X106664649Y-96473390D01*
X106664649Y-96473390D02*
X106617030Y-96521009D01*
X106617030Y-96521009D02*
X106521792Y-96568628D01*
X106521792Y-96568628D02*
X106140840Y-96568628D01*
X107140840Y-97044819D02*
X107140840Y-96044819D01*
X107807506Y-96044819D02*
X107997982Y-96044819D01*
X107997982Y-96044819D02*
X108093220Y-96092438D01*
X108093220Y-96092438D02*
X108188458Y-96187676D01*
X108188458Y-96187676D02*
X108236077Y-96378152D01*
X108236077Y-96378152D02*
X108236077Y-96711485D01*
X108236077Y-96711485D02*
X108188458Y-96901961D01*
X108188458Y-96901961D02*
X108093220Y-96997200D01*
X108093220Y-96997200D02*
X107997982Y-97044819D01*
X107997982Y-97044819D02*
X107807506Y-97044819D01*
X107807506Y-97044819D02*
X107712268Y-96997200D01*
X107712268Y-96997200D02*
X107617030Y-96901961D01*
X107617030Y-96901961D02*
X107569411Y-96711485D01*
X107569411Y-96711485D02*
X107569411Y-96378152D01*
X107569411Y-96378152D02*
X107617030Y-96187676D01*
X107617030Y-96187676D02*
X107712268Y-96092438D01*
X107712268Y-96092438D02*
X107807506Y-96044819D01*
X108617030Y-96140057D02*
X108664649Y-96092438D01*
X108664649Y-96092438D02*
X108759887Y-96044819D01*
X108759887Y-96044819D02*
X108997982Y-96044819D01*
X108997982Y-96044819D02*
X109093220Y-96092438D01*
X109093220Y-96092438D02*
X109140839Y-96140057D01*
X109140839Y-96140057D02*
X109188458Y-96235295D01*
X109188458Y-96235295D02*
X109188458Y-96330533D01*
X109188458Y-96330533D02*
X109140839Y-96473390D01*
X109140839Y-96473390D02*
X108569411Y-97044819D01*
X108569411Y-97044819D02*
X109188458Y-97044819D01*
X110140839Y-97044819D02*
X109569411Y-97044819D01*
X109855125Y-97044819D02*
X109855125Y-96044819D01*
X109855125Y-96044819D02*
X109759887Y-96187676D01*
X109759887Y-96187676D02*
X109664649Y-96282914D01*
X109664649Y-96282914D02*
X109569411Y-96330533D01*
X90970588Y-60532438D02*
X90875350Y-60484819D01*
X90875350Y-60484819D02*
X90732493Y-60484819D01*
X90732493Y-60484819D02*
X90589636Y-60532438D01*
X90589636Y-60532438D02*
X90494398Y-60627676D01*
X90494398Y-60627676D02*
X90446779Y-60722914D01*
X90446779Y-60722914D02*
X90399160Y-60913390D01*
X90399160Y-60913390D02*
X90399160Y-61056247D01*
X90399160Y-61056247D02*
X90446779Y-61246723D01*
X90446779Y-61246723D02*
X90494398Y-61341961D01*
X90494398Y-61341961D02*
X90589636Y-61437200D01*
X90589636Y-61437200D02*
X90732493Y-61484819D01*
X90732493Y-61484819D02*
X90827731Y-61484819D01*
X90827731Y-61484819D02*
X90970588Y-61437200D01*
X90970588Y-61437200D02*
X91018207Y-61389580D01*
X91018207Y-61389580D02*
X91018207Y-61056247D01*
X91018207Y-61056247D02*
X90827731Y-61056247D01*
X91446779Y-61484819D02*
X91446779Y-60484819D01*
X91446779Y-60484819D02*
X91827731Y-60484819D01*
X91827731Y-60484819D02*
X91922969Y-60532438D01*
X91922969Y-60532438D02*
X91970588Y-60580057D01*
X91970588Y-60580057D02*
X92018207Y-60675295D01*
X92018207Y-60675295D02*
X92018207Y-60818152D01*
X92018207Y-60818152D02*
X91970588Y-60913390D01*
X91970588Y-60913390D02*
X91922969Y-60961009D01*
X91922969Y-60961009D02*
X91827731Y-61008628D01*
X91827731Y-61008628D02*
X91446779Y-61008628D01*
X92446779Y-61484819D02*
X92446779Y-60484819D01*
X93113445Y-60484819D02*
X93303921Y-60484819D01*
X93303921Y-60484819D02*
X93399159Y-60532438D01*
X93399159Y-60532438D02*
X93494397Y-60627676D01*
X93494397Y-60627676D02*
X93542016Y-60818152D01*
X93542016Y-60818152D02*
X93542016Y-61151485D01*
X93542016Y-61151485D02*
X93494397Y-61341961D01*
X93494397Y-61341961D02*
X93399159Y-61437200D01*
X93399159Y-61437200D02*
X93303921Y-61484819D01*
X93303921Y-61484819D02*
X93113445Y-61484819D01*
X93113445Y-61484819D02*
X93018207Y-61437200D01*
X93018207Y-61437200D02*
X92922969Y-61341961D01*
X92922969Y-61341961D02*
X92875350Y-61151485D01*
X92875350Y-61151485D02*
X92875350Y-60818152D01*
X92875350Y-60818152D02*
X92922969Y-60627676D01*
X92922969Y-60627676D02*
X93018207Y-60532438D01*
X93018207Y-60532438D02*
X93113445Y-60484819D01*
X94399159Y-60818152D02*
X94399159Y-61484819D01*
X94161064Y-60437200D02*
X93922969Y-61151485D01*
X93922969Y-61151485D02*
X94542016Y-61151485D01*
X90970588Y-98632438D02*
X90875350Y-98584819D01*
X90875350Y-98584819D02*
X90732493Y-98584819D01*
X90732493Y-98584819D02*
X90589636Y-98632438D01*
X90589636Y-98632438D02*
X90494398Y-98727676D01*
X90494398Y-98727676D02*
X90446779Y-98822914D01*
X90446779Y-98822914D02*
X90399160Y-99013390D01*
X90399160Y-99013390D02*
X90399160Y-99156247D01*
X90399160Y-99156247D02*
X90446779Y-99346723D01*
X90446779Y-99346723D02*
X90494398Y-99441961D01*
X90494398Y-99441961D02*
X90589636Y-99537200D01*
X90589636Y-99537200D02*
X90732493Y-99584819D01*
X90732493Y-99584819D02*
X90827731Y-99584819D01*
X90827731Y-99584819D02*
X90970588Y-99537200D01*
X90970588Y-99537200D02*
X91018207Y-99489580D01*
X91018207Y-99489580D02*
X91018207Y-99156247D01*
X91018207Y-99156247D02*
X90827731Y-99156247D01*
X91446779Y-99584819D02*
X91446779Y-98584819D01*
X91446779Y-98584819D02*
X91827731Y-98584819D01*
X91827731Y-98584819D02*
X91922969Y-98632438D01*
X91922969Y-98632438D02*
X91970588Y-98680057D01*
X91970588Y-98680057D02*
X92018207Y-98775295D01*
X92018207Y-98775295D02*
X92018207Y-98918152D01*
X92018207Y-98918152D02*
X91970588Y-99013390D01*
X91970588Y-99013390D02*
X91922969Y-99061009D01*
X91922969Y-99061009D02*
X91827731Y-99108628D01*
X91827731Y-99108628D02*
X91446779Y-99108628D01*
X92446779Y-99584819D02*
X92446779Y-98584819D01*
X93113445Y-98584819D02*
X93303921Y-98584819D01*
X93303921Y-98584819D02*
X93399159Y-98632438D01*
X93399159Y-98632438D02*
X93494397Y-98727676D01*
X93494397Y-98727676D02*
X93542016Y-98918152D01*
X93542016Y-98918152D02*
X93542016Y-99251485D01*
X93542016Y-99251485D02*
X93494397Y-99441961D01*
X93494397Y-99441961D02*
X93399159Y-99537200D01*
X93399159Y-99537200D02*
X93303921Y-99584819D01*
X93303921Y-99584819D02*
X93113445Y-99584819D01*
X93113445Y-99584819D02*
X93018207Y-99537200D01*
X93018207Y-99537200D02*
X92922969Y-99441961D01*
X92922969Y-99441961D02*
X92875350Y-99251485D01*
X92875350Y-99251485D02*
X92875350Y-98918152D01*
X92875350Y-98918152D02*
X92922969Y-98727676D01*
X92922969Y-98727676D02*
X93018207Y-98632438D01*
X93018207Y-98632438D02*
X93113445Y-98584819D01*
X94494397Y-99584819D02*
X93922969Y-99584819D01*
X94208683Y-99584819D02*
X94208683Y-98584819D01*
X94208683Y-98584819D02*
X94113445Y-98727676D01*
X94113445Y-98727676D02*
X94018207Y-98822914D01*
X94018207Y-98822914D02*
X93922969Y-98870533D01*
X94827731Y-98584819D02*
X95446778Y-98584819D01*
X95446778Y-98584819D02*
X95113445Y-98965771D01*
X95113445Y-98965771D02*
X95256302Y-98965771D01*
X95256302Y-98965771D02*
X95351540Y-99013390D01*
X95351540Y-99013390D02*
X95399159Y-99061009D01*
X95399159Y-99061009D02*
X95446778Y-99156247D01*
X95446778Y-99156247D02*
X95446778Y-99394342D01*
X95446778Y-99394342D02*
X95399159Y-99489580D01*
X95399159Y-99489580D02*
X95351540Y-99537200D01*
X95351540Y-99537200D02*
X95256302Y-99584819D01*
X95256302Y-99584819D02*
X94970588Y-99584819D01*
X94970588Y-99584819D02*
X94875350Y-99537200D01*
X94875350Y-99537200D02*
X94827731Y-99489580D01*
X90970588Y-63072438D02*
X90875350Y-63024819D01*
X90875350Y-63024819D02*
X90732493Y-63024819D01*
X90732493Y-63024819D02*
X90589636Y-63072438D01*
X90589636Y-63072438D02*
X90494398Y-63167676D01*
X90494398Y-63167676D02*
X90446779Y-63262914D01*
X90446779Y-63262914D02*
X90399160Y-63453390D01*
X90399160Y-63453390D02*
X90399160Y-63596247D01*
X90399160Y-63596247D02*
X90446779Y-63786723D01*
X90446779Y-63786723D02*
X90494398Y-63881961D01*
X90494398Y-63881961D02*
X90589636Y-63977200D01*
X90589636Y-63977200D02*
X90732493Y-64024819D01*
X90732493Y-64024819D02*
X90827731Y-64024819D01*
X90827731Y-64024819D02*
X90970588Y-63977200D01*
X90970588Y-63977200D02*
X91018207Y-63929580D01*
X91018207Y-63929580D02*
X91018207Y-63596247D01*
X91018207Y-63596247D02*
X90827731Y-63596247D01*
X91446779Y-64024819D02*
X91446779Y-63024819D01*
X91446779Y-63024819D02*
X91827731Y-63024819D01*
X91827731Y-63024819D02*
X91922969Y-63072438D01*
X91922969Y-63072438D02*
X91970588Y-63120057D01*
X91970588Y-63120057D02*
X92018207Y-63215295D01*
X92018207Y-63215295D02*
X92018207Y-63358152D01*
X92018207Y-63358152D02*
X91970588Y-63453390D01*
X91970588Y-63453390D02*
X91922969Y-63501009D01*
X91922969Y-63501009D02*
X91827731Y-63548628D01*
X91827731Y-63548628D02*
X91446779Y-63548628D01*
X92446779Y-64024819D02*
X92446779Y-63024819D01*
X93113445Y-63024819D02*
X93303921Y-63024819D01*
X93303921Y-63024819D02*
X93399159Y-63072438D01*
X93399159Y-63072438D02*
X93494397Y-63167676D01*
X93494397Y-63167676D02*
X93542016Y-63358152D01*
X93542016Y-63358152D02*
X93542016Y-63691485D01*
X93542016Y-63691485D02*
X93494397Y-63881961D01*
X93494397Y-63881961D02*
X93399159Y-63977200D01*
X93399159Y-63977200D02*
X93303921Y-64024819D01*
X93303921Y-64024819D02*
X93113445Y-64024819D01*
X93113445Y-64024819D02*
X93018207Y-63977200D01*
X93018207Y-63977200D02*
X92922969Y-63881961D01*
X92922969Y-63881961D02*
X92875350Y-63691485D01*
X92875350Y-63691485D02*
X92875350Y-63358152D01*
X92875350Y-63358152D02*
X92922969Y-63167676D01*
X92922969Y-63167676D02*
X93018207Y-63072438D01*
X93018207Y-63072438D02*
X93113445Y-63024819D01*
X94446778Y-63024819D02*
X93970588Y-63024819D01*
X93970588Y-63024819D02*
X93922969Y-63501009D01*
X93922969Y-63501009D02*
X93970588Y-63453390D01*
X93970588Y-63453390D02*
X94065826Y-63405771D01*
X94065826Y-63405771D02*
X94303921Y-63405771D01*
X94303921Y-63405771D02*
X94399159Y-63453390D01*
X94399159Y-63453390D02*
X94446778Y-63501009D01*
X94446778Y-63501009D02*
X94494397Y-63596247D01*
X94494397Y-63596247D02*
X94494397Y-63834342D01*
X94494397Y-63834342D02*
X94446778Y-63929580D01*
X94446778Y-63929580D02*
X94399159Y-63977200D01*
X94399159Y-63977200D02*
X94303921Y-64024819D01*
X94303921Y-64024819D02*
X94065826Y-64024819D01*
X94065826Y-64024819D02*
X93970588Y-63977200D01*
X93970588Y-63977200D02*
X93922969Y-63929580D01*
X105664649Y-101172438D02*
X105569411Y-101124819D01*
X105569411Y-101124819D02*
X105426554Y-101124819D01*
X105426554Y-101124819D02*
X105283697Y-101172438D01*
X105283697Y-101172438D02*
X105188459Y-101267676D01*
X105188459Y-101267676D02*
X105140840Y-101362914D01*
X105140840Y-101362914D02*
X105093221Y-101553390D01*
X105093221Y-101553390D02*
X105093221Y-101696247D01*
X105093221Y-101696247D02*
X105140840Y-101886723D01*
X105140840Y-101886723D02*
X105188459Y-101981961D01*
X105188459Y-101981961D02*
X105283697Y-102077200D01*
X105283697Y-102077200D02*
X105426554Y-102124819D01*
X105426554Y-102124819D02*
X105521792Y-102124819D01*
X105521792Y-102124819D02*
X105664649Y-102077200D01*
X105664649Y-102077200D02*
X105712268Y-102029580D01*
X105712268Y-102029580D02*
X105712268Y-101696247D01*
X105712268Y-101696247D02*
X105521792Y-101696247D01*
X106140840Y-102124819D02*
X106140840Y-101124819D01*
X106140840Y-101124819D02*
X106521792Y-101124819D01*
X106521792Y-101124819D02*
X106617030Y-101172438D01*
X106617030Y-101172438D02*
X106664649Y-101220057D01*
X106664649Y-101220057D02*
X106712268Y-101315295D01*
X106712268Y-101315295D02*
X106712268Y-101458152D01*
X106712268Y-101458152D02*
X106664649Y-101553390D01*
X106664649Y-101553390D02*
X106617030Y-101601009D01*
X106617030Y-101601009D02*
X106521792Y-101648628D01*
X106521792Y-101648628D02*
X106140840Y-101648628D01*
X107140840Y-102124819D02*
X107140840Y-101124819D01*
X107807506Y-101124819D02*
X107997982Y-101124819D01*
X107997982Y-101124819D02*
X108093220Y-101172438D01*
X108093220Y-101172438D02*
X108188458Y-101267676D01*
X108188458Y-101267676D02*
X108236077Y-101458152D01*
X108236077Y-101458152D02*
X108236077Y-101791485D01*
X108236077Y-101791485D02*
X108188458Y-101981961D01*
X108188458Y-101981961D02*
X108093220Y-102077200D01*
X108093220Y-102077200D02*
X107997982Y-102124819D01*
X107997982Y-102124819D02*
X107807506Y-102124819D01*
X107807506Y-102124819D02*
X107712268Y-102077200D01*
X107712268Y-102077200D02*
X107617030Y-101981961D01*
X107617030Y-101981961D02*
X107569411Y-101791485D01*
X107569411Y-101791485D02*
X107569411Y-101458152D01*
X107569411Y-101458152D02*
X107617030Y-101267676D01*
X107617030Y-101267676D02*
X107712268Y-101172438D01*
X107712268Y-101172438D02*
X107807506Y-101124819D01*
X109188458Y-102124819D02*
X108617030Y-102124819D01*
X108902744Y-102124819D02*
X108902744Y-101124819D01*
X108902744Y-101124819D02*
X108807506Y-101267676D01*
X108807506Y-101267676D02*
X108712268Y-101362914D01*
X108712268Y-101362914D02*
X108617030Y-101410533D01*
X109664649Y-102124819D02*
X109855125Y-102124819D01*
X109855125Y-102124819D02*
X109950363Y-102077200D01*
X109950363Y-102077200D02*
X109997982Y-102029580D01*
X109997982Y-102029580D02*
X110093220Y-101886723D01*
X110093220Y-101886723D02*
X110140839Y-101696247D01*
X110140839Y-101696247D02*
X110140839Y-101315295D01*
X110140839Y-101315295D02*
X110093220Y-101220057D01*
X110093220Y-101220057D02*
X110045601Y-101172438D01*
X110045601Y-101172438D02*
X109950363Y-101124819D01*
X109950363Y-101124819D02*
X109759887Y-101124819D01*
X109759887Y-101124819D02*
X109664649Y-101172438D01*
X109664649Y-101172438D02*
X109617030Y-101220057D01*
X109617030Y-101220057D02*
X109569411Y-101315295D01*
X109569411Y-101315295D02*
X109569411Y-101553390D01*
X109569411Y-101553390D02*
X109617030Y-101648628D01*
X109617030Y-101648628D02*
X109664649Y-101696247D01*
X109664649Y-101696247D02*
X109759887Y-101743866D01*
X109759887Y-101743866D02*
X109950363Y-101743866D01*
X109950363Y-101743866D02*
X110045601Y-101696247D01*
X110045601Y-101696247D02*
X110093220Y-101648628D01*
X110093220Y-101648628D02*
X110140839Y-101553390D01*
X90970588Y-88472438D02*
X90875350Y-88424819D01*
X90875350Y-88424819D02*
X90732493Y-88424819D01*
X90732493Y-88424819D02*
X90589636Y-88472438D01*
X90589636Y-88472438D02*
X90494398Y-88567676D01*
X90494398Y-88567676D02*
X90446779Y-88662914D01*
X90446779Y-88662914D02*
X90399160Y-88853390D01*
X90399160Y-88853390D02*
X90399160Y-88996247D01*
X90399160Y-88996247D02*
X90446779Y-89186723D01*
X90446779Y-89186723D02*
X90494398Y-89281961D01*
X90494398Y-89281961D02*
X90589636Y-89377200D01*
X90589636Y-89377200D02*
X90732493Y-89424819D01*
X90732493Y-89424819D02*
X90827731Y-89424819D01*
X90827731Y-89424819D02*
X90970588Y-89377200D01*
X90970588Y-89377200D02*
X91018207Y-89329580D01*
X91018207Y-89329580D02*
X91018207Y-88996247D01*
X91018207Y-88996247D02*
X90827731Y-88996247D01*
X91446779Y-89424819D02*
X91446779Y-88424819D01*
X91446779Y-88424819D02*
X91827731Y-88424819D01*
X91827731Y-88424819D02*
X91922969Y-88472438D01*
X91922969Y-88472438D02*
X91970588Y-88520057D01*
X91970588Y-88520057D02*
X92018207Y-88615295D01*
X92018207Y-88615295D02*
X92018207Y-88758152D01*
X92018207Y-88758152D02*
X91970588Y-88853390D01*
X91970588Y-88853390D02*
X91922969Y-88901009D01*
X91922969Y-88901009D02*
X91827731Y-88948628D01*
X91827731Y-88948628D02*
X91446779Y-88948628D01*
X92446779Y-89424819D02*
X92446779Y-88424819D01*
X93113445Y-88424819D02*
X93303921Y-88424819D01*
X93303921Y-88424819D02*
X93399159Y-88472438D01*
X93399159Y-88472438D02*
X93494397Y-88567676D01*
X93494397Y-88567676D02*
X93542016Y-88758152D01*
X93542016Y-88758152D02*
X93542016Y-89091485D01*
X93542016Y-89091485D02*
X93494397Y-89281961D01*
X93494397Y-89281961D02*
X93399159Y-89377200D01*
X93399159Y-89377200D02*
X93303921Y-89424819D01*
X93303921Y-89424819D02*
X93113445Y-89424819D01*
X93113445Y-89424819D02*
X93018207Y-89377200D01*
X93018207Y-89377200D02*
X92922969Y-89281961D01*
X92922969Y-89281961D02*
X92875350Y-89091485D01*
X92875350Y-89091485D02*
X92875350Y-88758152D01*
X92875350Y-88758152D02*
X92922969Y-88567676D01*
X92922969Y-88567676D02*
X93018207Y-88472438D01*
X93018207Y-88472438D02*
X93113445Y-88424819D01*
X94018207Y-89424819D02*
X94208683Y-89424819D01*
X94208683Y-89424819D02*
X94303921Y-89377200D01*
X94303921Y-89377200D02*
X94351540Y-89329580D01*
X94351540Y-89329580D02*
X94446778Y-89186723D01*
X94446778Y-89186723D02*
X94494397Y-88996247D01*
X94494397Y-88996247D02*
X94494397Y-88615295D01*
X94494397Y-88615295D02*
X94446778Y-88520057D01*
X94446778Y-88520057D02*
X94399159Y-88472438D01*
X94399159Y-88472438D02*
X94303921Y-88424819D01*
X94303921Y-88424819D02*
X94113445Y-88424819D01*
X94113445Y-88424819D02*
X94018207Y-88472438D01*
X94018207Y-88472438D02*
X93970588Y-88520057D01*
X93970588Y-88520057D02*
X93922969Y-88615295D01*
X93922969Y-88615295D02*
X93922969Y-88853390D01*
X93922969Y-88853390D02*
X93970588Y-88948628D01*
X93970588Y-88948628D02*
X94018207Y-88996247D01*
X94018207Y-88996247D02*
X94113445Y-89043866D01*
X94113445Y-89043866D02*
X94303921Y-89043866D01*
X94303921Y-89043866D02*
X94399159Y-88996247D01*
X94399159Y-88996247D02*
X94446778Y-88948628D01*
X94446778Y-88948628D02*
X94494397Y-88853390D01*
X105664649Y-93552438D02*
X105569411Y-93504819D01*
X105569411Y-93504819D02*
X105426554Y-93504819D01*
X105426554Y-93504819D02*
X105283697Y-93552438D01*
X105283697Y-93552438D02*
X105188459Y-93647676D01*
X105188459Y-93647676D02*
X105140840Y-93742914D01*
X105140840Y-93742914D02*
X105093221Y-93933390D01*
X105093221Y-93933390D02*
X105093221Y-94076247D01*
X105093221Y-94076247D02*
X105140840Y-94266723D01*
X105140840Y-94266723D02*
X105188459Y-94361961D01*
X105188459Y-94361961D02*
X105283697Y-94457200D01*
X105283697Y-94457200D02*
X105426554Y-94504819D01*
X105426554Y-94504819D02*
X105521792Y-94504819D01*
X105521792Y-94504819D02*
X105664649Y-94457200D01*
X105664649Y-94457200D02*
X105712268Y-94409580D01*
X105712268Y-94409580D02*
X105712268Y-94076247D01*
X105712268Y-94076247D02*
X105521792Y-94076247D01*
X106140840Y-94504819D02*
X106140840Y-93504819D01*
X106140840Y-93504819D02*
X106521792Y-93504819D01*
X106521792Y-93504819D02*
X106617030Y-93552438D01*
X106617030Y-93552438D02*
X106664649Y-93600057D01*
X106664649Y-93600057D02*
X106712268Y-93695295D01*
X106712268Y-93695295D02*
X106712268Y-93838152D01*
X106712268Y-93838152D02*
X106664649Y-93933390D01*
X106664649Y-93933390D02*
X106617030Y-93981009D01*
X106617030Y-93981009D02*
X106521792Y-94028628D01*
X106521792Y-94028628D02*
X106140840Y-94028628D01*
X107140840Y-94504819D02*
X107140840Y-93504819D01*
X107807506Y-93504819D02*
X107997982Y-93504819D01*
X107997982Y-93504819D02*
X108093220Y-93552438D01*
X108093220Y-93552438D02*
X108188458Y-93647676D01*
X108188458Y-93647676D02*
X108236077Y-93838152D01*
X108236077Y-93838152D02*
X108236077Y-94171485D01*
X108236077Y-94171485D02*
X108188458Y-94361961D01*
X108188458Y-94361961D02*
X108093220Y-94457200D01*
X108093220Y-94457200D02*
X107997982Y-94504819D01*
X107997982Y-94504819D02*
X107807506Y-94504819D01*
X107807506Y-94504819D02*
X107712268Y-94457200D01*
X107712268Y-94457200D02*
X107617030Y-94361961D01*
X107617030Y-94361961D02*
X107569411Y-94171485D01*
X107569411Y-94171485D02*
X107569411Y-93838152D01*
X107569411Y-93838152D02*
X107617030Y-93647676D01*
X107617030Y-93647676D02*
X107712268Y-93552438D01*
X107712268Y-93552438D02*
X107807506Y-93504819D01*
X109093220Y-93838152D02*
X109093220Y-94504819D01*
X108855125Y-93457200D02*
X108617030Y-94171485D01*
X108617030Y-94171485D02*
X109236077Y-94171485D01*
X109521792Y-93504819D02*
X110188458Y-93504819D01*
X110188458Y-93504819D02*
X109759887Y-94504819D01*
X90970588Y-101172438D02*
X90875350Y-101124819D01*
X90875350Y-101124819D02*
X90732493Y-101124819D01*
X90732493Y-101124819D02*
X90589636Y-101172438D01*
X90589636Y-101172438D02*
X90494398Y-101267676D01*
X90494398Y-101267676D02*
X90446779Y-101362914D01*
X90446779Y-101362914D02*
X90399160Y-101553390D01*
X90399160Y-101553390D02*
X90399160Y-101696247D01*
X90399160Y-101696247D02*
X90446779Y-101886723D01*
X90446779Y-101886723D02*
X90494398Y-101981961D01*
X90494398Y-101981961D02*
X90589636Y-102077200D01*
X90589636Y-102077200D02*
X90732493Y-102124819D01*
X90732493Y-102124819D02*
X90827731Y-102124819D01*
X90827731Y-102124819D02*
X90970588Y-102077200D01*
X90970588Y-102077200D02*
X91018207Y-102029580D01*
X91018207Y-102029580D02*
X91018207Y-101696247D01*
X91018207Y-101696247D02*
X90827731Y-101696247D01*
X91446779Y-102124819D02*
X91446779Y-101124819D01*
X91446779Y-101124819D02*
X91827731Y-101124819D01*
X91827731Y-101124819D02*
X91922969Y-101172438D01*
X91922969Y-101172438D02*
X91970588Y-101220057D01*
X91970588Y-101220057D02*
X92018207Y-101315295D01*
X92018207Y-101315295D02*
X92018207Y-101458152D01*
X92018207Y-101458152D02*
X91970588Y-101553390D01*
X91970588Y-101553390D02*
X91922969Y-101601009D01*
X91922969Y-101601009D02*
X91827731Y-101648628D01*
X91827731Y-101648628D02*
X91446779Y-101648628D01*
X92446779Y-102124819D02*
X92446779Y-101124819D01*
X93113445Y-101124819D02*
X93303921Y-101124819D01*
X93303921Y-101124819D02*
X93399159Y-101172438D01*
X93399159Y-101172438D02*
X93494397Y-101267676D01*
X93494397Y-101267676D02*
X93542016Y-101458152D01*
X93542016Y-101458152D02*
X93542016Y-101791485D01*
X93542016Y-101791485D02*
X93494397Y-101981961D01*
X93494397Y-101981961D02*
X93399159Y-102077200D01*
X93399159Y-102077200D02*
X93303921Y-102124819D01*
X93303921Y-102124819D02*
X93113445Y-102124819D01*
X93113445Y-102124819D02*
X93018207Y-102077200D01*
X93018207Y-102077200D02*
X92922969Y-101981961D01*
X92922969Y-101981961D02*
X92875350Y-101791485D01*
X92875350Y-101791485D02*
X92875350Y-101458152D01*
X92875350Y-101458152D02*
X92922969Y-101267676D01*
X92922969Y-101267676D02*
X93018207Y-101172438D01*
X93018207Y-101172438D02*
X93113445Y-101124819D01*
X94494397Y-102124819D02*
X93922969Y-102124819D01*
X94208683Y-102124819D02*
X94208683Y-101124819D01*
X94208683Y-101124819D02*
X94113445Y-101267676D01*
X94113445Y-101267676D02*
X94018207Y-101362914D01*
X94018207Y-101362914D02*
X93922969Y-101410533D01*
X95351540Y-101458152D02*
X95351540Y-102124819D01*
X95113445Y-101077200D02*
X94875350Y-101791485D01*
X94875350Y-101791485D02*
X95494397Y-101791485D01*
X100664649Y-70692438D02*
X100569411Y-70644819D01*
X100569411Y-70644819D02*
X100426554Y-70644819D01*
X100426554Y-70644819D02*
X100283697Y-70692438D01*
X100283697Y-70692438D02*
X100188459Y-70787676D01*
X100188459Y-70787676D02*
X100140840Y-70882914D01*
X100140840Y-70882914D02*
X100093221Y-71073390D01*
X100093221Y-71073390D02*
X100093221Y-71216247D01*
X100093221Y-71216247D02*
X100140840Y-71406723D01*
X100140840Y-71406723D02*
X100188459Y-71501961D01*
X100188459Y-71501961D02*
X100283697Y-71597200D01*
X100283697Y-71597200D02*
X100426554Y-71644819D01*
X100426554Y-71644819D02*
X100521792Y-71644819D01*
X100521792Y-71644819D02*
X100664649Y-71597200D01*
X100664649Y-71597200D02*
X100712268Y-71549580D01*
X100712268Y-71549580D02*
X100712268Y-71216247D01*
X100712268Y-71216247D02*
X100521792Y-71216247D01*
X101140840Y-71644819D02*
X101140840Y-70644819D01*
X101140840Y-70644819D02*
X101521792Y-70644819D01*
X101521792Y-70644819D02*
X101617030Y-70692438D01*
X101617030Y-70692438D02*
X101664649Y-70740057D01*
X101664649Y-70740057D02*
X101712268Y-70835295D01*
X101712268Y-70835295D02*
X101712268Y-70978152D01*
X101712268Y-70978152D02*
X101664649Y-71073390D01*
X101664649Y-71073390D02*
X101617030Y-71121009D01*
X101617030Y-71121009D02*
X101521792Y-71168628D01*
X101521792Y-71168628D02*
X101140840Y-71168628D01*
X102140840Y-71644819D02*
X102140840Y-70644819D01*
X102807506Y-70644819D02*
X102997982Y-70644819D01*
X102997982Y-70644819D02*
X103093220Y-70692438D01*
X103093220Y-70692438D02*
X103188458Y-70787676D01*
X103188458Y-70787676D02*
X103236077Y-70978152D01*
X103236077Y-70978152D02*
X103236077Y-71311485D01*
X103236077Y-71311485D02*
X103188458Y-71501961D01*
X103188458Y-71501961D02*
X103093220Y-71597200D01*
X103093220Y-71597200D02*
X102997982Y-71644819D01*
X102997982Y-71644819D02*
X102807506Y-71644819D01*
X102807506Y-71644819D02*
X102712268Y-71597200D01*
X102712268Y-71597200D02*
X102617030Y-71501961D01*
X102617030Y-71501961D02*
X102569411Y-71311485D01*
X102569411Y-71311485D02*
X102569411Y-70978152D01*
X102569411Y-70978152D02*
X102617030Y-70787676D01*
X102617030Y-70787676D02*
X102712268Y-70692438D01*
X102712268Y-70692438D02*
X102807506Y-70644819D01*
X104093220Y-70978152D02*
X104093220Y-71644819D01*
X103855125Y-70597200D02*
X103617030Y-71311485D01*
X103617030Y-71311485D02*
X104236077Y-71311485D01*
X104807506Y-70644819D02*
X104902744Y-70644819D01*
X104902744Y-70644819D02*
X104997982Y-70692438D01*
X104997982Y-70692438D02*
X105045601Y-70740057D01*
X105045601Y-70740057D02*
X105093220Y-70835295D01*
X105093220Y-70835295D02*
X105140839Y-71025771D01*
X105140839Y-71025771D02*
X105140839Y-71263866D01*
X105140839Y-71263866D02*
X105093220Y-71454342D01*
X105093220Y-71454342D02*
X105045601Y-71549580D01*
X105045601Y-71549580D02*
X104997982Y-71597200D01*
X104997982Y-71597200D02*
X104902744Y-71644819D01*
X104902744Y-71644819D02*
X104807506Y-71644819D01*
X104807506Y-71644819D02*
X104712268Y-71597200D01*
X104712268Y-71597200D02*
X104664649Y-71549580D01*
X104664649Y-71549580D02*
X104617030Y-71454342D01*
X104617030Y-71454342D02*
X104569411Y-71263866D01*
X104569411Y-71263866D02*
X104569411Y-71025771D01*
X104569411Y-71025771D02*
X104617030Y-70835295D01*
X104617030Y-70835295D02*
X104664649Y-70740057D01*
X104664649Y-70740057D02*
X104712268Y-70692438D01*
X104712268Y-70692438D02*
X104807506Y-70644819D01*
X106283696Y-70597200D02*
X105426554Y-71882914D01*
X106617030Y-71644819D02*
X106617030Y-70644819D01*
X106617030Y-70644819D02*
X106950363Y-71359104D01*
X106950363Y-71359104D02*
X107283696Y-70644819D01*
X107283696Y-70644819D02*
X107283696Y-71644819D01*
X107617030Y-70644819D02*
X108188458Y-70644819D01*
X107902744Y-71644819D02*
X107902744Y-70644819D01*
X108521792Y-71644819D02*
X108521792Y-70644819D01*
X108521792Y-70644819D02*
X108759887Y-70644819D01*
X108759887Y-70644819D02*
X108902744Y-70692438D01*
X108902744Y-70692438D02*
X108997982Y-70787676D01*
X108997982Y-70787676D02*
X109045601Y-70882914D01*
X109045601Y-70882914D02*
X109093220Y-71073390D01*
X109093220Y-71073390D02*
X109093220Y-71216247D01*
X109093220Y-71216247D02*
X109045601Y-71406723D01*
X109045601Y-71406723D02*
X108997982Y-71501961D01*
X108997982Y-71501961D02*
X108902744Y-71597200D01*
X108902744Y-71597200D02*
X108759887Y-71644819D01*
X108759887Y-71644819D02*
X108521792Y-71644819D01*
X109712268Y-70644819D02*
X109902744Y-70644819D01*
X109902744Y-70644819D02*
X109997982Y-70692438D01*
X109997982Y-70692438D02*
X110093220Y-70787676D01*
X110093220Y-70787676D02*
X110140839Y-70978152D01*
X110140839Y-70978152D02*
X110140839Y-71311485D01*
X110140839Y-71311485D02*
X110093220Y-71501961D01*
X110093220Y-71501961D02*
X109997982Y-71597200D01*
X109997982Y-71597200D02*
X109902744Y-71644819D01*
X109902744Y-71644819D02*
X109712268Y-71644819D01*
X109712268Y-71644819D02*
X109617030Y-71597200D01*
X109617030Y-71597200D02*
X109521792Y-71501961D01*
X109521792Y-71501961D02*
X109474173Y-71311485D01*
X109474173Y-71311485D02*
X109474173Y-70978152D01*
X109474173Y-70978152D02*
X109521792Y-70787676D01*
X109521792Y-70787676D02*
X109617030Y-70692438D01*
X109617030Y-70692438D02*
X109712268Y-70644819D01*
X90970588Y-68152438D02*
X90875350Y-68104819D01*
X90875350Y-68104819D02*
X90732493Y-68104819D01*
X90732493Y-68104819D02*
X90589636Y-68152438D01*
X90589636Y-68152438D02*
X90494398Y-68247676D01*
X90494398Y-68247676D02*
X90446779Y-68342914D01*
X90446779Y-68342914D02*
X90399160Y-68533390D01*
X90399160Y-68533390D02*
X90399160Y-68676247D01*
X90399160Y-68676247D02*
X90446779Y-68866723D01*
X90446779Y-68866723D02*
X90494398Y-68961961D01*
X90494398Y-68961961D02*
X90589636Y-69057200D01*
X90589636Y-69057200D02*
X90732493Y-69104819D01*
X90732493Y-69104819D02*
X90827731Y-69104819D01*
X90827731Y-69104819D02*
X90970588Y-69057200D01*
X90970588Y-69057200D02*
X91018207Y-69009580D01*
X91018207Y-69009580D02*
X91018207Y-68676247D01*
X91018207Y-68676247D02*
X90827731Y-68676247D01*
X91446779Y-69104819D02*
X91446779Y-68104819D01*
X91446779Y-68104819D02*
X91827731Y-68104819D01*
X91827731Y-68104819D02*
X91922969Y-68152438D01*
X91922969Y-68152438D02*
X91970588Y-68200057D01*
X91970588Y-68200057D02*
X92018207Y-68295295D01*
X92018207Y-68295295D02*
X92018207Y-68438152D01*
X92018207Y-68438152D02*
X91970588Y-68533390D01*
X91970588Y-68533390D02*
X91922969Y-68581009D01*
X91922969Y-68581009D02*
X91827731Y-68628628D01*
X91827731Y-68628628D02*
X91446779Y-68628628D01*
X92446779Y-69104819D02*
X92446779Y-68104819D01*
X93113445Y-68104819D02*
X93303921Y-68104819D01*
X93303921Y-68104819D02*
X93399159Y-68152438D01*
X93399159Y-68152438D02*
X93494397Y-68247676D01*
X93494397Y-68247676D02*
X93542016Y-68438152D01*
X93542016Y-68438152D02*
X93542016Y-68771485D01*
X93542016Y-68771485D02*
X93494397Y-68961961D01*
X93494397Y-68961961D02*
X93399159Y-69057200D01*
X93399159Y-69057200D02*
X93303921Y-69104819D01*
X93303921Y-69104819D02*
X93113445Y-69104819D01*
X93113445Y-69104819D02*
X93018207Y-69057200D01*
X93018207Y-69057200D02*
X92922969Y-68961961D01*
X92922969Y-68961961D02*
X92875350Y-68771485D01*
X92875350Y-68771485D02*
X92875350Y-68438152D01*
X92875350Y-68438152D02*
X92922969Y-68247676D01*
X92922969Y-68247676D02*
X93018207Y-68152438D01*
X93018207Y-68152438D02*
X93113445Y-68104819D01*
X93875350Y-68104819D02*
X94542016Y-68104819D01*
X94542016Y-68104819D02*
X94113445Y-69104819D01*
X90970588Y-93552438D02*
X90875350Y-93504819D01*
X90875350Y-93504819D02*
X90732493Y-93504819D01*
X90732493Y-93504819D02*
X90589636Y-93552438D01*
X90589636Y-93552438D02*
X90494398Y-93647676D01*
X90494398Y-93647676D02*
X90446779Y-93742914D01*
X90446779Y-93742914D02*
X90399160Y-93933390D01*
X90399160Y-93933390D02*
X90399160Y-94076247D01*
X90399160Y-94076247D02*
X90446779Y-94266723D01*
X90446779Y-94266723D02*
X90494398Y-94361961D01*
X90494398Y-94361961D02*
X90589636Y-94457200D01*
X90589636Y-94457200D02*
X90732493Y-94504819D01*
X90732493Y-94504819D02*
X90827731Y-94504819D01*
X90827731Y-94504819D02*
X90970588Y-94457200D01*
X90970588Y-94457200D02*
X91018207Y-94409580D01*
X91018207Y-94409580D02*
X91018207Y-94076247D01*
X91018207Y-94076247D02*
X90827731Y-94076247D01*
X91446779Y-94504819D02*
X91446779Y-93504819D01*
X91446779Y-93504819D02*
X91827731Y-93504819D01*
X91827731Y-93504819D02*
X91922969Y-93552438D01*
X91922969Y-93552438D02*
X91970588Y-93600057D01*
X91970588Y-93600057D02*
X92018207Y-93695295D01*
X92018207Y-93695295D02*
X92018207Y-93838152D01*
X92018207Y-93838152D02*
X91970588Y-93933390D01*
X91970588Y-93933390D02*
X91922969Y-93981009D01*
X91922969Y-93981009D02*
X91827731Y-94028628D01*
X91827731Y-94028628D02*
X91446779Y-94028628D01*
X92446779Y-94504819D02*
X92446779Y-93504819D01*
X93113445Y-93504819D02*
X93303921Y-93504819D01*
X93303921Y-93504819D02*
X93399159Y-93552438D01*
X93399159Y-93552438D02*
X93494397Y-93647676D01*
X93494397Y-93647676D02*
X93542016Y-93838152D01*
X93542016Y-93838152D02*
X93542016Y-94171485D01*
X93542016Y-94171485D02*
X93494397Y-94361961D01*
X93494397Y-94361961D02*
X93399159Y-94457200D01*
X93399159Y-94457200D02*
X93303921Y-94504819D01*
X93303921Y-94504819D02*
X93113445Y-94504819D01*
X93113445Y-94504819D02*
X93018207Y-94457200D01*
X93018207Y-94457200D02*
X92922969Y-94361961D01*
X92922969Y-94361961D02*
X92875350Y-94171485D01*
X92875350Y-94171485D02*
X92875350Y-93838152D01*
X92875350Y-93838152D02*
X92922969Y-93647676D01*
X92922969Y-93647676D02*
X93018207Y-93552438D01*
X93018207Y-93552438D02*
X93113445Y-93504819D01*
X94494397Y-94504819D02*
X93922969Y-94504819D01*
X94208683Y-94504819D02*
X94208683Y-93504819D01*
X94208683Y-93504819D02*
X94113445Y-93647676D01*
X94113445Y-93647676D02*
X94018207Y-93742914D01*
X94018207Y-93742914D02*
X93922969Y-93790533D01*
X95446778Y-94504819D02*
X94875350Y-94504819D01*
X95161064Y-94504819D02*
X95161064Y-93504819D01*
X95161064Y-93504819D02*
X95065826Y-93647676D01*
X95065826Y-93647676D02*
X94970588Y-93742914D01*
X94970588Y-93742914D02*
X94875350Y-93790533D01*
X90970588Y-85932438D02*
X90875350Y-85884819D01*
X90875350Y-85884819D02*
X90732493Y-85884819D01*
X90732493Y-85884819D02*
X90589636Y-85932438D01*
X90589636Y-85932438D02*
X90494398Y-86027676D01*
X90494398Y-86027676D02*
X90446779Y-86122914D01*
X90446779Y-86122914D02*
X90399160Y-86313390D01*
X90399160Y-86313390D02*
X90399160Y-86456247D01*
X90399160Y-86456247D02*
X90446779Y-86646723D01*
X90446779Y-86646723D02*
X90494398Y-86741961D01*
X90494398Y-86741961D02*
X90589636Y-86837200D01*
X90589636Y-86837200D02*
X90732493Y-86884819D01*
X90732493Y-86884819D02*
X90827731Y-86884819D01*
X90827731Y-86884819D02*
X90970588Y-86837200D01*
X90970588Y-86837200D02*
X91018207Y-86789580D01*
X91018207Y-86789580D02*
X91018207Y-86456247D01*
X91018207Y-86456247D02*
X90827731Y-86456247D01*
X91446779Y-86884819D02*
X91446779Y-85884819D01*
X91446779Y-85884819D02*
X91827731Y-85884819D01*
X91827731Y-85884819D02*
X91922969Y-85932438D01*
X91922969Y-85932438D02*
X91970588Y-85980057D01*
X91970588Y-85980057D02*
X92018207Y-86075295D01*
X92018207Y-86075295D02*
X92018207Y-86218152D01*
X92018207Y-86218152D02*
X91970588Y-86313390D01*
X91970588Y-86313390D02*
X91922969Y-86361009D01*
X91922969Y-86361009D02*
X91827731Y-86408628D01*
X91827731Y-86408628D02*
X91446779Y-86408628D01*
X92446779Y-86884819D02*
X92446779Y-85884819D01*
X93113445Y-85884819D02*
X93303921Y-85884819D01*
X93303921Y-85884819D02*
X93399159Y-85932438D01*
X93399159Y-85932438D02*
X93494397Y-86027676D01*
X93494397Y-86027676D02*
X93542016Y-86218152D01*
X93542016Y-86218152D02*
X93542016Y-86551485D01*
X93542016Y-86551485D02*
X93494397Y-86741961D01*
X93494397Y-86741961D02*
X93399159Y-86837200D01*
X93399159Y-86837200D02*
X93303921Y-86884819D01*
X93303921Y-86884819D02*
X93113445Y-86884819D01*
X93113445Y-86884819D02*
X93018207Y-86837200D01*
X93018207Y-86837200D02*
X92922969Y-86741961D01*
X92922969Y-86741961D02*
X92875350Y-86551485D01*
X92875350Y-86551485D02*
X92875350Y-86218152D01*
X92875350Y-86218152D02*
X92922969Y-86027676D01*
X92922969Y-86027676D02*
X93018207Y-85932438D01*
X93018207Y-85932438D02*
X93113445Y-85884819D01*
X94399159Y-86218152D02*
X94399159Y-86884819D01*
X94161064Y-85837200D02*
X93922969Y-86551485D01*
X93922969Y-86551485D02*
X94542016Y-86551485D01*
X95351540Y-85884819D02*
X95161064Y-85884819D01*
X95161064Y-85884819D02*
X95065826Y-85932438D01*
X95065826Y-85932438D02*
X95018207Y-85980057D01*
X95018207Y-85980057D02*
X94922969Y-86122914D01*
X94922969Y-86122914D02*
X94875350Y-86313390D01*
X94875350Y-86313390D02*
X94875350Y-86694342D01*
X94875350Y-86694342D02*
X94922969Y-86789580D01*
X94922969Y-86789580D02*
X94970588Y-86837200D01*
X94970588Y-86837200D02*
X95065826Y-86884819D01*
X95065826Y-86884819D02*
X95256302Y-86884819D01*
X95256302Y-86884819D02*
X95351540Y-86837200D01*
X95351540Y-86837200D02*
X95399159Y-86789580D01*
X95399159Y-86789580D02*
X95446778Y-86694342D01*
X95446778Y-86694342D02*
X95446778Y-86456247D01*
X95446778Y-86456247D02*
X95399159Y-86361009D01*
X95399159Y-86361009D02*
X95351540Y-86313390D01*
X95351540Y-86313390D02*
X95256302Y-86265771D01*
X95256302Y-86265771D02*
X95065826Y-86265771D01*
X95065826Y-86265771D02*
X94970588Y-86313390D01*
X94970588Y-86313390D02*
X94922969Y-86361009D01*
X94922969Y-86361009D02*
X94875350Y-86456247D01*
X90970588Y-96092438D02*
X90875350Y-96044819D01*
X90875350Y-96044819D02*
X90732493Y-96044819D01*
X90732493Y-96044819D02*
X90589636Y-96092438D01*
X90589636Y-96092438D02*
X90494398Y-96187676D01*
X90494398Y-96187676D02*
X90446779Y-96282914D01*
X90446779Y-96282914D02*
X90399160Y-96473390D01*
X90399160Y-96473390D02*
X90399160Y-96616247D01*
X90399160Y-96616247D02*
X90446779Y-96806723D01*
X90446779Y-96806723D02*
X90494398Y-96901961D01*
X90494398Y-96901961D02*
X90589636Y-96997200D01*
X90589636Y-96997200D02*
X90732493Y-97044819D01*
X90732493Y-97044819D02*
X90827731Y-97044819D01*
X90827731Y-97044819D02*
X90970588Y-96997200D01*
X90970588Y-96997200D02*
X91018207Y-96949580D01*
X91018207Y-96949580D02*
X91018207Y-96616247D01*
X91018207Y-96616247D02*
X90827731Y-96616247D01*
X91446779Y-97044819D02*
X91446779Y-96044819D01*
X91446779Y-96044819D02*
X91827731Y-96044819D01*
X91827731Y-96044819D02*
X91922969Y-96092438D01*
X91922969Y-96092438D02*
X91970588Y-96140057D01*
X91970588Y-96140057D02*
X92018207Y-96235295D01*
X92018207Y-96235295D02*
X92018207Y-96378152D01*
X92018207Y-96378152D02*
X91970588Y-96473390D01*
X91970588Y-96473390D02*
X91922969Y-96521009D01*
X91922969Y-96521009D02*
X91827731Y-96568628D01*
X91827731Y-96568628D02*
X91446779Y-96568628D01*
X92446779Y-97044819D02*
X92446779Y-96044819D01*
X93113445Y-96044819D02*
X93303921Y-96044819D01*
X93303921Y-96044819D02*
X93399159Y-96092438D01*
X93399159Y-96092438D02*
X93494397Y-96187676D01*
X93494397Y-96187676D02*
X93542016Y-96378152D01*
X93542016Y-96378152D02*
X93542016Y-96711485D01*
X93542016Y-96711485D02*
X93494397Y-96901961D01*
X93494397Y-96901961D02*
X93399159Y-96997200D01*
X93399159Y-96997200D02*
X93303921Y-97044819D01*
X93303921Y-97044819D02*
X93113445Y-97044819D01*
X93113445Y-97044819D02*
X93018207Y-96997200D01*
X93018207Y-96997200D02*
X92922969Y-96901961D01*
X92922969Y-96901961D02*
X92875350Y-96711485D01*
X92875350Y-96711485D02*
X92875350Y-96378152D01*
X92875350Y-96378152D02*
X92922969Y-96187676D01*
X92922969Y-96187676D02*
X93018207Y-96092438D01*
X93018207Y-96092438D02*
X93113445Y-96044819D01*
X94494397Y-97044819D02*
X93922969Y-97044819D01*
X94208683Y-97044819D02*
X94208683Y-96044819D01*
X94208683Y-96044819D02*
X94113445Y-96187676D01*
X94113445Y-96187676D02*
X94018207Y-96282914D01*
X94018207Y-96282914D02*
X93922969Y-96330533D01*
X94875350Y-96140057D02*
X94922969Y-96092438D01*
X94922969Y-96092438D02*
X95018207Y-96044819D01*
X95018207Y-96044819D02*
X95256302Y-96044819D01*
X95256302Y-96044819D02*
X95351540Y-96092438D01*
X95351540Y-96092438D02*
X95399159Y-96140057D01*
X95399159Y-96140057D02*
X95446778Y-96235295D01*
X95446778Y-96235295D02*
X95446778Y-96330533D01*
X95446778Y-96330533D02*
X95399159Y-96473390D01*
X95399159Y-96473390D02*
X94827731Y-97044819D01*
X94827731Y-97044819D02*
X95446778Y-97044819D01*
X90970588Y-75772438D02*
X90875350Y-75724819D01*
X90875350Y-75724819D02*
X90732493Y-75724819D01*
X90732493Y-75724819D02*
X90589636Y-75772438D01*
X90589636Y-75772438D02*
X90494398Y-75867676D01*
X90494398Y-75867676D02*
X90446779Y-75962914D01*
X90446779Y-75962914D02*
X90399160Y-76153390D01*
X90399160Y-76153390D02*
X90399160Y-76296247D01*
X90399160Y-76296247D02*
X90446779Y-76486723D01*
X90446779Y-76486723D02*
X90494398Y-76581961D01*
X90494398Y-76581961D02*
X90589636Y-76677200D01*
X90589636Y-76677200D02*
X90732493Y-76724819D01*
X90732493Y-76724819D02*
X90827731Y-76724819D01*
X90827731Y-76724819D02*
X90970588Y-76677200D01*
X90970588Y-76677200D02*
X91018207Y-76629580D01*
X91018207Y-76629580D02*
X91018207Y-76296247D01*
X91018207Y-76296247D02*
X90827731Y-76296247D01*
X91446779Y-76724819D02*
X91446779Y-75724819D01*
X91446779Y-75724819D02*
X91827731Y-75724819D01*
X91827731Y-75724819D02*
X91922969Y-75772438D01*
X91922969Y-75772438D02*
X91970588Y-75820057D01*
X91970588Y-75820057D02*
X92018207Y-75915295D01*
X92018207Y-75915295D02*
X92018207Y-76058152D01*
X92018207Y-76058152D02*
X91970588Y-76153390D01*
X91970588Y-76153390D02*
X91922969Y-76201009D01*
X91922969Y-76201009D02*
X91827731Y-76248628D01*
X91827731Y-76248628D02*
X91446779Y-76248628D01*
X92446779Y-76724819D02*
X92446779Y-75724819D01*
X93113445Y-75724819D02*
X93303921Y-75724819D01*
X93303921Y-75724819D02*
X93399159Y-75772438D01*
X93399159Y-75772438D02*
X93494397Y-75867676D01*
X93494397Y-75867676D02*
X93542016Y-76058152D01*
X93542016Y-76058152D02*
X93542016Y-76391485D01*
X93542016Y-76391485D02*
X93494397Y-76581961D01*
X93494397Y-76581961D02*
X93399159Y-76677200D01*
X93399159Y-76677200D02*
X93303921Y-76724819D01*
X93303921Y-76724819D02*
X93113445Y-76724819D01*
X93113445Y-76724819D02*
X93018207Y-76677200D01*
X93018207Y-76677200D02*
X92922969Y-76581961D01*
X92922969Y-76581961D02*
X92875350Y-76391485D01*
X92875350Y-76391485D02*
X92875350Y-76058152D01*
X92875350Y-76058152D02*
X92922969Y-75867676D01*
X92922969Y-75867676D02*
X93018207Y-75772438D01*
X93018207Y-75772438D02*
X93113445Y-75724819D01*
X94494397Y-76724819D02*
X93922969Y-76724819D01*
X94208683Y-76724819D02*
X94208683Y-75724819D01*
X94208683Y-75724819D02*
X94113445Y-75867676D01*
X94113445Y-75867676D02*
X94018207Y-75962914D01*
X94018207Y-75962914D02*
X93922969Y-76010533D01*
X94827731Y-75724819D02*
X95494397Y-75724819D01*
X95494397Y-75724819D02*
X95065826Y-76724819D01*
X90341921Y-58418289D02*
X90675254Y-58418289D01*
X90818111Y-58942099D02*
X90341921Y-58942099D01*
X90341921Y-58942099D02*
X90341921Y-57942099D01*
X90341921Y-57942099D02*
X90818111Y-57942099D01*
X91246683Y-58942099D02*
X91246683Y-57942099D01*
X91246683Y-57942099D02*
X91818111Y-58942099D01*
X91818111Y-58942099D02*
X91818111Y-57942099D01*
X93008587Y-57894480D02*
X92151445Y-59180194D01*
X93913349Y-58942099D02*
X93580016Y-58465908D01*
X93341921Y-58942099D02*
X93341921Y-57942099D01*
X93341921Y-57942099D02*
X93722873Y-57942099D01*
X93722873Y-57942099D02*
X93818111Y-57989718D01*
X93818111Y-57989718D02*
X93865730Y-58037337D01*
X93865730Y-58037337D02*
X93913349Y-58132575D01*
X93913349Y-58132575D02*
X93913349Y-58275432D01*
X93913349Y-58275432D02*
X93865730Y-58370670D01*
X93865730Y-58370670D02*
X93818111Y-58418289D01*
X93818111Y-58418289D02*
X93722873Y-58465908D01*
X93722873Y-58465908D02*
X93341921Y-58465908D01*
X94341921Y-58418289D02*
X94675254Y-58418289D01*
X94818111Y-58942099D02*
X94341921Y-58942099D01*
X94341921Y-58942099D02*
X94341921Y-57942099D01*
X94341921Y-57942099D02*
X94818111Y-57942099D01*
X95199064Y-58894480D02*
X95341921Y-58942099D01*
X95341921Y-58942099D02*
X95580016Y-58942099D01*
X95580016Y-58942099D02*
X95675254Y-58894480D01*
X95675254Y-58894480D02*
X95722873Y-58846860D01*
X95722873Y-58846860D02*
X95770492Y-58751622D01*
X95770492Y-58751622D02*
X95770492Y-58656384D01*
X95770492Y-58656384D02*
X95722873Y-58561146D01*
X95722873Y-58561146D02*
X95675254Y-58513527D01*
X95675254Y-58513527D02*
X95580016Y-58465908D01*
X95580016Y-58465908D02*
X95389540Y-58418289D01*
X95389540Y-58418289D02*
X95294302Y-58370670D01*
X95294302Y-58370670D02*
X95246683Y-58323051D01*
X95246683Y-58323051D02*
X95199064Y-58227813D01*
X95199064Y-58227813D02*
X95199064Y-58132575D01*
X95199064Y-58132575D02*
X95246683Y-58037337D01*
X95246683Y-58037337D02*
X95294302Y-57989718D01*
X95294302Y-57989718D02*
X95389540Y-57942099D01*
X95389540Y-57942099D02*
X95627635Y-57942099D01*
X95627635Y-57942099D02*
X95770492Y-57989718D01*
X96199064Y-58418289D02*
X96532397Y-58418289D01*
X96675254Y-58942099D02*
X96199064Y-58942099D01*
X96199064Y-58942099D02*
X96199064Y-57942099D01*
X96199064Y-57942099D02*
X96675254Y-57942099D01*
X96960969Y-57942099D02*
X97532397Y-57942099D01*
X97246683Y-58942099D02*
X97246683Y-57942099D01*
X105664649Y-91012438D02*
X105569411Y-90964819D01*
X105569411Y-90964819D02*
X105426554Y-90964819D01*
X105426554Y-90964819D02*
X105283697Y-91012438D01*
X105283697Y-91012438D02*
X105188459Y-91107676D01*
X105188459Y-91107676D02*
X105140840Y-91202914D01*
X105140840Y-91202914D02*
X105093221Y-91393390D01*
X105093221Y-91393390D02*
X105093221Y-91536247D01*
X105093221Y-91536247D02*
X105140840Y-91726723D01*
X105140840Y-91726723D02*
X105188459Y-91821961D01*
X105188459Y-91821961D02*
X105283697Y-91917200D01*
X105283697Y-91917200D02*
X105426554Y-91964819D01*
X105426554Y-91964819D02*
X105521792Y-91964819D01*
X105521792Y-91964819D02*
X105664649Y-91917200D01*
X105664649Y-91917200D02*
X105712268Y-91869580D01*
X105712268Y-91869580D02*
X105712268Y-91536247D01*
X105712268Y-91536247D02*
X105521792Y-91536247D01*
X106140840Y-91964819D02*
X106140840Y-90964819D01*
X106140840Y-90964819D02*
X106521792Y-90964819D01*
X106521792Y-90964819D02*
X106617030Y-91012438D01*
X106617030Y-91012438D02*
X106664649Y-91060057D01*
X106664649Y-91060057D02*
X106712268Y-91155295D01*
X106712268Y-91155295D02*
X106712268Y-91298152D01*
X106712268Y-91298152D02*
X106664649Y-91393390D01*
X106664649Y-91393390D02*
X106617030Y-91441009D01*
X106617030Y-91441009D02*
X106521792Y-91488628D01*
X106521792Y-91488628D02*
X106140840Y-91488628D01*
X107140840Y-91964819D02*
X107140840Y-90964819D01*
X107807506Y-90964819D02*
X107997982Y-90964819D01*
X107997982Y-90964819D02*
X108093220Y-91012438D01*
X108093220Y-91012438D02*
X108188458Y-91107676D01*
X108188458Y-91107676D02*
X108236077Y-91298152D01*
X108236077Y-91298152D02*
X108236077Y-91631485D01*
X108236077Y-91631485D02*
X108188458Y-91821961D01*
X108188458Y-91821961D02*
X108093220Y-91917200D01*
X108093220Y-91917200D02*
X107997982Y-91964819D01*
X107997982Y-91964819D02*
X107807506Y-91964819D01*
X107807506Y-91964819D02*
X107712268Y-91917200D01*
X107712268Y-91917200D02*
X107617030Y-91821961D01*
X107617030Y-91821961D02*
X107569411Y-91631485D01*
X107569411Y-91631485D02*
X107569411Y-91298152D01*
X107569411Y-91298152D02*
X107617030Y-91107676D01*
X107617030Y-91107676D02*
X107712268Y-91012438D01*
X107712268Y-91012438D02*
X107807506Y-90964819D01*
X109093220Y-91298152D02*
X109093220Y-91964819D01*
X108855125Y-90917200D02*
X108617030Y-91631485D01*
X108617030Y-91631485D02*
X109236077Y-91631485D01*
X109759887Y-91393390D02*
X109664649Y-91345771D01*
X109664649Y-91345771D02*
X109617030Y-91298152D01*
X109617030Y-91298152D02*
X109569411Y-91202914D01*
X109569411Y-91202914D02*
X109569411Y-91155295D01*
X109569411Y-91155295D02*
X109617030Y-91060057D01*
X109617030Y-91060057D02*
X109664649Y-91012438D01*
X109664649Y-91012438D02*
X109759887Y-90964819D01*
X109759887Y-90964819D02*
X109950363Y-90964819D01*
X109950363Y-90964819D02*
X110045601Y-91012438D01*
X110045601Y-91012438D02*
X110093220Y-91060057D01*
X110093220Y-91060057D02*
X110140839Y-91155295D01*
X110140839Y-91155295D02*
X110140839Y-91202914D01*
X110140839Y-91202914D02*
X110093220Y-91298152D01*
X110093220Y-91298152D02*
X110045601Y-91345771D01*
X110045601Y-91345771D02*
X109950363Y-91393390D01*
X109950363Y-91393390D02*
X109759887Y-91393390D01*
X109759887Y-91393390D02*
X109664649Y-91441009D01*
X109664649Y-91441009D02*
X109617030Y-91488628D01*
X109617030Y-91488628D02*
X109569411Y-91583866D01*
X109569411Y-91583866D02*
X109569411Y-91774342D01*
X109569411Y-91774342D02*
X109617030Y-91869580D01*
X109617030Y-91869580D02*
X109664649Y-91917200D01*
X109664649Y-91917200D02*
X109759887Y-91964819D01*
X109759887Y-91964819D02*
X109950363Y-91964819D01*
X109950363Y-91964819D02*
X110045601Y-91917200D01*
X110045601Y-91917200D02*
X110093220Y-91869580D01*
X110093220Y-91869580D02*
X110140839Y-91774342D01*
X110140839Y-91774342D02*
X110140839Y-91583866D01*
X110140839Y-91583866D02*
X110093220Y-91488628D01*
X110093220Y-91488628D02*
X110045601Y-91441009D01*
X110045601Y-91441009D02*
X109950363Y-91393390D01*
X101236078Y-68152438D02*
X101140840Y-68104819D01*
X101140840Y-68104819D02*
X100997983Y-68104819D01*
X100997983Y-68104819D02*
X100855126Y-68152438D01*
X100855126Y-68152438D02*
X100759888Y-68247676D01*
X100759888Y-68247676D02*
X100712269Y-68342914D01*
X100712269Y-68342914D02*
X100664650Y-68533390D01*
X100664650Y-68533390D02*
X100664650Y-68676247D01*
X100664650Y-68676247D02*
X100712269Y-68866723D01*
X100712269Y-68866723D02*
X100759888Y-68961961D01*
X100759888Y-68961961D02*
X100855126Y-69057200D01*
X100855126Y-69057200D02*
X100997983Y-69104819D01*
X100997983Y-69104819D02*
X101093221Y-69104819D01*
X101093221Y-69104819D02*
X101236078Y-69057200D01*
X101236078Y-69057200D02*
X101283697Y-69009580D01*
X101283697Y-69009580D02*
X101283697Y-68676247D01*
X101283697Y-68676247D02*
X101093221Y-68676247D01*
X101712269Y-69104819D02*
X101712269Y-68104819D01*
X101712269Y-68104819D02*
X102093221Y-68104819D01*
X102093221Y-68104819D02*
X102188459Y-68152438D01*
X102188459Y-68152438D02*
X102236078Y-68200057D01*
X102236078Y-68200057D02*
X102283697Y-68295295D01*
X102283697Y-68295295D02*
X102283697Y-68438152D01*
X102283697Y-68438152D02*
X102236078Y-68533390D01*
X102236078Y-68533390D02*
X102188459Y-68581009D01*
X102188459Y-68581009D02*
X102093221Y-68628628D01*
X102093221Y-68628628D02*
X101712269Y-68628628D01*
X102712269Y-69104819D02*
X102712269Y-68104819D01*
X103378935Y-68104819D02*
X103569411Y-68104819D01*
X103569411Y-68104819D02*
X103664649Y-68152438D01*
X103664649Y-68152438D02*
X103759887Y-68247676D01*
X103759887Y-68247676D02*
X103807506Y-68438152D01*
X103807506Y-68438152D02*
X103807506Y-68771485D01*
X103807506Y-68771485D02*
X103759887Y-68961961D01*
X103759887Y-68961961D02*
X103664649Y-69057200D01*
X103664649Y-69057200D02*
X103569411Y-69104819D01*
X103569411Y-69104819D02*
X103378935Y-69104819D01*
X103378935Y-69104819D02*
X103283697Y-69057200D01*
X103283697Y-69057200D02*
X103188459Y-68961961D01*
X103188459Y-68961961D02*
X103140840Y-68771485D01*
X103140840Y-68771485D02*
X103140840Y-68438152D01*
X103140840Y-68438152D02*
X103188459Y-68247676D01*
X103188459Y-68247676D02*
X103283697Y-68152438D01*
X103283697Y-68152438D02*
X103378935Y-68104819D01*
X104664649Y-68438152D02*
X104664649Y-69104819D01*
X104426554Y-68057200D02*
X104188459Y-68771485D01*
X104188459Y-68771485D02*
X104807506Y-68771485D01*
X105712268Y-69104819D02*
X105140840Y-69104819D01*
X105426554Y-69104819D02*
X105426554Y-68104819D01*
X105426554Y-68104819D02*
X105331316Y-68247676D01*
X105331316Y-68247676D02*
X105236078Y-68342914D01*
X105236078Y-68342914D02*
X105140840Y-68390533D01*
X106855125Y-68057200D02*
X105997983Y-69342914D01*
X107188459Y-69104819D02*
X107188459Y-68104819D01*
X107188459Y-68104819D02*
X107521792Y-68819104D01*
X107521792Y-68819104D02*
X107855125Y-68104819D01*
X107855125Y-68104819D02*
X107855125Y-69104819D01*
X108188459Y-68104819D02*
X108759887Y-68104819D01*
X108474173Y-69104819D02*
X108474173Y-68104819D01*
X109093221Y-69104819D02*
X109093221Y-68104819D01*
X109093221Y-68104819D02*
X109331316Y-68104819D01*
X109331316Y-68104819D02*
X109474173Y-68152438D01*
X109474173Y-68152438D02*
X109569411Y-68247676D01*
X109569411Y-68247676D02*
X109617030Y-68342914D01*
X109617030Y-68342914D02*
X109664649Y-68533390D01*
X109664649Y-68533390D02*
X109664649Y-68676247D01*
X109664649Y-68676247D02*
X109617030Y-68866723D01*
X109617030Y-68866723D02*
X109569411Y-68961961D01*
X109569411Y-68961961D02*
X109474173Y-69057200D01*
X109474173Y-69057200D02*
X109331316Y-69104819D01*
X109331316Y-69104819D02*
X109093221Y-69104819D01*
X110093221Y-69104819D02*
X110093221Y-68104819D01*
X108045601Y-52912438D02*
X107950363Y-52864819D01*
X107950363Y-52864819D02*
X107807506Y-52864819D01*
X107807506Y-52864819D02*
X107664649Y-52912438D01*
X107664649Y-52912438D02*
X107569411Y-53007676D01*
X107569411Y-53007676D02*
X107521792Y-53102914D01*
X107521792Y-53102914D02*
X107474173Y-53293390D01*
X107474173Y-53293390D02*
X107474173Y-53436247D01*
X107474173Y-53436247D02*
X107521792Y-53626723D01*
X107521792Y-53626723D02*
X107569411Y-53721961D01*
X107569411Y-53721961D02*
X107664649Y-53817200D01*
X107664649Y-53817200D02*
X107807506Y-53864819D01*
X107807506Y-53864819D02*
X107902744Y-53864819D01*
X107902744Y-53864819D02*
X108045601Y-53817200D01*
X108045601Y-53817200D02*
X108093220Y-53769580D01*
X108093220Y-53769580D02*
X108093220Y-53436247D01*
X108093220Y-53436247D02*
X107902744Y-53436247D01*
X108521792Y-53864819D02*
X108521792Y-52864819D01*
X108521792Y-52864819D02*
X109093220Y-53864819D01*
X109093220Y-53864819D02*
X109093220Y-52864819D01*
X109569411Y-53864819D02*
X109569411Y-52864819D01*
X109569411Y-52864819D02*
X109807506Y-52864819D01*
X109807506Y-52864819D02*
X109950363Y-52912438D01*
X109950363Y-52912438D02*
X110045601Y-53007676D01*
X110045601Y-53007676D02*
X110093220Y-53102914D01*
X110093220Y-53102914D02*
X110140839Y-53293390D01*
X110140839Y-53293390D02*
X110140839Y-53436247D01*
X110140839Y-53436247D02*
X110093220Y-53626723D01*
X110093220Y-53626723D02*
X110045601Y-53721961D01*
X110045601Y-53721961D02*
X109950363Y-53817200D01*
X109950363Y-53817200D02*
X109807506Y-53864819D01*
X109807506Y-53864819D02*
X109569411Y-53864819D01*
X105664649Y-83392438D02*
X105569411Y-83344819D01*
X105569411Y-83344819D02*
X105426554Y-83344819D01*
X105426554Y-83344819D02*
X105283697Y-83392438D01*
X105283697Y-83392438D02*
X105188459Y-83487676D01*
X105188459Y-83487676D02*
X105140840Y-83582914D01*
X105140840Y-83582914D02*
X105093221Y-83773390D01*
X105093221Y-83773390D02*
X105093221Y-83916247D01*
X105093221Y-83916247D02*
X105140840Y-84106723D01*
X105140840Y-84106723D02*
X105188459Y-84201961D01*
X105188459Y-84201961D02*
X105283697Y-84297200D01*
X105283697Y-84297200D02*
X105426554Y-84344819D01*
X105426554Y-84344819D02*
X105521792Y-84344819D01*
X105521792Y-84344819D02*
X105664649Y-84297200D01*
X105664649Y-84297200D02*
X105712268Y-84249580D01*
X105712268Y-84249580D02*
X105712268Y-83916247D01*
X105712268Y-83916247D02*
X105521792Y-83916247D01*
X106140840Y-84344819D02*
X106140840Y-83344819D01*
X106140840Y-83344819D02*
X106521792Y-83344819D01*
X106521792Y-83344819D02*
X106617030Y-83392438D01*
X106617030Y-83392438D02*
X106664649Y-83440057D01*
X106664649Y-83440057D02*
X106712268Y-83535295D01*
X106712268Y-83535295D02*
X106712268Y-83678152D01*
X106712268Y-83678152D02*
X106664649Y-83773390D01*
X106664649Y-83773390D02*
X106617030Y-83821009D01*
X106617030Y-83821009D02*
X106521792Y-83868628D01*
X106521792Y-83868628D02*
X106140840Y-83868628D01*
X107140840Y-84344819D02*
X107140840Y-83344819D01*
X107807506Y-83344819D02*
X107997982Y-83344819D01*
X107997982Y-83344819D02*
X108093220Y-83392438D01*
X108093220Y-83392438D02*
X108188458Y-83487676D01*
X108188458Y-83487676D02*
X108236077Y-83678152D01*
X108236077Y-83678152D02*
X108236077Y-84011485D01*
X108236077Y-84011485D02*
X108188458Y-84201961D01*
X108188458Y-84201961D02*
X108093220Y-84297200D01*
X108093220Y-84297200D02*
X107997982Y-84344819D01*
X107997982Y-84344819D02*
X107807506Y-84344819D01*
X107807506Y-84344819D02*
X107712268Y-84297200D01*
X107712268Y-84297200D02*
X107617030Y-84201961D01*
X107617030Y-84201961D02*
X107569411Y-84011485D01*
X107569411Y-84011485D02*
X107569411Y-83678152D01*
X107569411Y-83678152D02*
X107617030Y-83487676D01*
X107617030Y-83487676D02*
X107712268Y-83392438D01*
X107712268Y-83392438D02*
X107807506Y-83344819D01*
X108569411Y-83344819D02*
X109188458Y-83344819D01*
X109188458Y-83344819D02*
X108855125Y-83725771D01*
X108855125Y-83725771D02*
X108997982Y-83725771D01*
X108997982Y-83725771D02*
X109093220Y-83773390D01*
X109093220Y-83773390D02*
X109140839Y-83821009D01*
X109140839Y-83821009D02*
X109188458Y-83916247D01*
X109188458Y-83916247D02*
X109188458Y-84154342D01*
X109188458Y-84154342D02*
X109140839Y-84249580D01*
X109140839Y-84249580D02*
X109093220Y-84297200D01*
X109093220Y-84297200D02*
X108997982Y-84344819D01*
X108997982Y-84344819D02*
X108712268Y-84344819D01*
X108712268Y-84344819D02*
X108617030Y-84297200D01*
X108617030Y-84297200D02*
X108569411Y-84249580D01*
X110093220Y-83344819D02*
X109617030Y-83344819D01*
X109617030Y-83344819D02*
X109569411Y-83821009D01*
X109569411Y-83821009D02*
X109617030Y-83773390D01*
X109617030Y-83773390D02*
X109712268Y-83725771D01*
X109712268Y-83725771D02*
X109950363Y-83725771D01*
X109950363Y-83725771D02*
X110045601Y-83773390D01*
X110045601Y-83773390D02*
X110093220Y-83821009D01*
X110093220Y-83821009D02*
X110140839Y-83916247D01*
X110140839Y-83916247D02*
X110140839Y-84154342D01*
X110140839Y-84154342D02*
X110093220Y-84249580D01*
X110093220Y-84249580D02*
X110045601Y-84297200D01*
X110045601Y-84297200D02*
X109950363Y-84344819D01*
X109950363Y-84344819D02*
X109712268Y-84344819D01*
X109712268Y-84344819D02*
X109617030Y-84297200D01*
X109617030Y-84297200D02*
X109569411Y-84249580D01*
X90970588Y-65612438D02*
X90875350Y-65564819D01*
X90875350Y-65564819D02*
X90732493Y-65564819D01*
X90732493Y-65564819D02*
X90589636Y-65612438D01*
X90589636Y-65612438D02*
X90494398Y-65707676D01*
X90494398Y-65707676D02*
X90446779Y-65802914D01*
X90446779Y-65802914D02*
X90399160Y-65993390D01*
X90399160Y-65993390D02*
X90399160Y-66136247D01*
X90399160Y-66136247D02*
X90446779Y-66326723D01*
X90446779Y-66326723D02*
X90494398Y-66421961D01*
X90494398Y-66421961D02*
X90589636Y-66517200D01*
X90589636Y-66517200D02*
X90732493Y-66564819D01*
X90732493Y-66564819D02*
X90827731Y-66564819D01*
X90827731Y-66564819D02*
X90970588Y-66517200D01*
X90970588Y-66517200D02*
X91018207Y-66469580D01*
X91018207Y-66469580D02*
X91018207Y-66136247D01*
X91018207Y-66136247D02*
X90827731Y-66136247D01*
X91446779Y-66564819D02*
X91446779Y-65564819D01*
X91446779Y-65564819D02*
X91827731Y-65564819D01*
X91827731Y-65564819D02*
X91922969Y-65612438D01*
X91922969Y-65612438D02*
X91970588Y-65660057D01*
X91970588Y-65660057D02*
X92018207Y-65755295D01*
X92018207Y-65755295D02*
X92018207Y-65898152D01*
X92018207Y-65898152D02*
X91970588Y-65993390D01*
X91970588Y-65993390D02*
X91922969Y-66041009D01*
X91922969Y-66041009D02*
X91827731Y-66088628D01*
X91827731Y-66088628D02*
X91446779Y-66088628D01*
X92446779Y-66564819D02*
X92446779Y-65564819D01*
X93113445Y-65564819D02*
X93303921Y-65564819D01*
X93303921Y-65564819D02*
X93399159Y-65612438D01*
X93399159Y-65612438D02*
X93494397Y-65707676D01*
X93494397Y-65707676D02*
X93542016Y-65898152D01*
X93542016Y-65898152D02*
X93542016Y-66231485D01*
X93542016Y-66231485D02*
X93494397Y-66421961D01*
X93494397Y-66421961D02*
X93399159Y-66517200D01*
X93399159Y-66517200D02*
X93303921Y-66564819D01*
X93303921Y-66564819D02*
X93113445Y-66564819D01*
X93113445Y-66564819D02*
X93018207Y-66517200D01*
X93018207Y-66517200D02*
X92922969Y-66421961D01*
X92922969Y-66421961D02*
X92875350Y-66231485D01*
X92875350Y-66231485D02*
X92875350Y-65898152D01*
X92875350Y-65898152D02*
X92922969Y-65707676D01*
X92922969Y-65707676D02*
X93018207Y-65612438D01*
X93018207Y-65612438D02*
X93113445Y-65564819D01*
X94399159Y-65564819D02*
X94208683Y-65564819D01*
X94208683Y-65564819D02*
X94113445Y-65612438D01*
X94113445Y-65612438D02*
X94065826Y-65660057D01*
X94065826Y-65660057D02*
X93970588Y-65802914D01*
X93970588Y-65802914D02*
X93922969Y-65993390D01*
X93922969Y-65993390D02*
X93922969Y-66374342D01*
X93922969Y-66374342D02*
X93970588Y-66469580D01*
X93970588Y-66469580D02*
X94018207Y-66517200D01*
X94018207Y-66517200D02*
X94113445Y-66564819D01*
X94113445Y-66564819D02*
X94303921Y-66564819D01*
X94303921Y-66564819D02*
X94399159Y-66517200D01*
X94399159Y-66517200D02*
X94446778Y-66469580D01*
X94446778Y-66469580D02*
X94494397Y-66374342D01*
X94494397Y-66374342D02*
X94494397Y-66136247D01*
X94494397Y-66136247D02*
X94446778Y-66041009D01*
X94446778Y-66041009D02*
X94399159Y-65993390D01*
X94399159Y-65993390D02*
X94303921Y-65945771D01*
X94303921Y-65945771D02*
X94113445Y-65945771D01*
X94113445Y-65945771D02*
X94018207Y-65993390D01*
X94018207Y-65993390D02*
X93970588Y-66041009D01*
X93970588Y-66041009D02*
X93922969Y-66136247D01*
X100712268Y-73232438D02*
X100617030Y-73184819D01*
X100617030Y-73184819D02*
X100474173Y-73184819D01*
X100474173Y-73184819D02*
X100331316Y-73232438D01*
X100331316Y-73232438D02*
X100236078Y-73327676D01*
X100236078Y-73327676D02*
X100188459Y-73422914D01*
X100188459Y-73422914D02*
X100140840Y-73613390D01*
X100140840Y-73613390D02*
X100140840Y-73756247D01*
X100140840Y-73756247D02*
X100188459Y-73946723D01*
X100188459Y-73946723D02*
X100236078Y-74041961D01*
X100236078Y-74041961D02*
X100331316Y-74137200D01*
X100331316Y-74137200D02*
X100474173Y-74184819D01*
X100474173Y-74184819D02*
X100569411Y-74184819D01*
X100569411Y-74184819D02*
X100712268Y-74137200D01*
X100712268Y-74137200D02*
X100759887Y-74089580D01*
X100759887Y-74089580D02*
X100759887Y-73756247D01*
X100759887Y-73756247D02*
X100569411Y-73756247D01*
X101188459Y-74184819D02*
X101188459Y-73184819D01*
X101188459Y-73184819D02*
X101569411Y-73184819D01*
X101569411Y-73184819D02*
X101664649Y-73232438D01*
X101664649Y-73232438D02*
X101712268Y-73280057D01*
X101712268Y-73280057D02*
X101759887Y-73375295D01*
X101759887Y-73375295D02*
X101759887Y-73518152D01*
X101759887Y-73518152D02*
X101712268Y-73613390D01*
X101712268Y-73613390D02*
X101664649Y-73661009D01*
X101664649Y-73661009D02*
X101569411Y-73708628D01*
X101569411Y-73708628D02*
X101188459Y-73708628D01*
X102188459Y-74184819D02*
X102188459Y-73184819D01*
X102855125Y-73184819D02*
X103045601Y-73184819D01*
X103045601Y-73184819D02*
X103140839Y-73232438D01*
X103140839Y-73232438D02*
X103236077Y-73327676D01*
X103236077Y-73327676D02*
X103283696Y-73518152D01*
X103283696Y-73518152D02*
X103283696Y-73851485D01*
X103283696Y-73851485D02*
X103236077Y-74041961D01*
X103236077Y-74041961D02*
X103140839Y-74137200D01*
X103140839Y-74137200D02*
X103045601Y-74184819D01*
X103045601Y-74184819D02*
X102855125Y-74184819D01*
X102855125Y-74184819D02*
X102759887Y-74137200D01*
X102759887Y-74137200D02*
X102664649Y-74041961D01*
X102664649Y-74041961D02*
X102617030Y-73851485D01*
X102617030Y-73851485D02*
X102617030Y-73518152D01*
X102617030Y-73518152D02*
X102664649Y-73327676D01*
X102664649Y-73327676D02*
X102759887Y-73232438D01*
X102759887Y-73232438D02*
X102855125Y-73184819D01*
X103617030Y-73184819D02*
X104236077Y-73184819D01*
X104236077Y-73184819D02*
X103902744Y-73565771D01*
X103902744Y-73565771D02*
X104045601Y-73565771D01*
X104045601Y-73565771D02*
X104140839Y-73613390D01*
X104140839Y-73613390D02*
X104188458Y-73661009D01*
X104188458Y-73661009D02*
X104236077Y-73756247D01*
X104236077Y-73756247D02*
X104236077Y-73994342D01*
X104236077Y-73994342D02*
X104188458Y-74089580D01*
X104188458Y-74089580D02*
X104140839Y-74137200D01*
X104140839Y-74137200D02*
X104045601Y-74184819D01*
X104045601Y-74184819D02*
X103759887Y-74184819D01*
X103759887Y-74184819D02*
X103664649Y-74137200D01*
X103664649Y-74137200D02*
X103617030Y-74089580D01*
X104712268Y-74184819D02*
X104902744Y-74184819D01*
X104902744Y-74184819D02*
X104997982Y-74137200D01*
X104997982Y-74137200D02*
X105045601Y-74089580D01*
X105045601Y-74089580D02*
X105140839Y-73946723D01*
X105140839Y-73946723D02*
X105188458Y-73756247D01*
X105188458Y-73756247D02*
X105188458Y-73375295D01*
X105188458Y-73375295D02*
X105140839Y-73280057D01*
X105140839Y-73280057D02*
X105093220Y-73232438D01*
X105093220Y-73232438D02*
X104997982Y-73184819D01*
X104997982Y-73184819D02*
X104807506Y-73184819D01*
X104807506Y-73184819D02*
X104712268Y-73232438D01*
X104712268Y-73232438D02*
X104664649Y-73280057D01*
X104664649Y-73280057D02*
X104617030Y-73375295D01*
X104617030Y-73375295D02*
X104617030Y-73613390D01*
X104617030Y-73613390D02*
X104664649Y-73708628D01*
X104664649Y-73708628D02*
X104712268Y-73756247D01*
X104712268Y-73756247D02*
X104807506Y-73803866D01*
X104807506Y-73803866D02*
X104997982Y-73803866D01*
X104997982Y-73803866D02*
X105093220Y-73756247D01*
X105093220Y-73756247D02*
X105140839Y-73708628D01*
X105140839Y-73708628D02*
X105188458Y-73613390D01*
X106331315Y-73137200D02*
X105474173Y-74422914D01*
X106664649Y-74184819D02*
X106664649Y-73184819D01*
X106664649Y-73184819D02*
X106997982Y-73899104D01*
X106997982Y-73899104D02*
X107331315Y-73184819D01*
X107331315Y-73184819D02*
X107331315Y-74184819D01*
X107664649Y-73184819D02*
X108236077Y-73184819D01*
X107950363Y-74184819D02*
X107950363Y-73184819D01*
X109140839Y-74089580D02*
X109093220Y-74137200D01*
X109093220Y-74137200D02*
X108950363Y-74184819D01*
X108950363Y-74184819D02*
X108855125Y-74184819D01*
X108855125Y-74184819D02*
X108712268Y-74137200D01*
X108712268Y-74137200D02*
X108617030Y-74041961D01*
X108617030Y-74041961D02*
X108569411Y-73946723D01*
X108569411Y-73946723D02*
X108521792Y-73756247D01*
X108521792Y-73756247D02*
X108521792Y-73613390D01*
X108521792Y-73613390D02*
X108569411Y-73422914D01*
X108569411Y-73422914D02*
X108617030Y-73327676D01*
X108617030Y-73327676D02*
X108712268Y-73232438D01*
X108712268Y-73232438D02*
X108855125Y-73184819D01*
X108855125Y-73184819D02*
X108950363Y-73184819D01*
X108950363Y-73184819D02*
X109093220Y-73232438D01*
X109093220Y-73232438D02*
X109140839Y-73280057D01*
X109569411Y-74184819D02*
X109569411Y-73184819D01*
X110140839Y-74184819D02*
X109712268Y-73613390D01*
X110140839Y-73184819D02*
X109569411Y-73756247D01*
X90970588Y-80852438D02*
X90875350Y-80804819D01*
X90875350Y-80804819D02*
X90732493Y-80804819D01*
X90732493Y-80804819D02*
X90589636Y-80852438D01*
X90589636Y-80852438D02*
X90494398Y-80947676D01*
X90494398Y-80947676D02*
X90446779Y-81042914D01*
X90446779Y-81042914D02*
X90399160Y-81233390D01*
X90399160Y-81233390D02*
X90399160Y-81376247D01*
X90399160Y-81376247D02*
X90446779Y-81566723D01*
X90446779Y-81566723D02*
X90494398Y-81661961D01*
X90494398Y-81661961D02*
X90589636Y-81757200D01*
X90589636Y-81757200D02*
X90732493Y-81804819D01*
X90732493Y-81804819D02*
X90827731Y-81804819D01*
X90827731Y-81804819D02*
X90970588Y-81757200D01*
X90970588Y-81757200D02*
X91018207Y-81709580D01*
X91018207Y-81709580D02*
X91018207Y-81376247D01*
X91018207Y-81376247D02*
X90827731Y-81376247D01*
X91446779Y-81804819D02*
X91446779Y-80804819D01*
X91446779Y-80804819D02*
X91827731Y-80804819D01*
X91827731Y-80804819D02*
X91922969Y-80852438D01*
X91922969Y-80852438D02*
X91970588Y-80900057D01*
X91970588Y-80900057D02*
X92018207Y-80995295D01*
X92018207Y-80995295D02*
X92018207Y-81138152D01*
X92018207Y-81138152D02*
X91970588Y-81233390D01*
X91970588Y-81233390D02*
X91922969Y-81281009D01*
X91922969Y-81281009D02*
X91827731Y-81328628D01*
X91827731Y-81328628D02*
X91446779Y-81328628D01*
X92446779Y-81804819D02*
X92446779Y-80804819D01*
X93113445Y-80804819D02*
X93303921Y-80804819D01*
X93303921Y-80804819D02*
X93399159Y-80852438D01*
X93399159Y-80852438D02*
X93494397Y-80947676D01*
X93494397Y-80947676D02*
X93542016Y-81138152D01*
X93542016Y-81138152D02*
X93542016Y-81471485D01*
X93542016Y-81471485D02*
X93494397Y-81661961D01*
X93494397Y-81661961D02*
X93399159Y-81757200D01*
X93399159Y-81757200D02*
X93303921Y-81804819D01*
X93303921Y-81804819D02*
X93113445Y-81804819D01*
X93113445Y-81804819D02*
X93018207Y-81757200D01*
X93018207Y-81757200D02*
X92922969Y-81661961D01*
X92922969Y-81661961D02*
X92875350Y-81471485D01*
X92875350Y-81471485D02*
X92875350Y-81138152D01*
X92875350Y-81138152D02*
X92922969Y-80947676D01*
X92922969Y-80947676D02*
X93018207Y-80852438D01*
X93018207Y-80852438D02*
X93113445Y-80804819D01*
X94113445Y-81233390D02*
X94018207Y-81185771D01*
X94018207Y-81185771D02*
X93970588Y-81138152D01*
X93970588Y-81138152D02*
X93922969Y-81042914D01*
X93922969Y-81042914D02*
X93922969Y-80995295D01*
X93922969Y-80995295D02*
X93970588Y-80900057D01*
X93970588Y-80900057D02*
X94018207Y-80852438D01*
X94018207Y-80852438D02*
X94113445Y-80804819D01*
X94113445Y-80804819D02*
X94303921Y-80804819D01*
X94303921Y-80804819D02*
X94399159Y-80852438D01*
X94399159Y-80852438D02*
X94446778Y-80900057D01*
X94446778Y-80900057D02*
X94494397Y-80995295D01*
X94494397Y-80995295D02*
X94494397Y-81042914D01*
X94494397Y-81042914D02*
X94446778Y-81138152D01*
X94446778Y-81138152D02*
X94399159Y-81185771D01*
X94399159Y-81185771D02*
X94303921Y-81233390D01*
X94303921Y-81233390D02*
X94113445Y-81233390D01*
X94113445Y-81233390D02*
X94018207Y-81281009D01*
X94018207Y-81281009D02*
X93970588Y-81328628D01*
X93970588Y-81328628D02*
X93922969Y-81423866D01*
X93922969Y-81423866D02*
X93922969Y-81614342D01*
X93922969Y-81614342D02*
X93970588Y-81709580D01*
X93970588Y-81709580D02*
X94018207Y-81757200D01*
X94018207Y-81757200D02*
X94113445Y-81804819D01*
X94113445Y-81804819D02*
X94303921Y-81804819D01*
X94303921Y-81804819D02*
X94399159Y-81757200D01*
X94399159Y-81757200D02*
X94446778Y-81709580D01*
X94446778Y-81709580D02*
X94494397Y-81614342D01*
X94494397Y-81614342D02*
X94494397Y-81423866D01*
X94494397Y-81423866D02*
X94446778Y-81328628D01*
X94446778Y-81328628D02*
X94399159Y-81281009D01*
X94399159Y-81281009D02*
X94303921Y-81233390D01*
X106617030Y-60532438D02*
X106521792Y-60484819D01*
X106521792Y-60484819D02*
X106378935Y-60484819D01*
X106378935Y-60484819D02*
X106236078Y-60532438D01*
X106236078Y-60532438D02*
X106140840Y-60627676D01*
X106140840Y-60627676D02*
X106093221Y-60722914D01*
X106093221Y-60722914D02*
X106045602Y-60913390D01*
X106045602Y-60913390D02*
X106045602Y-61056247D01*
X106045602Y-61056247D02*
X106093221Y-61246723D01*
X106093221Y-61246723D02*
X106140840Y-61341961D01*
X106140840Y-61341961D02*
X106236078Y-61437200D01*
X106236078Y-61437200D02*
X106378935Y-61484819D01*
X106378935Y-61484819D02*
X106474173Y-61484819D01*
X106474173Y-61484819D02*
X106617030Y-61437200D01*
X106617030Y-61437200D02*
X106664649Y-61389580D01*
X106664649Y-61389580D02*
X106664649Y-61056247D01*
X106664649Y-61056247D02*
X106474173Y-61056247D01*
X107093221Y-61484819D02*
X107093221Y-60484819D01*
X107093221Y-60484819D02*
X107474173Y-60484819D01*
X107474173Y-60484819D02*
X107569411Y-60532438D01*
X107569411Y-60532438D02*
X107617030Y-60580057D01*
X107617030Y-60580057D02*
X107664649Y-60675295D01*
X107664649Y-60675295D02*
X107664649Y-60818152D01*
X107664649Y-60818152D02*
X107617030Y-60913390D01*
X107617030Y-60913390D02*
X107569411Y-60961009D01*
X107569411Y-60961009D02*
X107474173Y-61008628D01*
X107474173Y-61008628D02*
X107093221Y-61008628D01*
X108093221Y-61484819D02*
X108093221Y-60484819D01*
X108759887Y-60484819D02*
X108950363Y-60484819D01*
X108950363Y-60484819D02*
X109045601Y-60532438D01*
X109045601Y-60532438D02*
X109140839Y-60627676D01*
X109140839Y-60627676D02*
X109188458Y-60818152D01*
X109188458Y-60818152D02*
X109188458Y-61151485D01*
X109188458Y-61151485D02*
X109140839Y-61341961D01*
X109140839Y-61341961D02*
X109045601Y-61437200D01*
X109045601Y-61437200D02*
X108950363Y-61484819D01*
X108950363Y-61484819D02*
X108759887Y-61484819D01*
X108759887Y-61484819D02*
X108664649Y-61437200D01*
X108664649Y-61437200D02*
X108569411Y-61341961D01*
X108569411Y-61341961D02*
X108521792Y-61151485D01*
X108521792Y-61151485D02*
X108521792Y-60818152D01*
X108521792Y-60818152D02*
X108569411Y-60627676D01*
X108569411Y-60627676D02*
X108664649Y-60532438D01*
X108664649Y-60532438D02*
X108759887Y-60484819D01*
X110140839Y-61484819D02*
X109569411Y-61484819D01*
X109855125Y-61484819D02*
X109855125Y-60484819D01*
X109855125Y-60484819D02*
X109759887Y-60627676D01*
X109759887Y-60627676D02*
X109664649Y-60722914D01*
X109664649Y-60722914D02*
X109569411Y-60770533D01*
X99664649Y-57992438D02*
X99569411Y-57944819D01*
X99569411Y-57944819D02*
X99426554Y-57944819D01*
X99426554Y-57944819D02*
X99283697Y-57992438D01*
X99283697Y-57992438D02*
X99188459Y-58087676D01*
X99188459Y-58087676D02*
X99140840Y-58182914D01*
X99140840Y-58182914D02*
X99093221Y-58373390D01*
X99093221Y-58373390D02*
X99093221Y-58516247D01*
X99093221Y-58516247D02*
X99140840Y-58706723D01*
X99140840Y-58706723D02*
X99188459Y-58801961D01*
X99188459Y-58801961D02*
X99283697Y-58897200D01*
X99283697Y-58897200D02*
X99426554Y-58944819D01*
X99426554Y-58944819D02*
X99521792Y-58944819D01*
X99521792Y-58944819D02*
X99664649Y-58897200D01*
X99664649Y-58897200D02*
X99712268Y-58849580D01*
X99712268Y-58849580D02*
X99712268Y-58516247D01*
X99712268Y-58516247D02*
X99521792Y-58516247D01*
X100140840Y-58944819D02*
X100140840Y-57944819D01*
X100140840Y-57944819D02*
X100521792Y-57944819D01*
X100521792Y-57944819D02*
X100617030Y-57992438D01*
X100617030Y-57992438D02*
X100664649Y-58040057D01*
X100664649Y-58040057D02*
X100712268Y-58135295D01*
X100712268Y-58135295D02*
X100712268Y-58278152D01*
X100712268Y-58278152D02*
X100664649Y-58373390D01*
X100664649Y-58373390D02*
X100617030Y-58421009D01*
X100617030Y-58421009D02*
X100521792Y-58468628D01*
X100521792Y-58468628D02*
X100140840Y-58468628D01*
X101140840Y-58944819D02*
X101140840Y-57944819D01*
X101807506Y-57944819D02*
X101997982Y-57944819D01*
X101997982Y-57944819D02*
X102093220Y-57992438D01*
X102093220Y-57992438D02*
X102188458Y-58087676D01*
X102188458Y-58087676D02*
X102236077Y-58278152D01*
X102236077Y-58278152D02*
X102236077Y-58611485D01*
X102236077Y-58611485D02*
X102188458Y-58801961D01*
X102188458Y-58801961D02*
X102093220Y-58897200D01*
X102093220Y-58897200D02*
X101997982Y-58944819D01*
X101997982Y-58944819D02*
X101807506Y-58944819D01*
X101807506Y-58944819D02*
X101712268Y-58897200D01*
X101712268Y-58897200D02*
X101617030Y-58801961D01*
X101617030Y-58801961D02*
X101569411Y-58611485D01*
X101569411Y-58611485D02*
X101569411Y-58278152D01*
X101569411Y-58278152D02*
X101617030Y-58087676D01*
X101617030Y-58087676D02*
X101712268Y-57992438D01*
X101712268Y-57992438D02*
X101807506Y-57944819D01*
X103093220Y-58278152D02*
X103093220Y-58944819D01*
X102855125Y-57897200D02*
X102617030Y-58611485D01*
X102617030Y-58611485D02*
X103236077Y-58611485D01*
X104045601Y-58278152D02*
X104045601Y-58944819D01*
X103807506Y-57897200D02*
X103569411Y-58611485D01*
X103569411Y-58611485D02*
X104188458Y-58611485D01*
X105283696Y-57897200D02*
X104426554Y-59182914D01*
X105617030Y-57944819D02*
X105617030Y-58754342D01*
X105617030Y-58754342D02*
X105664649Y-58849580D01*
X105664649Y-58849580D02*
X105712268Y-58897200D01*
X105712268Y-58897200D02*
X105807506Y-58944819D01*
X105807506Y-58944819D02*
X105997982Y-58944819D01*
X105997982Y-58944819D02*
X106093220Y-58897200D01*
X106093220Y-58897200D02*
X106140839Y-58849580D01*
X106140839Y-58849580D02*
X106188458Y-58754342D01*
X106188458Y-58754342D02*
X106188458Y-57944819D01*
X106855125Y-57944819D02*
X106950363Y-57944819D01*
X106950363Y-57944819D02*
X107045601Y-57992438D01*
X107045601Y-57992438D02*
X107093220Y-58040057D01*
X107093220Y-58040057D02*
X107140839Y-58135295D01*
X107140839Y-58135295D02*
X107188458Y-58325771D01*
X107188458Y-58325771D02*
X107188458Y-58563866D01*
X107188458Y-58563866D02*
X107140839Y-58754342D01*
X107140839Y-58754342D02*
X107093220Y-58849580D01*
X107093220Y-58849580D02*
X107045601Y-58897200D01*
X107045601Y-58897200D02*
X106950363Y-58944819D01*
X106950363Y-58944819D02*
X106855125Y-58944819D01*
X106855125Y-58944819D02*
X106759887Y-58897200D01*
X106759887Y-58897200D02*
X106712268Y-58849580D01*
X106712268Y-58849580D02*
X106664649Y-58754342D01*
X106664649Y-58754342D02*
X106617030Y-58563866D01*
X106617030Y-58563866D02*
X106617030Y-58325771D01*
X106617030Y-58325771D02*
X106664649Y-58135295D01*
X106664649Y-58135295D02*
X106712268Y-58040057D01*
X106712268Y-58040057D02*
X106759887Y-57992438D01*
X106759887Y-57992438D02*
X106855125Y-57944819D01*
X108188458Y-58944819D02*
X107855125Y-58468628D01*
X107617030Y-58944819D02*
X107617030Y-57944819D01*
X107617030Y-57944819D02*
X107997982Y-57944819D01*
X107997982Y-57944819D02*
X108093220Y-57992438D01*
X108093220Y-57992438D02*
X108140839Y-58040057D01*
X108140839Y-58040057D02*
X108188458Y-58135295D01*
X108188458Y-58135295D02*
X108188458Y-58278152D01*
X108188458Y-58278152D02*
X108140839Y-58373390D01*
X108140839Y-58373390D02*
X108093220Y-58421009D01*
X108093220Y-58421009D02*
X107997982Y-58468628D01*
X107997982Y-58468628D02*
X107617030Y-58468628D01*
X108521792Y-57944819D02*
X109188458Y-58944819D01*
X109188458Y-57944819D02*
X108521792Y-58944819D01*
X109569411Y-58944819D02*
X109569411Y-57944819D01*
X109569411Y-57944819D02*
X109807506Y-57944819D01*
X109807506Y-57944819D02*
X109950363Y-57992438D01*
X109950363Y-57992438D02*
X110045601Y-58087676D01*
X110045601Y-58087676D02*
X110093220Y-58182914D01*
X110093220Y-58182914D02*
X110140839Y-58373390D01*
X110140839Y-58373390D02*
X110140839Y-58516247D01*
X110140839Y-58516247D02*
X110093220Y-58706723D01*
X110093220Y-58706723D02*
X110045601Y-58801961D01*
X110045601Y-58801961D02*
X109950363Y-58897200D01*
X109950363Y-58897200D02*
X109807506Y-58944819D01*
X109807506Y-58944819D02*
X109569411Y-58944819D01*
X108045601Y-106252438D02*
X107950363Y-106204819D01*
X107950363Y-106204819D02*
X107807506Y-106204819D01*
X107807506Y-106204819D02*
X107664649Y-106252438D01*
X107664649Y-106252438D02*
X107569411Y-106347676D01*
X107569411Y-106347676D02*
X107521792Y-106442914D01*
X107521792Y-106442914D02*
X107474173Y-106633390D01*
X107474173Y-106633390D02*
X107474173Y-106776247D01*
X107474173Y-106776247D02*
X107521792Y-106966723D01*
X107521792Y-106966723D02*
X107569411Y-107061961D01*
X107569411Y-107061961D02*
X107664649Y-107157200D01*
X107664649Y-107157200D02*
X107807506Y-107204819D01*
X107807506Y-107204819D02*
X107902744Y-107204819D01*
X107902744Y-107204819D02*
X108045601Y-107157200D01*
X108045601Y-107157200D02*
X108093220Y-107109580D01*
X108093220Y-107109580D02*
X108093220Y-106776247D01*
X108093220Y-106776247D02*
X107902744Y-106776247D01*
X108521792Y-107204819D02*
X108521792Y-106204819D01*
X108521792Y-106204819D02*
X109093220Y-107204819D01*
X109093220Y-107204819D02*
X109093220Y-106204819D01*
X109569411Y-107204819D02*
X109569411Y-106204819D01*
X109569411Y-106204819D02*
X109807506Y-106204819D01*
X109807506Y-106204819D02*
X109950363Y-106252438D01*
X109950363Y-106252438D02*
X110045601Y-106347676D01*
X110045601Y-106347676D02*
X110093220Y-106442914D01*
X110093220Y-106442914D02*
X110140839Y-106633390D01*
X110140839Y-106633390D02*
X110140839Y-106776247D01*
X110140839Y-106776247D02*
X110093220Y-106966723D01*
X110093220Y-106966723D02*
X110045601Y-107061961D01*
X110045601Y-107061961D02*
X109950363Y-107157200D01*
X109950363Y-107157200D02*
X109807506Y-107204819D01*
X109807506Y-107204819D02*
X109569411Y-107204819D01*
X91173289Y-103662099D02*
X90697099Y-103662099D01*
X90697099Y-103662099D02*
X90649480Y-104138289D01*
X90649480Y-104138289D02*
X90697099Y-104090670D01*
X90697099Y-104090670D02*
X90792337Y-104043051D01*
X90792337Y-104043051D02*
X91030432Y-104043051D01*
X91030432Y-104043051D02*
X91125670Y-104090670D01*
X91125670Y-104090670D02*
X91173289Y-104138289D01*
X91173289Y-104138289D02*
X91220908Y-104233527D01*
X91220908Y-104233527D02*
X91220908Y-104471622D01*
X91220908Y-104471622D02*
X91173289Y-104566860D01*
X91173289Y-104566860D02*
X91125670Y-104614480D01*
X91125670Y-104614480D02*
X91030432Y-104662099D01*
X91030432Y-104662099D02*
X90792337Y-104662099D01*
X90792337Y-104662099D02*
X90697099Y-104614480D01*
X90697099Y-104614480D02*
X90649480Y-104566860D01*
X91506623Y-103662099D02*
X91839956Y-104662099D01*
X91839956Y-104662099D02*
X92173289Y-103662099D01*
X90970588Y-78312438D02*
X90875350Y-78264819D01*
X90875350Y-78264819D02*
X90732493Y-78264819D01*
X90732493Y-78264819D02*
X90589636Y-78312438D01*
X90589636Y-78312438D02*
X90494398Y-78407676D01*
X90494398Y-78407676D02*
X90446779Y-78502914D01*
X90446779Y-78502914D02*
X90399160Y-78693390D01*
X90399160Y-78693390D02*
X90399160Y-78836247D01*
X90399160Y-78836247D02*
X90446779Y-79026723D01*
X90446779Y-79026723D02*
X90494398Y-79121961D01*
X90494398Y-79121961D02*
X90589636Y-79217200D01*
X90589636Y-79217200D02*
X90732493Y-79264819D01*
X90732493Y-79264819D02*
X90827731Y-79264819D01*
X90827731Y-79264819D02*
X90970588Y-79217200D01*
X90970588Y-79217200D02*
X91018207Y-79169580D01*
X91018207Y-79169580D02*
X91018207Y-78836247D01*
X91018207Y-78836247D02*
X90827731Y-78836247D01*
X91446779Y-79264819D02*
X91446779Y-78264819D01*
X91446779Y-78264819D02*
X91827731Y-78264819D01*
X91827731Y-78264819D02*
X91922969Y-78312438D01*
X91922969Y-78312438D02*
X91970588Y-78360057D01*
X91970588Y-78360057D02*
X92018207Y-78455295D01*
X92018207Y-78455295D02*
X92018207Y-78598152D01*
X92018207Y-78598152D02*
X91970588Y-78693390D01*
X91970588Y-78693390D02*
X91922969Y-78741009D01*
X91922969Y-78741009D02*
X91827731Y-78788628D01*
X91827731Y-78788628D02*
X91446779Y-78788628D01*
X92446779Y-79264819D02*
X92446779Y-78264819D01*
X93113445Y-78264819D02*
X93303921Y-78264819D01*
X93303921Y-78264819D02*
X93399159Y-78312438D01*
X93399159Y-78312438D02*
X93494397Y-78407676D01*
X93494397Y-78407676D02*
X93542016Y-78598152D01*
X93542016Y-78598152D02*
X93542016Y-78931485D01*
X93542016Y-78931485D02*
X93494397Y-79121961D01*
X93494397Y-79121961D02*
X93399159Y-79217200D01*
X93399159Y-79217200D02*
X93303921Y-79264819D01*
X93303921Y-79264819D02*
X93113445Y-79264819D01*
X93113445Y-79264819D02*
X93018207Y-79217200D01*
X93018207Y-79217200D02*
X92922969Y-79121961D01*
X92922969Y-79121961D02*
X92875350Y-78931485D01*
X92875350Y-78931485D02*
X92875350Y-78598152D01*
X92875350Y-78598152D02*
X92922969Y-78407676D01*
X92922969Y-78407676D02*
X93018207Y-78312438D01*
X93018207Y-78312438D02*
X93113445Y-78264819D01*
X94494397Y-79264819D02*
X93922969Y-79264819D01*
X94208683Y-79264819D02*
X94208683Y-78264819D01*
X94208683Y-78264819D02*
X94113445Y-78407676D01*
X94113445Y-78407676D02*
X94018207Y-78502914D01*
X94018207Y-78502914D02*
X93922969Y-78550533D01*
X95065826Y-78693390D02*
X94970588Y-78645771D01*
X94970588Y-78645771D02*
X94922969Y-78598152D01*
X94922969Y-78598152D02*
X94875350Y-78502914D01*
X94875350Y-78502914D02*
X94875350Y-78455295D01*
X94875350Y-78455295D02*
X94922969Y-78360057D01*
X94922969Y-78360057D02*
X94970588Y-78312438D01*
X94970588Y-78312438D02*
X95065826Y-78264819D01*
X95065826Y-78264819D02*
X95256302Y-78264819D01*
X95256302Y-78264819D02*
X95351540Y-78312438D01*
X95351540Y-78312438D02*
X95399159Y-78360057D01*
X95399159Y-78360057D02*
X95446778Y-78455295D01*
X95446778Y-78455295D02*
X95446778Y-78502914D01*
X95446778Y-78502914D02*
X95399159Y-78598152D01*
X95399159Y-78598152D02*
X95351540Y-78645771D01*
X95351540Y-78645771D02*
X95256302Y-78693390D01*
X95256302Y-78693390D02*
X95065826Y-78693390D01*
X95065826Y-78693390D02*
X94970588Y-78741009D01*
X94970588Y-78741009D02*
X94922969Y-78788628D01*
X94922969Y-78788628D02*
X94875350Y-78883866D01*
X94875350Y-78883866D02*
X94875350Y-79074342D01*
X94875350Y-79074342D02*
X94922969Y-79169580D01*
X94922969Y-79169580D02*
X94970588Y-79217200D01*
X94970588Y-79217200D02*
X95065826Y-79264819D01*
X95065826Y-79264819D02*
X95256302Y-79264819D01*
X95256302Y-79264819D02*
X95351540Y-79217200D01*
X95351540Y-79217200D02*
X95399159Y-79169580D01*
X95399159Y-79169580D02*
X95446778Y-79074342D01*
X95446778Y-79074342D02*
X95446778Y-78883866D01*
X95446778Y-78883866D02*
X95399159Y-78788628D01*
X95399159Y-78788628D02*
X95351540Y-78741009D01*
X95351540Y-78741009D02*
X95256302Y-78693390D01*
X105664649Y-98632438D02*
X105569411Y-98584819D01*
X105569411Y-98584819D02*
X105426554Y-98584819D01*
X105426554Y-98584819D02*
X105283697Y-98632438D01*
X105283697Y-98632438D02*
X105188459Y-98727676D01*
X105188459Y-98727676D02*
X105140840Y-98822914D01*
X105140840Y-98822914D02*
X105093221Y-99013390D01*
X105093221Y-99013390D02*
X105093221Y-99156247D01*
X105093221Y-99156247D02*
X105140840Y-99346723D01*
X105140840Y-99346723D02*
X105188459Y-99441961D01*
X105188459Y-99441961D02*
X105283697Y-99537200D01*
X105283697Y-99537200D02*
X105426554Y-99584819D01*
X105426554Y-99584819D02*
X105521792Y-99584819D01*
X105521792Y-99584819D02*
X105664649Y-99537200D01*
X105664649Y-99537200D02*
X105712268Y-99489580D01*
X105712268Y-99489580D02*
X105712268Y-99156247D01*
X105712268Y-99156247D02*
X105521792Y-99156247D01*
X106140840Y-99584819D02*
X106140840Y-98584819D01*
X106140840Y-98584819D02*
X106521792Y-98584819D01*
X106521792Y-98584819D02*
X106617030Y-98632438D01*
X106617030Y-98632438D02*
X106664649Y-98680057D01*
X106664649Y-98680057D02*
X106712268Y-98775295D01*
X106712268Y-98775295D02*
X106712268Y-98918152D01*
X106712268Y-98918152D02*
X106664649Y-99013390D01*
X106664649Y-99013390D02*
X106617030Y-99061009D01*
X106617030Y-99061009D02*
X106521792Y-99108628D01*
X106521792Y-99108628D02*
X106140840Y-99108628D01*
X107140840Y-99584819D02*
X107140840Y-98584819D01*
X107807506Y-98584819D02*
X107997982Y-98584819D01*
X107997982Y-98584819D02*
X108093220Y-98632438D01*
X108093220Y-98632438D02*
X108188458Y-98727676D01*
X108188458Y-98727676D02*
X108236077Y-98918152D01*
X108236077Y-98918152D02*
X108236077Y-99251485D01*
X108236077Y-99251485D02*
X108188458Y-99441961D01*
X108188458Y-99441961D02*
X108093220Y-99537200D01*
X108093220Y-99537200D02*
X107997982Y-99584819D01*
X107997982Y-99584819D02*
X107807506Y-99584819D01*
X107807506Y-99584819D02*
X107712268Y-99537200D01*
X107712268Y-99537200D02*
X107617030Y-99441961D01*
X107617030Y-99441961D02*
X107569411Y-99251485D01*
X107569411Y-99251485D02*
X107569411Y-98918152D01*
X107569411Y-98918152D02*
X107617030Y-98727676D01*
X107617030Y-98727676D02*
X107712268Y-98632438D01*
X107712268Y-98632438D02*
X107807506Y-98584819D01*
X108617030Y-98680057D02*
X108664649Y-98632438D01*
X108664649Y-98632438D02*
X108759887Y-98584819D01*
X108759887Y-98584819D02*
X108997982Y-98584819D01*
X108997982Y-98584819D02*
X109093220Y-98632438D01*
X109093220Y-98632438D02*
X109140839Y-98680057D01*
X109140839Y-98680057D02*
X109188458Y-98775295D01*
X109188458Y-98775295D02*
X109188458Y-98870533D01*
X109188458Y-98870533D02*
X109140839Y-99013390D01*
X109140839Y-99013390D02*
X108569411Y-99584819D01*
X108569411Y-99584819D02*
X109188458Y-99584819D01*
X109807506Y-98584819D02*
X109902744Y-98584819D01*
X109902744Y-98584819D02*
X109997982Y-98632438D01*
X109997982Y-98632438D02*
X110045601Y-98680057D01*
X110045601Y-98680057D02*
X110093220Y-98775295D01*
X110093220Y-98775295D02*
X110140839Y-98965771D01*
X110140839Y-98965771D02*
X110140839Y-99203866D01*
X110140839Y-99203866D02*
X110093220Y-99394342D01*
X110093220Y-99394342D02*
X110045601Y-99489580D01*
X110045601Y-99489580D02*
X109997982Y-99537200D01*
X109997982Y-99537200D02*
X109902744Y-99584819D01*
X109902744Y-99584819D02*
X109807506Y-99584819D01*
X109807506Y-99584819D02*
X109712268Y-99537200D01*
X109712268Y-99537200D02*
X109664649Y-99489580D01*
X109664649Y-99489580D02*
X109617030Y-99394342D01*
X109617030Y-99394342D02*
X109569411Y-99203866D01*
X109569411Y-99203866D02*
X109569411Y-98965771D01*
X109569411Y-98965771D02*
X109617030Y-98775295D01*
X109617030Y-98775295D02*
X109664649Y-98680057D01*
X109664649Y-98680057D02*
X109712268Y-98632438D01*
X109712268Y-98632438D02*
X109807506Y-98584819D01*
X90351541Y-52864819D02*
X90970588Y-52864819D01*
X90970588Y-52864819D02*
X90637255Y-53245771D01*
X90637255Y-53245771D02*
X90780112Y-53245771D01*
X90780112Y-53245771D02*
X90875350Y-53293390D01*
X90875350Y-53293390D02*
X90922969Y-53341009D01*
X90922969Y-53341009D02*
X90970588Y-53436247D01*
X90970588Y-53436247D02*
X90970588Y-53674342D01*
X90970588Y-53674342D02*
X90922969Y-53769580D01*
X90922969Y-53769580D02*
X90875350Y-53817200D01*
X90875350Y-53817200D02*
X90780112Y-53864819D01*
X90780112Y-53864819D02*
X90494398Y-53864819D01*
X90494398Y-53864819D02*
X90399160Y-53817200D01*
X90399160Y-53817200D02*
X90351541Y-53769580D01*
X91256303Y-52864819D02*
X91589636Y-53864819D01*
X91589636Y-53864819D02*
X91922969Y-52864819D01*
X92161065Y-52864819D02*
X92780112Y-52864819D01*
X92780112Y-52864819D02*
X92446779Y-53245771D01*
X92446779Y-53245771D02*
X92589636Y-53245771D01*
X92589636Y-53245771D02*
X92684874Y-53293390D01*
X92684874Y-53293390D02*
X92732493Y-53341009D01*
X92732493Y-53341009D02*
X92780112Y-53436247D01*
X92780112Y-53436247D02*
X92780112Y-53674342D01*
X92780112Y-53674342D02*
X92732493Y-53769580D01*
X92732493Y-53769580D02*
X92684874Y-53817200D01*
X92684874Y-53817200D02*
X92589636Y-53864819D01*
X92589636Y-53864819D02*
X92303922Y-53864819D01*
X92303922Y-53864819D02*
X92208684Y-53817200D01*
X92208684Y-53817200D02*
X92161065Y-53769580D01*
X100617030Y-65612438D02*
X100521792Y-65564819D01*
X100521792Y-65564819D02*
X100378935Y-65564819D01*
X100378935Y-65564819D02*
X100236078Y-65612438D01*
X100236078Y-65612438D02*
X100140840Y-65707676D01*
X100140840Y-65707676D02*
X100093221Y-65802914D01*
X100093221Y-65802914D02*
X100045602Y-65993390D01*
X100045602Y-65993390D02*
X100045602Y-66136247D01*
X100045602Y-66136247D02*
X100093221Y-66326723D01*
X100093221Y-66326723D02*
X100140840Y-66421961D01*
X100140840Y-66421961D02*
X100236078Y-66517200D01*
X100236078Y-66517200D02*
X100378935Y-66564819D01*
X100378935Y-66564819D02*
X100474173Y-66564819D01*
X100474173Y-66564819D02*
X100617030Y-66517200D01*
X100617030Y-66517200D02*
X100664649Y-66469580D01*
X100664649Y-66469580D02*
X100664649Y-66136247D01*
X100664649Y-66136247D02*
X100474173Y-66136247D01*
X101093221Y-66564819D02*
X101093221Y-65564819D01*
X101093221Y-65564819D02*
X101474173Y-65564819D01*
X101474173Y-65564819D02*
X101569411Y-65612438D01*
X101569411Y-65612438D02*
X101617030Y-65660057D01*
X101617030Y-65660057D02*
X101664649Y-65755295D01*
X101664649Y-65755295D02*
X101664649Y-65898152D01*
X101664649Y-65898152D02*
X101617030Y-65993390D01*
X101617030Y-65993390D02*
X101569411Y-66041009D01*
X101569411Y-66041009D02*
X101474173Y-66088628D01*
X101474173Y-66088628D02*
X101093221Y-66088628D01*
X102093221Y-66564819D02*
X102093221Y-65564819D01*
X102759887Y-65564819D02*
X102950363Y-65564819D01*
X102950363Y-65564819D02*
X103045601Y-65612438D01*
X103045601Y-65612438D02*
X103140839Y-65707676D01*
X103140839Y-65707676D02*
X103188458Y-65898152D01*
X103188458Y-65898152D02*
X103188458Y-66231485D01*
X103188458Y-66231485D02*
X103140839Y-66421961D01*
X103140839Y-66421961D02*
X103045601Y-66517200D01*
X103045601Y-66517200D02*
X102950363Y-66564819D01*
X102950363Y-66564819D02*
X102759887Y-66564819D01*
X102759887Y-66564819D02*
X102664649Y-66517200D01*
X102664649Y-66517200D02*
X102569411Y-66421961D01*
X102569411Y-66421961D02*
X102521792Y-66231485D01*
X102521792Y-66231485D02*
X102521792Y-65898152D01*
X102521792Y-65898152D02*
X102569411Y-65707676D01*
X102569411Y-65707676D02*
X102664649Y-65612438D01*
X102664649Y-65612438D02*
X102759887Y-65564819D01*
X104045601Y-65898152D02*
X104045601Y-66564819D01*
X103807506Y-65517200D02*
X103569411Y-66231485D01*
X103569411Y-66231485D02*
X104188458Y-66231485D01*
X104521792Y-65660057D02*
X104569411Y-65612438D01*
X104569411Y-65612438D02*
X104664649Y-65564819D01*
X104664649Y-65564819D02*
X104902744Y-65564819D01*
X104902744Y-65564819D02*
X104997982Y-65612438D01*
X104997982Y-65612438D02*
X105045601Y-65660057D01*
X105045601Y-65660057D02*
X105093220Y-65755295D01*
X105093220Y-65755295D02*
X105093220Y-65850533D01*
X105093220Y-65850533D02*
X105045601Y-65993390D01*
X105045601Y-65993390D02*
X104474173Y-66564819D01*
X104474173Y-66564819D02*
X105093220Y-66564819D01*
X106236077Y-65517200D02*
X105378935Y-66802914D01*
X106569411Y-66564819D02*
X106569411Y-65564819D01*
X106569411Y-65564819D02*
X106902744Y-66279104D01*
X106902744Y-66279104D02*
X107236077Y-65564819D01*
X107236077Y-65564819D02*
X107236077Y-66564819D01*
X107569411Y-65564819D02*
X108140839Y-65564819D01*
X107855125Y-66564819D02*
X107855125Y-65564819D01*
X108474173Y-66564819D02*
X108474173Y-65564819D01*
X108474173Y-65564819D02*
X108807506Y-66279104D01*
X108807506Y-66279104D02*
X109140839Y-65564819D01*
X109140839Y-65564819D02*
X109140839Y-66564819D01*
X109569411Y-66517200D02*
X109712268Y-66564819D01*
X109712268Y-66564819D02*
X109950363Y-66564819D01*
X109950363Y-66564819D02*
X110045601Y-66517200D01*
X110045601Y-66517200D02*
X110093220Y-66469580D01*
X110093220Y-66469580D02*
X110140839Y-66374342D01*
X110140839Y-66374342D02*
X110140839Y-66279104D01*
X110140839Y-66279104D02*
X110093220Y-66183866D01*
X110093220Y-66183866D02*
X110045601Y-66136247D01*
X110045601Y-66136247D02*
X109950363Y-66088628D01*
X109950363Y-66088628D02*
X109759887Y-66041009D01*
X109759887Y-66041009D02*
X109664649Y-65993390D01*
X109664649Y-65993390D02*
X109617030Y-65945771D01*
X109617030Y-65945771D02*
X109569411Y-65850533D01*
X109569411Y-65850533D02*
X109569411Y-65755295D01*
X109569411Y-65755295D02*
X109617030Y-65660057D01*
X109617030Y-65660057D02*
X109664649Y-65612438D01*
X109664649Y-65612438D02*
X109759887Y-65564819D01*
X109759887Y-65564819D02*
X109997982Y-65564819D01*
X109997982Y-65564819D02*
X110140839Y-65612438D01*
X90970588Y-70692438D02*
X90875350Y-70644819D01*
X90875350Y-70644819D02*
X90732493Y-70644819D01*
X90732493Y-70644819D02*
X90589636Y-70692438D01*
X90589636Y-70692438D02*
X90494398Y-70787676D01*
X90494398Y-70787676D02*
X90446779Y-70882914D01*
X90446779Y-70882914D02*
X90399160Y-71073390D01*
X90399160Y-71073390D02*
X90399160Y-71216247D01*
X90399160Y-71216247D02*
X90446779Y-71406723D01*
X90446779Y-71406723D02*
X90494398Y-71501961D01*
X90494398Y-71501961D02*
X90589636Y-71597200D01*
X90589636Y-71597200D02*
X90732493Y-71644819D01*
X90732493Y-71644819D02*
X90827731Y-71644819D01*
X90827731Y-71644819D02*
X90970588Y-71597200D01*
X90970588Y-71597200D02*
X91018207Y-71549580D01*
X91018207Y-71549580D02*
X91018207Y-71216247D01*
X91018207Y-71216247D02*
X90827731Y-71216247D01*
X91446779Y-71644819D02*
X91446779Y-70644819D01*
X91446779Y-70644819D02*
X91827731Y-70644819D01*
X91827731Y-70644819D02*
X91922969Y-70692438D01*
X91922969Y-70692438D02*
X91970588Y-70740057D01*
X91970588Y-70740057D02*
X92018207Y-70835295D01*
X92018207Y-70835295D02*
X92018207Y-70978152D01*
X92018207Y-70978152D02*
X91970588Y-71073390D01*
X91970588Y-71073390D02*
X91922969Y-71121009D01*
X91922969Y-71121009D02*
X91827731Y-71168628D01*
X91827731Y-71168628D02*
X91446779Y-71168628D01*
X92446779Y-71644819D02*
X92446779Y-70644819D01*
X93113445Y-70644819D02*
X93303921Y-70644819D01*
X93303921Y-70644819D02*
X93399159Y-70692438D01*
X93399159Y-70692438D02*
X93494397Y-70787676D01*
X93494397Y-70787676D02*
X93542016Y-70978152D01*
X93542016Y-70978152D02*
X93542016Y-71311485D01*
X93542016Y-71311485D02*
X93494397Y-71501961D01*
X93494397Y-71501961D02*
X93399159Y-71597200D01*
X93399159Y-71597200D02*
X93303921Y-71644819D01*
X93303921Y-71644819D02*
X93113445Y-71644819D01*
X93113445Y-71644819D02*
X93018207Y-71597200D01*
X93018207Y-71597200D02*
X92922969Y-71501961D01*
X92922969Y-71501961D02*
X92875350Y-71311485D01*
X92875350Y-71311485D02*
X92875350Y-70978152D01*
X92875350Y-70978152D02*
X92922969Y-70787676D01*
X92922969Y-70787676D02*
X93018207Y-70692438D01*
X93018207Y-70692438D02*
X93113445Y-70644819D01*
X94494397Y-71644819D02*
X93922969Y-71644819D01*
X94208683Y-71644819D02*
X94208683Y-70644819D01*
X94208683Y-70644819D02*
X94113445Y-70787676D01*
X94113445Y-70787676D02*
X94018207Y-70882914D01*
X94018207Y-70882914D02*
X93922969Y-70930533D01*
X95399159Y-70644819D02*
X94922969Y-70644819D01*
X94922969Y-70644819D02*
X94875350Y-71121009D01*
X94875350Y-71121009D02*
X94922969Y-71073390D01*
X94922969Y-71073390D02*
X95018207Y-71025771D01*
X95018207Y-71025771D02*
X95256302Y-71025771D01*
X95256302Y-71025771D02*
X95351540Y-71073390D01*
X95351540Y-71073390D02*
X95399159Y-71121009D01*
X95399159Y-71121009D02*
X95446778Y-71216247D01*
X95446778Y-71216247D02*
X95446778Y-71454342D01*
X95446778Y-71454342D02*
X95399159Y-71549580D01*
X95399159Y-71549580D02*
X95351540Y-71597200D01*
X95351540Y-71597200D02*
X95256302Y-71644819D01*
X95256302Y-71644819D02*
X95018207Y-71644819D01*
X95018207Y-71644819D02*
X94922969Y-71597200D01*
X94922969Y-71597200D02*
X94875350Y-71549580D01*
X108045601Y-103712438D02*
X107950363Y-103664819D01*
X107950363Y-103664819D02*
X107807506Y-103664819D01*
X107807506Y-103664819D02*
X107664649Y-103712438D01*
X107664649Y-103712438D02*
X107569411Y-103807676D01*
X107569411Y-103807676D02*
X107521792Y-103902914D01*
X107521792Y-103902914D02*
X107474173Y-104093390D01*
X107474173Y-104093390D02*
X107474173Y-104236247D01*
X107474173Y-104236247D02*
X107521792Y-104426723D01*
X107521792Y-104426723D02*
X107569411Y-104521961D01*
X107569411Y-104521961D02*
X107664649Y-104617200D01*
X107664649Y-104617200D02*
X107807506Y-104664819D01*
X107807506Y-104664819D02*
X107902744Y-104664819D01*
X107902744Y-104664819D02*
X108045601Y-104617200D01*
X108045601Y-104617200D02*
X108093220Y-104569580D01*
X108093220Y-104569580D02*
X108093220Y-104236247D01*
X108093220Y-104236247D02*
X107902744Y-104236247D01*
X108521792Y-104664819D02*
X108521792Y-103664819D01*
X108521792Y-103664819D02*
X109093220Y-104664819D01*
X109093220Y-104664819D02*
X109093220Y-103664819D01*
X109569411Y-104664819D02*
X109569411Y-103664819D01*
X109569411Y-103664819D02*
X109807506Y-103664819D01*
X109807506Y-103664819D02*
X109950363Y-103712438D01*
X109950363Y-103712438D02*
X110045601Y-103807676D01*
X110045601Y-103807676D02*
X110093220Y-103902914D01*
X110093220Y-103902914D02*
X110140839Y-104093390D01*
X110140839Y-104093390D02*
X110140839Y-104236247D01*
X110140839Y-104236247D02*
X110093220Y-104426723D01*
X110093220Y-104426723D02*
X110045601Y-104521961D01*
X110045601Y-104521961D02*
X109950363Y-104617200D01*
X109950363Y-104617200D02*
X109807506Y-104664819D01*
X109807506Y-104664819D02*
X109569411Y-104664819D01*
X106617030Y-85932438D02*
X106521792Y-85884819D01*
X106521792Y-85884819D02*
X106378935Y-85884819D01*
X106378935Y-85884819D02*
X106236078Y-85932438D01*
X106236078Y-85932438D02*
X106140840Y-86027676D01*
X106140840Y-86027676D02*
X106093221Y-86122914D01*
X106093221Y-86122914D02*
X106045602Y-86313390D01*
X106045602Y-86313390D02*
X106045602Y-86456247D01*
X106045602Y-86456247D02*
X106093221Y-86646723D01*
X106093221Y-86646723D02*
X106140840Y-86741961D01*
X106140840Y-86741961D02*
X106236078Y-86837200D01*
X106236078Y-86837200D02*
X106378935Y-86884819D01*
X106378935Y-86884819D02*
X106474173Y-86884819D01*
X106474173Y-86884819D02*
X106617030Y-86837200D01*
X106617030Y-86837200D02*
X106664649Y-86789580D01*
X106664649Y-86789580D02*
X106664649Y-86456247D01*
X106664649Y-86456247D02*
X106474173Y-86456247D01*
X107093221Y-86884819D02*
X107093221Y-85884819D01*
X107093221Y-85884819D02*
X107474173Y-85884819D01*
X107474173Y-85884819D02*
X107569411Y-85932438D01*
X107569411Y-85932438D02*
X107617030Y-85980057D01*
X107617030Y-85980057D02*
X107664649Y-86075295D01*
X107664649Y-86075295D02*
X107664649Y-86218152D01*
X107664649Y-86218152D02*
X107617030Y-86313390D01*
X107617030Y-86313390D02*
X107569411Y-86361009D01*
X107569411Y-86361009D02*
X107474173Y-86408628D01*
X107474173Y-86408628D02*
X107093221Y-86408628D01*
X108093221Y-86884819D02*
X108093221Y-85884819D01*
X108759887Y-85884819D02*
X108950363Y-85884819D01*
X108950363Y-85884819D02*
X109045601Y-85932438D01*
X109045601Y-85932438D02*
X109140839Y-86027676D01*
X109140839Y-86027676D02*
X109188458Y-86218152D01*
X109188458Y-86218152D02*
X109188458Y-86551485D01*
X109188458Y-86551485D02*
X109140839Y-86741961D01*
X109140839Y-86741961D02*
X109045601Y-86837200D01*
X109045601Y-86837200D02*
X108950363Y-86884819D01*
X108950363Y-86884819D02*
X108759887Y-86884819D01*
X108759887Y-86884819D02*
X108664649Y-86837200D01*
X108664649Y-86837200D02*
X108569411Y-86741961D01*
X108569411Y-86741961D02*
X108521792Y-86551485D01*
X108521792Y-86551485D02*
X108521792Y-86218152D01*
X108521792Y-86218152D02*
X108569411Y-86027676D01*
X108569411Y-86027676D02*
X108664649Y-85932438D01*
X108664649Y-85932438D02*
X108759887Y-85884819D01*
X109807506Y-85884819D02*
X109902744Y-85884819D01*
X109902744Y-85884819D02*
X109997982Y-85932438D01*
X109997982Y-85932438D02*
X110045601Y-85980057D01*
X110045601Y-85980057D02*
X110093220Y-86075295D01*
X110093220Y-86075295D02*
X110140839Y-86265771D01*
X110140839Y-86265771D02*
X110140839Y-86503866D01*
X110140839Y-86503866D02*
X110093220Y-86694342D01*
X110093220Y-86694342D02*
X110045601Y-86789580D01*
X110045601Y-86789580D02*
X109997982Y-86837200D01*
X109997982Y-86837200D02*
X109902744Y-86884819D01*
X109902744Y-86884819D02*
X109807506Y-86884819D01*
X109807506Y-86884819D02*
X109712268Y-86837200D01*
X109712268Y-86837200D02*
X109664649Y-86789580D01*
X109664649Y-86789580D02*
X109617030Y-86694342D01*
X109617030Y-86694342D02*
X109569411Y-86503866D01*
X109569411Y-86503866D02*
X109569411Y-86265771D01*
X109569411Y-86265771D02*
X109617030Y-86075295D01*
X109617030Y-86075295D02*
X109664649Y-85980057D01*
X109664649Y-85980057D02*
X109712268Y-85932438D01*
X109712268Y-85932438D02*
X109807506Y-85884819D01*
X106617030Y-63072438D02*
X106521792Y-63024819D01*
X106521792Y-63024819D02*
X106378935Y-63024819D01*
X106378935Y-63024819D02*
X106236078Y-63072438D01*
X106236078Y-63072438D02*
X106140840Y-63167676D01*
X106140840Y-63167676D02*
X106093221Y-63262914D01*
X106093221Y-63262914D02*
X106045602Y-63453390D01*
X106045602Y-63453390D02*
X106045602Y-63596247D01*
X106045602Y-63596247D02*
X106093221Y-63786723D01*
X106093221Y-63786723D02*
X106140840Y-63881961D01*
X106140840Y-63881961D02*
X106236078Y-63977200D01*
X106236078Y-63977200D02*
X106378935Y-64024819D01*
X106378935Y-64024819D02*
X106474173Y-64024819D01*
X106474173Y-64024819D02*
X106617030Y-63977200D01*
X106617030Y-63977200D02*
X106664649Y-63929580D01*
X106664649Y-63929580D02*
X106664649Y-63596247D01*
X106664649Y-63596247D02*
X106474173Y-63596247D01*
X107093221Y-64024819D02*
X107093221Y-63024819D01*
X107093221Y-63024819D02*
X107474173Y-63024819D01*
X107474173Y-63024819D02*
X107569411Y-63072438D01*
X107569411Y-63072438D02*
X107617030Y-63120057D01*
X107617030Y-63120057D02*
X107664649Y-63215295D01*
X107664649Y-63215295D02*
X107664649Y-63358152D01*
X107664649Y-63358152D02*
X107617030Y-63453390D01*
X107617030Y-63453390D02*
X107569411Y-63501009D01*
X107569411Y-63501009D02*
X107474173Y-63548628D01*
X107474173Y-63548628D02*
X107093221Y-63548628D01*
X108093221Y-64024819D02*
X108093221Y-63024819D01*
X108759887Y-63024819D02*
X108950363Y-63024819D01*
X108950363Y-63024819D02*
X109045601Y-63072438D01*
X109045601Y-63072438D02*
X109140839Y-63167676D01*
X109140839Y-63167676D02*
X109188458Y-63358152D01*
X109188458Y-63358152D02*
X109188458Y-63691485D01*
X109188458Y-63691485D02*
X109140839Y-63881961D01*
X109140839Y-63881961D02*
X109045601Y-63977200D01*
X109045601Y-63977200D02*
X108950363Y-64024819D01*
X108950363Y-64024819D02*
X108759887Y-64024819D01*
X108759887Y-64024819D02*
X108664649Y-63977200D01*
X108664649Y-63977200D02*
X108569411Y-63881961D01*
X108569411Y-63881961D02*
X108521792Y-63691485D01*
X108521792Y-63691485D02*
X108521792Y-63358152D01*
X108521792Y-63358152D02*
X108569411Y-63167676D01*
X108569411Y-63167676D02*
X108664649Y-63072438D01*
X108664649Y-63072438D02*
X108759887Y-63024819D01*
X109569411Y-63120057D02*
X109617030Y-63072438D01*
X109617030Y-63072438D02*
X109712268Y-63024819D01*
X109712268Y-63024819D02*
X109950363Y-63024819D01*
X109950363Y-63024819D02*
X110045601Y-63072438D01*
X110045601Y-63072438D02*
X110093220Y-63120057D01*
X110093220Y-63120057D02*
X110140839Y-63215295D01*
X110140839Y-63215295D02*
X110140839Y-63310533D01*
X110140839Y-63310533D02*
X110093220Y-63453390D01*
X110093220Y-63453390D02*
X109521792Y-64024819D01*
X109521792Y-64024819D02*
X110140839Y-64024819D01*
X99902744Y-55452438D02*
X99807506Y-55404819D01*
X99807506Y-55404819D02*
X99664649Y-55404819D01*
X99664649Y-55404819D02*
X99521792Y-55452438D01*
X99521792Y-55452438D02*
X99426554Y-55547676D01*
X99426554Y-55547676D02*
X99378935Y-55642914D01*
X99378935Y-55642914D02*
X99331316Y-55833390D01*
X99331316Y-55833390D02*
X99331316Y-55976247D01*
X99331316Y-55976247D02*
X99378935Y-56166723D01*
X99378935Y-56166723D02*
X99426554Y-56261961D01*
X99426554Y-56261961D02*
X99521792Y-56357200D01*
X99521792Y-56357200D02*
X99664649Y-56404819D01*
X99664649Y-56404819D02*
X99759887Y-56404819D01*
X99759887Y-56404819D02*
X99902744Y-56357200D01*
X99902744Y-56357200D02*
X99950363Y-56309580D01*
X99950363Y-56309580D02*
X99950363Y-55976247D01*
X99950363Y-55976247D02*
X99759887Y-55976247D01*
X100378935Y-56404819D02*
X100378935Y-55404819D01*
X100378935Y-55404819D02*
X100759887Y-55404819D01*
X100759887Y-55404819D02*
X100855125Y-55452438D01*
X100855125Y-55452438D02*
X100902744Y-55500057D01*
X100902744Y-55500057D02*
X100950363Y-55595295D01*
X100950363Y-55595295D02*
X100950363Y-55738152D01*
X100950363Y-55738152D02*
X100902744Y-55833390D01*
X100902744Y-55833390D02*
X100855125Y-55881009D01*
X100855125Y-55881009D02*
X100759887Y-55928628D01*
X100759887Y-55928628D02*
X100378935Y-55928628D01*
X101378935Y-56404819D02*
X101378935Y-55404819D01*
X102045601Y-55404819D02*
X102236077Y-55404819D01*
X102236077Y-55404819D02*
X102331315Y-55452438D01*
X102331315Y-55452438D02*
X102426553Y-55547676D01*
X102426553Y-55547676D02*
X102474172Y-55738152D01*
X102474172Y-55738152D02*
X102474172Y-56071485D01*
X102474172Y-56071485D02*
X102426553Y-56261961D01*
X102426553Y-56261961D02*
X102331315Y-56357200D01*
X102331315Y-56357200D02*
X102236077Y-56404819D01*
X102236077Y-56404819D02*
X102045601Y-56404819D01*
X102045601Y-56404819D02*
X101950363Y-56357200D01*
X101950363Y-56357200D02*
X101855125Y-56261961D01*
X101855125Y-56261961D02*
X101807506Y-56071485D01*
X101807506Y-56071485D02*
X101807506Y-55738152D01*
X101807506Y-55738152D02*
X101855125Y-55547676D01*
X101855125Y-55547676D02*
X101950363Y-55452438D01*
X101950363Y-55452438D02*
X102045601Y-55404819D01*
X103331315Y-55738152D02*
X103331315Y-56404819D01*
X103093220Y-55357200D02*
X102855125Y-56071485D01*
X102855125Y-56071485D02*
X103474172Y-56071485D01*
X103759887Y-55404819D02*
X104378934Y-55404819D01*
X104378934Y-55404819D02*
X104045601Y-55785771D01*
X104045601Y-55785771D02*
X104188458Y-55785771D01*
X104188458Y-55785771D02*
X104283696Y-55833390D01*
X104283696Y-55833390D02*
X104331315Y-55881009D01*
X104331315Y-55881009D02*
X104378934Y-55976247D01*
X104378934Y-55976247D02*
X104378934Y-56214342D01*
X104378934Y-56214342D02*
X104331315Y-56309580D01*
X104331315Y-56309580D02*
X104283696Y-56357200D01*
X104283696Y-56357200D02*
X104188458Y-56404819D01*
X104188458Y-56404819D02*
X103902744Y-56404819D01*
X103902744Y-56404819D02*
X103807506Y-56357200D01*
X103807506Y-56357200D02*
X103759887Y-56309580D01*
X105521791Y-55357200D02*
X104664649Y-56642914D01*
X105855125Y-55404819D02*
X105855125Y-56214342D01*
X105855125Y-56214342D02*
X105902744Y-56309580D01*
X105902744Y-56309580D02*
X105950363Y-56357200D01*
X105950363Y-56357200D02*
X106045601Y-56404819D01*
X106045601Y-56404819D02*
X106236077Y-56404819D01*
X106236077Y-56404819D02*
X106331315Y-56357200D01*
X106331315Y-56357200D02*
X106378934Y-56309580D01*
X106378934Y-56309580D02*
X106426553Y-56214342D01*
X106426553Y-56214342D02*
X106426553Y-55404819D01*
X107093220Y-55404819D02*
X107188458Y-55404819D01*
X107188458Y-55404819D02*
X107283696Y-55452438D01*
X107283696Y-55452438D02*
X107331315Y-55500057D01*
X107331315Y-55500057D02*
X107378934Y-55595295D01*
X107378934Y-55595295D02*
X107426553Y-55785771D01*
X107426553Y-55785771D02*
X107426553Y-56023866D01*
X107426553Y-56023866D02*
X107378934Y-56214342D01*
X107378934Y-56214342D02*
X107331315Y-56309580D01*
X107331315Y-56309580D02*
X107283696Y-56357200D01*
X107283696Y-56357200D02*
X107188458Y-56404819D01*
X107188458Y-56404819D02*
X107093220Y-56404819D01*
X107093220Y-56404819D02*
X106997982Y-56357200D01*
X106997982Y-56357200D02*
X106950363Y-56309580D01*
X106950363Y-56309580D02*
X106902744Y-56214342D01*
X106902744Y-56214342D02*
X106855125Y-56023866D01*
X106855125Y-56023866D02*
X106855125Y-55785771D01*
X106855125Y-55785771D02*
X106902744Y-55595295D01*
X106902744Y-55595295D02*
X106950363Y-55500057D01*
X106950363Y-55500057D02*
X106997982Y-55452438D01*
X106997982Y-55452438D02*
X107093220Y-55404819D01*
X107712268Y-55404819D02*
X108283696Y-55404819D01*
X107997982Y-56404819D02*
X107997982Y-55404819D01*
X108521792Y-55404819D02*
X109188458Y-56404819D01*
X109188458Y-55404819D02*
X108521792Y-56404819D01*
X109569411Y-56404819D02*
X109569411Y-55404819D01*
X109569411Y-55404819D02*
X109807506Y-55404819D01*
X109807506Y-55404819D02*
X109950363Y-55452438D01*
X109950363Y-55452438D02*
X110045601Y-55547676D01*
X110045601Y-55547676D02*
X110093220Y-55642914D01*
X110093220Y-55642914D02*
X110140839Y-55833390D01*
X110140839Y-55833390D02*
X110140839Y-55976247D01*
X110140839Y-55976247D02*
X110093220Y-56166723D01*
X110093220Y-56166723D02*
X110045601Y-56261961D01*
X110045601Y-56261961D02*
X109950363Y-56357200D01*
X109950363Y-56357200D02*
X109807506Y-56404819D01*
X109807506Y-56404819D02*
X109569411Y-56404819D01*
X90970588Y-73232438D02*
X90875350Y-73184819D01*
X90875350Y-73184819D02*
X90732493Y-73184819D01*
X90732493Y-73184819D02*
X90589636Y-73232438D01*
X90589636Y-73232438D02*
X90494398Y-73327676D01*
X90494398Y-73327676D02*
X90446779Y-73422914D01*
X90446779Y-73422914D02*
X90399160Y-73613390D01*
X90399160Y-73613390D02*
X90399160Y-73756247D01*
X90399160Y-73756247D02*
X90446779Y-73946723D01*
X90446779Y-73946723D02*
X90494398Y-74041961D01*
X90494398Y-74041961D02*
X90589636Y-74137200D01*
X90589636Y-74137200D02*
X90732493Y-74184819D01*
X90732493Y-74184819D02*
X90827731Y-74184819D01*
X90827731Y-74184819D02*
X90970588Y-74137200D01*
X90970588Y-74137200D02*
X91018207Y-74089580D01*
X91018207Y-74089580D02*
X91018207Y-73756247D01*
X91018207Y-73756247D02*
X90827731Y-73756247D01*
X91446779Y-74184819D02*
X91446779Y-73184819D01*
X91446779Y-73184819D02*
X91827731Y-73184819D01*
X91827731Y-73184819D02*
X91922969Y-73232438D01*
X91922969Y-73232438D02*
X91970588Y-73280057D01*
X91970588Y-73280057D02*
X92018207Y-73375295D01*
X92018207Y-73375295D02*
X92018207Y-73518152D01*
X92018207Y-73518152D02*
X91970588Y-73613390D01*
X91970588Y-73613390D02*
X91922969Y-73661009D01*
X91922969Y-73661009D02*
X91827731Y-73708628D01*
X91827731Y-73708628D02*
X91446779Y-73708628D01*
X92446779Y-74184819D02*
X92446779Y-73184819D01*
X93113445Y-73184819D02*
X93303921Y-73184819D01*
X93303921Y-73184819D02*
X93399159Y-73232438D01*
X93399159Y-73232438D02*
X93494397Y-73327676D01*
X93494397Y-73327676D02*
X93542016Y-73518152D01*
X93542016Y-73518152D02*
X93542016Y-73851485D01*
X93542016Y-73851485D02*
X93494397Y-74041961D01*
X93494397Y-74041961D02*
X93399159Y-74137200D01*
X93399159Y-74137200D02*
X93303921Y-74184819D01*
X93303921Y-74184819D02*
X93113445Y-74184819D01*
X93113445Y-74184819D02*
X93018207Y-74137200D01*
X93018207Y-74137200D02*
X92922969Y-74041961D01*
X92922969Y-74041961D02*
X92875350Y-73851485D01*
X92875350Y-73851485D02*
X92875350Y-73518152D01*
X92875350Y-73518152D02*
X92922969Y-73327676D01*
X92922969Y-73327676D02*
X93018207Y-73232438D01*
X93018207Y-73232438D02*
X93113445Y-73184819D01*
X94494397Y-74184819D02*
X93922969Y-74184819D01*
X94208683Y-74184819D02*
X94208683Y-73184819D01*
X94208683Y-73184819D02*
X94113445Y-73327676D01*
X94113445Y-73327676D02*
X94018207Y-73422914D01*
X94018207Y-73422914D02*
X93922969Y-73470533D01*
X95351540Y-73184819D02*
X95161064Y-73184819D01*
X95161064Y-73184819D02*
X95065826Y-73232438D01*
X95065826Y-73232438D02*
X95018207Y-73280057D01*
X95018207Y-73280057D02*
X94922969Y-73422914D01*
X94922969Y-73422914D02*
X94875350Y-73613390D01*
X94875350Y-73613390D02*
X94875350Y-73994342D01*
X94875350Y-73994342D02*
X94922969Y-74089580D01*
X94922969Y-74089580D02*
X94970588Y-74137200D01*
X94970588Y-74137200D02*
X95065826Y-74184819D01*
X95065826Y-74184819D02*
X95256302Y-74184819D01*
X95256302Y-74184819D02*
X95351540Y-74137200D01*
X95351540Y-74137200D02*
X95399159Y-74089580D01*
X95399159Y-74089580D02*
X95446778Y-73994342D01*
X95446778Y-73994342D02*
X95446778Y-73756247D01*
X95446778Y-73756247D02*
X95399159Y-73661009D01*
X95399159Y-73661009D02*
X95351540Y-73613390D01*
X95351540Y-73613390D02*
X95256302Y-73565771D01*
X95256302Y-73565771D02*
X95065826Y-73565771D01*
X95065826Y-73565771D02*
X94970588Y-73613390D01*
X94970588Y-73613390D02*
X94922969Y-73661009D01*
X94922969Y-73661009D02*
X94875350Y-73756247D01*
X105664649Y-88472438D02*
X105569411Y-88424819D01*
X105569411Y-88424819D02*
X105426554Y-88424819D01*
X105426554Y-88424819D02*
X105283697Y-88472438D01*
X105283697Y-88472438D02*
X105188459Y-88567676D01*
X105188459Y-88567676D02*
X105140840Y-88662914D01*
X105140840Y-88662914D02*
X105093221Y-88853390D01*
X105093221Y-88853390D02*
X105093221Y-88996247D01*
X105093221Y-88996247D02*
X105140840Y-89186723D01*
X105140840Y-89186723D02*
X105188459Y-89281961D01*
X105188459Y-89281961D02*
X105283697Y-89377200D01*
X105283697Y-89377200D02*
X105426554Y-89424819D01*
X105426554Y-89424819D02*
X105521792Y-89424819D01*
X105521792Y-89424819D02*
X105664649Y-89377200D01*
X105664649Y-89377200D02*
X105712268Y-89329580D01*
X105712268Y-89329580D02*
X105712268Y-88996247D01*
X105712268Y-88996247D02*
X105521792Y-88996247D01*
X106140840Y-89424819D02*
X106140840Y-88424819D01*
X106140840Y-88424819D02*
X106521792Y-88424819D01*
X106521792Y-88424819D02*
X106617030Y-88472438D01*
X106617030Y-88472438D02*
X106664649Y-88520057D01*
X106664649Y-88520057D02*
X106712268Y-88615295D01*
X106712268Y-88615295D02*
X106712268Y-88758152D01*
X106712268Y-88758152D02*
X106664649Y-88853390D01*
X106664649Y-88853390D02*
X106617030Y-88901009D01*
X106617030Y-88901009D02*
X106521792Y-88948628D01*
X106521792Y-88948628D02*
X106140840Y-88948628D01*
X107140840Y-89424819D02*
X107140840Y-88424819D01*
X107807506Y-88424819D02*
X107997982Y-88424819D01*
X107997982Y-88424819D02*
X108093220Y-88472438D01*
X108093220Y-88472438D02*
X108188458Y-88567676D01*
X108188458Y-88567676D02*
X108236077Y-88758152D01*
X108236077Y-88758152D02*
X108236077Y-89091485D01*
X108236077Y-89091485D02*
X108188458Y-89281961D01*
X108188458Y-89281961D02*
X108093220Y-89377200D01*
X108093220Y-89377200D02*
X107997982Y-89424819D01*
X107997982Y-89424819D02*
X107807506Y-89424819D01*
X107807506Y-89424819D02*
X107712268Y-89377200D01*
X107712268Y-89377200D02*
X107617030Y-89281961D01*
X107617030Y-89281961D02*
X107569411Y-89091485D01*
X107569411Y-89091485D02*
X107569411Y-88758152D01*
X107569411Y-88758152D02*
X107617030Y-88567676D01*
X107617030Y-88567676D02*
X107712268Y-88472438D01*
X107712268Y-88472438D02*
X107807506Y-88424819D01*
X109093220Y-88758152D02*
X109093220Y-89424819D01*
X108855125Y-88377200D02*
X108617030Y-89091485D01*
X108617030Y-89091485D02*
X109236077Y-89091485D01*
X110093220Y-88424819D02*
X109617030Y-88424819D01*
X109617030Y-88424819D02*
X109569411Y-88901009D01*
X109569411Y-88901009D02*
X109617030Y-88853390D01*
X109617030Y-88853390D02*
X109712268Y-88805771D01*
X109712268Y-88805771D02*
X109950363Y-88805771D01*
X109950363Y-88805771D02*
X110045601Y-88853390D01*
X110045601Y-88853390D02*
X110093220Y-88901009D01*
X110093220Y-88901009D02*
X110140839Y-88996247D01*
X110140839Y-88996247D02*
X110140839Y-89234342D01*
X110140839Y-89234342D02*
X110093220Y-89329580D01*
X110093220Y-89329580D02*
X110045601Y-89377200D01*
X110045601Y-89377200D02*
X109950363Y-89424819D01*
X109950363Y-89424819D02*
X109712268Y-89424819D01*
X109712268Y-89424819D02*
X109617030Y-89377200D01*
X109617030Y-89377200D02*
X109569411Y-89329580D01*
X90970588Y-83392438D02*
X90875350Y-83344819D01*
X90875350Y-83344819D02*
X90732493Y-83344819D01*
X90732493Y-83344819D02*
X90589636Y-83392438D01*
X90589636Y-83392438D02*
X90494398Y-83487676D01*
X90494398Y-83487676D02*
X90446779Y-83582914D01*
X90446779Y-83582914D02*
X90399160Y-83773390D01*
X90399160Y-83773390D02*
X90399160Y-83916247D01*
X90399160Y-83916247D02*
X90446779Y-84106723D01*
X90446779Y-84106723D02*
X90494398Y-84201961D01*
X90494398Y-84201961D02*
X90589636Y-84297200D01*
X90589636Y-84297200D02*
X90732493Y-84344819D01*
X90732493Y-84344819D02*
X90827731Y-84344819D01*
X90827731Y-84344819D02*
X90970588Y-84297200D01*
X90970588Y-84297200D02*
X91018207Y-84249580D01*
X91018207Y-84249580D02*
X91018207Y-83916247D01*
X91018207Y-83916247D02*
X90827731Y-83916247D01*
X91446779Y-84344819D02*
X91446779Y-83344819D01*
X91446779Y-83344819D02*
X91827731Y-83344819D01*
X91827731Y-83344819D02*
X91922969Y-83392438D01*
X91922969Y-83392438D02*
X91970588Y-83440057D01*
X91970588Y-83440057D02*
X92018207Y-83535295D01*
X92018207Y-83535295D02*
X92018207Y-83678152D01*
X92018207Y-83678152D02*
X91970588Y-83773390D01*
X91970588Y-83773390D02*
X91922969Y-83821009D01*
X91922969Y-83821009D02*
X91827731Y-83868628D01*
X91827731Y-83868628D02*
X91446779Y-83868628D01*
X92446779Y-84344819D02*
X92446779Y-83344819D01*
X93113445Y-83344819D02*
X93303921Y-83344819D01*
X93303921Y-83344819D02*
X93399159Y-83392438D01*
X93399159Y-83392438D02*
X93494397Y-83487676D01*
X93494397Y-83487676D02*
X93542016Y-83678152D01*
X93542016Y-83678152D02*
X93542016Y-84011485D01*
X93542016Y-84011485D02*
X93494397Y-84201961D01*
X93494397Y-84201961D02*
X93399159Y-84297200D01*
X93399159Y-84297200D02*
X93303921Y-84344819D01*
X93303921Y-84344819D02*
X93113445Y-84344819D01*
X93113445Y-84344819D02*
X93018207Y-84297200D01*
X93018207Y-84297200D02*
X92922969Y-84201961D01*
X92922969Y-84201961D02*
X92875350Y-84011485D01*
X92875350Y-84011485D02*
X92875350Y-83678152D01*
X92875350Y-83678152D02*
X92922969Y-83487676D01*
X92922969Y-83487676D02*
X93018207Y-83392438D01*
X93018207Y-83392438D02*
X93113445Y-83344819D01*
X93875350Y-83344819D02*
X94494397Y-83344819D01*
X94494397Y-83344819D02*
X94161064Y-83725771D01*
X94161064Y-83725771D02*
X94303921Y-83725771D01*
X94303921Y-83725771D02*
X94399159Y-83773390D01*
X94399159Y-83773390D02*
X94446778Y-83821009D01*
X94446778Y-83821009D02*
X94494397Y-83916247D01*
X94494397Y-83916247D02*
X94494397Y-84154342D01*
X94494397Y-84154342D02*
X94446778Y-84249580D01*
X94446778Y-84249580D02*
X94399159Y-84297200D01*
X94399159Y-84297200D02*
X94303921Y-84344819D01*
X94303921Y-84344819D02*
X94018207Y-84344819D01*
X94018207Y-84344819D02*
X93922969Y-84297200D01*
X93922969Y-84297200D02*
X93875350Y-84249580D01*
X105664649Y-75772438D02*
X105569411Y-75724819D01*
X105569411Y-75724819D02*
X105426554Y-75724819D01*
X105426554Y-75724819D02*
X105283697Y-75772438D01*
X105283697Y-75772438D02*
X105188459Y-75867676D01*
X105188459Y-75867676D02*
X105140840Y-75962914D01*
X105140840Y-75962914D02*
X105093221Y-76153390D01*
X105093221Y-76153390D02*
X105093221Y-76296247D01*
X105093221Y-76296247D02*
X105140840Y-76486723D01*
X105140840Y-76486723D02*
X105188459Y-76581961D01*
X105188459Y-76581961D02*
X105283697Y-76677200D01*
X105283697Y-76677200D02*
X105426554Y-76724819D01*
X105426554Y-76724819D02*
X105521792Y-76724819D01*
X105521792Y-76724819D02*
X105664649Y-76677200D01*
X105664649Y-76677200D02*
X105712268Y-76629580D01*
X105712268Y-76629580D02*
X105712268Y-76296247D01*
X105712268Y-76296247D02*
X105521792Y-76296247D01*
X106140840Y-76724819D02*
X106140840Y-75724819D01*
X106140840Y-75724819D02*
X106521792Y-75724819D01*
X106521792Y-75724819D02*
X106617030Y-75772438D01*
X106617030Y-75772438D02*
X106664649Y-75820057D01*
X106664649Y-75820057D02*
X106712268Y-75915295D01*
X106712268Y-75915295D02*
X106712268Y-76058152D01*
X106712268Y-76058152D02*
X106664649Y-76153390D01*
X106664649Y-76153390D02*
X106617030Y-76201009D01*
X106617030Y-76201009D02*
X106521792Y-76248628D01*
X106521792Y-76248628D02*
X106140840Y-76248628D01*
X107140840Y-76724819D02*
X107140840Y-75724819D01*
X107807506Y-75724819D02*
X107997982Y-75724819D01*
X107997982Y-75724819D02*
X108093220Y-75772438D01*
X108093220Y-75772438D02*
X108188458Y-75867676D01*
X108188458Y-75867676D02*
X108236077Y-76058152D01*
X108236077Y-76058152D02*
X108236077Y-76391485D01*
X108236077Y-76391485D02*
X108188458Y-76581961D01*
X108188458Y-76581961D02*
X108093220Y-76677200D01*
X108093220Y-76677200D02*
X107997982Y-76724819D01*
X107997982Y-76724819D02*
X107807506Y-76724819D01*
X107807506Y-76724819D02*
X107712268Y-76677200D01*
X107712268Y-76677200D02*
X107617030Y-76581961D01*
X107617030Y-76581961D02*
X107569411Y-76391485D01*
X107569411Y-76391485D02*
X107569411Y-76058152D01*
X107569411Y-76058152D02*
X107617030Y-75867676D01*
X107617030Y-75867676D02*
X107712268Y-75772438D01*
X107712268Y-75772438D02*
X107807506Y-75724819D01*
X108569411Y-75724819D02*
X109188458Y-75724819D01*
X109188458Y-75724819D02*
X108855125Y-76105771D01*
X108855125Y-76105771D02*
X108997982Y-76105771D01*
X108997982Y-76105771D02*
X109093220Y-76153390D01*
X109093220Y-76153390D02*
X109140839Y-76201009D01*
X109140839Y-76201009D02*
X109188458Y-76296247D01*
X109188458Y-76296247D02*
X109188458Y-76534342D01*
X109188458Y-76534342D02*
X109140839Y-76629580D01*
X109140839Y-76629580D02*
X109093220Y-76677200D01*
X109093220Y-76677200D02*
X108997982Y-76724819D01*
X108997982Y-76724819D02*
X108712268Y-76724819D01*
X108712268Y-76724819D02*
X108617030Y-76677200D01*
X108617030Y-76677200D02*
X108569411Y-76629580D01*
X109759887Y-76153390D02*
X109664649Y-76105771D01*
X109664649Y-76105771D02*
X109617030Y-76058152D01*
X109617030Y-76058152D02*
X109569411Y-75962914D01*
X109569411Y-75962914D02*
X109569411Y-75915295D01*
X109569411Y-75915295D02*
X109617030Y-75820057D01*
X109617030Y-75820057D02*
X109664649Y-75772438D01*
X109664649Y-75772438D02*
X109759887Y-75724819D01*
X109759887Y-75724819D02*
X109950363Y-75724819D01*
X109950363Y-75724819D02*
X110045601Y-75772438D01*
X110045601Y-75772438D02*
X110093220Y-75820057D01*
X110093220Y-75820057D02*
X110140839Y-75915295D01*
X110140839Y-75915295D02*
X110140839Y-75962914D01*
X110140839Y-75962914D02*
X110093220Y-76058152D01*
X110093220Y-76058152D02*
X110045601Y-76105771D01*
X110045601Y-76105771D02*
X109950363Y-76153390D01*
X109950363Y-76153390D02*
X109759887Y-76153390D01*
X109759887Y-76153390D02*
X109664649Y-76201009D01*
X109664649Y-76201009D02*
X109617030Y-76248628D01*
X109617030Y-76248628D02*
X109569411Y-76343866D01*
X109569411Y-76343866D02*
X109569411Y-76534342D01*
X109569411Y-76534342D02*
X109617030Y-76629580D01*
X109617030Y-76629580D02*
X109664649Y-76677200D01*
X109664649Y-76677200D02*
X109759887Y-76724819D01*
X109759887Y-76724819D02*
X109950363Y-76724819D01*
X109950363Y-76724819D02*
X110045601Y-76677200D01*
X110045601Y-76677200D02*
X110093220Y-76629580D01*
X110093220Y-76629580D02*
X110140839Y-76534342D01*
X110140839Y-76534342D02*
X110140839Y-76343866D01*
X110140839Y-76343866D02*
X110093220Y-76248628D01*
X110093220Y-76248628D02*
X110045601Y-76201009D01*
X110045601Y-76201009D02*
X109950363Y-76153390D01*
X105664649Y-80852438D02*
X105569411Y-80804819D01*
X105569411Y-80804819D02*
X105426554Y-80804819D01*
X105426554Y-80804819D02*
X105283697Y-80852438D01*
X105283697Y-80852438D02*
X105188459Y-80947676D01*
X105188459Y-80947676D02*
X105140840Y-81042914D01*
X105140840Y-81042914D02*
X105093221Y-81233390D01*
X105093221Y-81233390D02*
X105093221Y-81376247D01*
X105093221Y-81376247D02*
X105140840Y-81566723D01*
X105140840Y-81566723D02*
X105188459Y-81661961D01*
X105188459Y-81661961D02*
X105283697Y-81757200D01*
X105283697Y-81757200D02*
X105426554Y-81804819D01*
X105426554Y-81804819D02*
X105521792Y-81804819D01*
X105521792Y-81804819D02*
X105664649Y-81757200D01*
X105664649Y-81757200D02*
X105712268Y-81709580D01*
X105712268Y-81709580D02*
X105712268Y-81376247D01*
X105712268Y-81376247D02*
X105521792Y-81376247D01*
X106140840Y-81804819D02*
X106140840Y-80804819D01*
X106140840Y-80804819D02*
X106521792Y-80804819D01*
X106521792Y-80804819D02*
X106617030Y-80852438D01*
X106617030Y-80852438D02*
X106664649Y-80900057D01*
X106664649Y-80900057D02*
X106712268Y-80995295D01*
X106712268Y-80995295D02*
X106712268Y-81138152D01*
X106712268Y-81138152D02*
X106664649Y-81233390D01*
X106664649Y-81233390D02*
X106617030Y-81281009D01*
X106617030Y-81281009D02*
X106521792Y-81328628D01*
X106521792Y-81328628D02*
X106140840Y-81328628D01*
X107140840Y-81804819D02*
X107140840Y-80804819D01*
X107807506Y-80804819D02*
X107997982Y-80804819D01*
X107997982Y-80804819D02*
X108093220Y-80852438D01*
X108093220Y-80852438D02*
X108188458Y-80947676D01*
X108188458Y-80947676D02*
X108236077Y-81138152D01*
X108236077Y-81138152D02*
X108236077Y-81471485D01*
X108236077Y-81471485D02*
X108188458Y-81661961D01*
X108188458Y-81661961D02*
X108093220Y-81757200D01*
X108093220Y-81757200D02*
X107997982Y-81804819D01*
X107997982Y-81804819D02*
X107807506Y-81804819D01*
X107807506Y-81804819D02*
X107712268Y-81757200D01*
X107712268Y-81757200D02*
X107617030Y-81661961D01*
X107617030Y-81661961D02*
X107569411Y-81471485D01*
X107569411Y-81471485D02*
X107569411Y-81138152D01*
X107569411Y-81138152D02*
X107617030Y-80947676D01*
X107617030Y-80947676D02*
X107712268Y-80852438D01*
X107712268Y-80852438D02*
X107807506Y-80804819D01*
X108569411Y-80804819D02*
X109188458Y-80804819D01*
X109188458Y-80804819D02*
X108855125Y-81185771D01*
X108855125Y-81185771D02*
X108997982Y-81185771D01*
X108997982Y-81185771D02*
X109093220Y-81233390D01*
X109093220Y-81233390D02*
X109140839Y-81281009D01*
X109140839Y-81281009D02*
X109188458Y-81376247D01*
X109188458Y-81376247D02*
X109188458Y-81614342D01*
X109188458Y-81614342D02*
X109140839Y-81709580D01*
X109140839Y-81709580D02*
X109093220Y-81757200D01*
X109093220Y-81757200D02*
X108997982Y-81804819D01*
X108997982Y-81804819D02*
X108712268Y-81804819D01*
X108712268Y-81804819D02*
X108617030Y-81757200D01*
X108617030Y-81757200D02*
X108569411Y-81709580D01*
X110045601Y-80804819D02*
X109855125Y-80804819D01*
X109855125Y-80804819D02*
X109759887Y-80852438D01*
X109759887Y-80852438D02*
X109712268Y-80900057D01*
X109712268Y-80900057D02*
X109617030Y-81042914D01*
X109617030Y-81042914D02*
X109569411Y-81233390D01*
X109569411Y-81233390D02*
X109569411Y-81614342D01*
X109569411Y-81614342D02*
X109617030Y-81709580D01*
X109617030Y-81709580D02*
X109664649Y-81757200D01*
X109664649Y-81757200D02*
X109759887Y-81804819D01*
X109759887Y-81804819D02*
X109950363Y-81804819D01*
X109950363Y-81804819D02*
X110045601Y-81757200D01*
X110045601Y-81757200D02*
X110093220Y-81709580D01*
X110093220Y-81709580D02*
X110140839Y-81614342D01*
X110140839Y-81614342D02*
X110140839Y-81376247D01*
X110140839Y-81376247D02*
X110093220Y-81281009D01*
X110093220Y-81281009D02*
X110045601Y-81233390D01*
X110045601Y-81233390D02*
X109950363Y-81185771D01*
X109950363Y-81185771D02*
X109759887Y-81185771D01*
X109759887Y-81185771D02*
X109664649Y-81233390D01*
X109664649Y-81233390D02*
X109617030Y-81281009D01*
X109617030Y-81281009D02*
X109569411Y-81376247D01*
X90970588Y-91012438D02*
X90875350Y-90964819D01*
X90875350Y-90964819D02*
X90732493Y-90964819D01*
X90732493Y-90964819D02*
X90589636Y-91012438D01*
X90589636Y-91012438D02*
X90494398Y-91107676D01*
X90494398Y-91107676D02*
X90446779Y-91202914D01*
X90446779Y-91202914D02*
X90399160Y-91393390D01*
X90399160Y-91393390D02*
X90399160Y-91536247D01*
X90399160Y-91536247D02*
X90446779Y-91726723D01*
X90446779Y-91726723D02*
X90494398Y-91821961D01*
X90494398Y-91821961D02*
X90589636Y-91917200D01*
X90589636Y-91917200D02*
X90732493Y-91964819D01*
X90732493Y-91964819D02*
X90827731Y-91964819D01*
X90827731Y-91964819D02*
X90970588Y-91917200D01*
X90970588Y-91917200D02*
X91018207Y-91869580D01*
X91018207Y-91869580D02*
X91018207Y-91536247D01*
X91018207Y-91536247D02*
X90827731Y-91536247D01*
X91446779Y-91964819D02*
X91446779Y-90964819D01*
X91446779Y-90964819D02*
X91827731Y-90964819D01*
X91827731Y-90964819D02*
X91922969Y-91012438D01*
X91922969Y-91012438D02*
X91970588Y-91060057D01*
X91970588Y-91060057D02*
X92018207Y-91155295D01*
X92018207Y-91155295D02*
X92018207Y-91298152D01*
X92018207Y-91298152D02*
X91970588Y-91393390D01*
X91970588Y-91393390D02*
X91922969Y-91441009D01*
X91922969Y-91441009D02*
X91827731Y-91488628D01*
X91827731Y-91488628D02*
X91446779Y-91488628D01*
X92446779Y-91964819D02*
X92446779Y-90964819D01*
X93113445Y-90964819D02*
X93303921Y-90964819D01*
X93303921Y-90964819D02*
X93399159Y-91012438D01*
X93399159Y-91012438D02*
X93494397Y-91107676D01*
X93494397Y-91107676D02*
X93542016Y-91298152D01*
X93542016Y-91298152D02*
X93542016Y-91631485D01*
X93542016Y-91631485D02*
X93494397Y-91821961D01*
X93494397Y-91821961D02*
X93399159Y-91917200D01*
X93399159Y-91917200D02*
X93303921Y-91964819D01*
X93303921Y-91964819D02*
X93113445Y-91964819D01*
X93113445Y-91964819D02*
X93018207Y-91917200D01*
X93018207Y-91917200D02*
X92922969Y-91821961D01*
X92922969Y-91821961D02*
X92875350Y-91631485D01*
X92875350Y-91631485D02*
X92875350Y-91298152D01*
X92875350Y-91298152D02*
X92922969Y-91107676D01*
X92922969Y-91107676D02*
X93018207Y-91012438D01*
X93018207Y-91012438D02*
X93113445Y-90964819D01*
X94494397Y-91964819D02*
X93922969Y-91964819D01*
X94208683Y-91964819D02*
X94208683Y-90964819D01*
X94208683Y-90964819D02*
X94113445Y-91107676D01*
X94113445Y-91107676D02*
X94018207Y-91202914D01*
X94018207Y-91202914D02*
X93922969Y-91250533D01*
X95113445Y-90964819D02*
X95208683Y-90964819D01*
X95208683Y-90964819D02*
X95303921Y-91012438D01*
X95303921Y-91012438D02*
X95351540Y-91060057D01*
X95351540Y-91060057D02*
X95399159Y-91155295D01*
X95399159Y-91155295D02*
X95446778Y-91345771D01*
X95446778Y-91345771D02*
X95446778Y-91583866D01*
X95446778Y-91583866D02*
X95399159Y-91774342D01*
X95399159Y-91774342D02*
X95351540Y-91869580D01*
X95351540Y-91869580D02*
X95303921Y-91917200D01*
X95303921Y-91917200D02*
X95208683Y-91964819D01*
X95208683Y-91964819D02*
X95113445Y-91964819D01*
X95113445Y-91964819D02*
X95018207Y-91917200D01*
X95018207Y-91917200D02*
X94970588Y-91869580D01*
X94970588Y-91869580D02*
X94922969Y-91774342D01*
X94922969Y-91774342D02*
X94875350Y-91583866D01*
X94875350Y-91583866D02*
X94875350Y-91345771D01*
X94875350Y-91345771D02*
X94922969Y-91155295D01*
X94922969Y-91155295D02*
X94970588Y-91060057D01*
X94970588Y-91060057D02*
X95018207Y-91012438D01*
X95018207Y-91012438D02*
X95113445Y-90964819D01*
X84807142Y-98374819D02*
X84473809Y-97898628D01*
X84235714Y-98374819D02*
X84235714Y-97374819D01*
X84235714Y-97374819D02*
X84616666Y-97374819D01*
X84616666Y-97374819D02*
X84711904Y-97422438D01*
X84711904Y-97422438D02*
X84759523Y-97470057D01*
X84759523Y-97470057D02*
X84807142Y-97565295D01*
X84807142Y-97565295D02*
X84807142Y-97708152D01*
X84807142Y-97708152D02*
X84759523Y-97803390D01*
X84759523Y-97803390D02*
X84711904Y-97851009D01*
X84711904Y-97851009D02*
X84616666Y-97898628D01*
X84616666Y-97898628D02*
X84235714Y-97898628D01*
X85759523Y-98374819D02*
X85188095Y-98374819D01*
X85473809Y-98374819D02*
X85473809Y-97374819D01*
X85473809Y-97374819D02*
X85378571Y-97517676D01*
X85378571Y-97517676D02*
X85283333Y-97612914D01*
X85283333Y-97612914D02*
X85188095Y-97660533D01*
X86140476Y-97470057D02*
X86188095Y-97422438D01*
X86188095Y-97422438D02*
X86283333Y-97374819D01*
X86283333Y-97374819D02*
X86521428Y-97374819D01*
X86521428Y-97374819D02*
X86616666Y-97422438D01*
X86616666Y-97422438D02*
X86664285Y-97470057D01*
X86664285Y-97470057D02*
X86711904Y-97565295D01*
X86711904Y-97565295D02*
X86711904Y-97660533D01*
X86711904Y-97660533D02*
X86664285Y-97803390D01*
X86664285Y-97803390D02*
X86092857Y-98374819D01*
X86092857Y-98374819D02*
X86711904Y-98374819D01*
X84907142Y-95574819D02*
X84573809Y-95098628D01*
X84335714Y-95574819D02*
X84335714Y-94574819D01*
X84335714Y-94574819D02*
X84716666Y-94574819D01*
X84716666Y-94574819D02*
X84811904Y-94622438D01*
X84811904Y-94622438D02*
X84859523Y-94670057D01*
X84859523Y-94670057D02*
X84907142Y-94765295D01*
X84907142Y-94765295D02*
X84907142Y-94908152D01*
X84907142Y-94908152D02*
X84859523Y-95003390D01*
X84859523Y-95003390D02*
X84811904Y-95051009D01*
X84811904Y-95051009D02*
X84716666Y-95098628D01*
X84716666Y-95098628D02*
X84335714Y-95098628D01*
X85859523Y-95574819D02*
X85288095Y-95574819D01*
X85573809Y-95574819D02*
X85573809Y-94574819D01*
X85573809Y-94574819D02*
X85478571Y-94717676D01*
X85478571Y-94717676D02*
X85383333Y-94812914D01*
X85383333Y-94812914D02*
X85288095Y-94860533D01*
X86811904Y-95574819D02*
X86240476Y-95574819D01*
X86526190Y-95574819D02*
X86526190Y-94574819D01*
X86526190Y-94574819D02*
X86430952Y-94717676D01*
X86430952Y-94717676D02*
X86335714Y-94812914D01*
X86335714Y-94812914D02*
X86240476Y-94860533D01*
X85433333Y-60024819D02*
X85100000Y-59548628D01*
X84861905Y-60024819D02*
X84861905Y-59024819D01*
X84861905Y-59024819D02*
X85242857Y-59024819D01*
X85242857Y-59024819D02*
X85338095Y-59072438D01*
X85338095Y-59072438D02*
X85385714Y-59120057D01*
X85385714Y-59120057D02*
X85433333Y-59215295D01*
X85433333Y-59215295D02*
X85433333Y-59358152D01*
X85433333Y-59358152D02*
X85385714Y-59453390D01*
X85385714Y-59453390D02*
X85338095Y-59501009D01*
X85338095Y-59501009D02*
X85242857Y-59548628D01*
X85242857Y-59548628D02*
X84861905Y-59548628D01*
X86385714Y-60024819D02*
X85814286Y-60024819D01*
X86100000Y-60024819D02*
X86100000Y-59024819D01*
X86100000Y-59024819D02*
X86004762Y-59167676D01*
X86004762Y-59167676D02*
X85909524Y-59262914D01*
X85909524Y-59262914D02*
X85814286Y-59310533D01*
X78434819Y-87633333D02*
X79149104Y-87633333D01*
X79149104Y-87633333D02*
X79291961Y-87680952D01*
X79291961Y-87680952D02*
X79387200Y-87776190D01*
X79387200Y-87776190D02*
X79434819Y-87919047D01*
X79434819Y-87919047D02*
X79434819Y-88014285D01*
X78434819Y-87252380D02*
X78434819Y-86633333D01*
X78434819Y-86633333D02*
X78815771Y-86966666D01*
X78815771Y-86966666D02*
X78815771Y-86823809D01*
X78815771Y-86823809D02*
X78863390Y-86728571D01*
X78863390Y-86728571D02*
X78911009Y-86680952D01*
X78911009Y-86680952D02*
X79006247Y-86633333D01*
X79006247Y-86633333D02*
X79244342Y-86633333D01*
X79244342Y-86633333D02*
X79339580Y-86680952D01*
X79339580Y-86680952D02*
X79387200Y-86728571D01*
X79387200Y-86728571D02*
X79434819Y-86823809D01*
X79434819Y-86823809D02*
X79434819Y-87109523D01*
X79434819Y-87109523D02*
X79387200Y-87204761D01*
X79387200Y-87204761D02*
X79339580Y-87252380D01*
X78454819Y-76233333D02*
X79169104Y-76233333D01*
X79169104Y-76233333D02*
X79311961Y-76280952D01*
X79311961Y-76280952D02*
X79407200Y-76376190D01*
X79407200Y-76376190D02*
X79454819Y-76519047D01*
X79454819Y-76519047D02*
X79454819Y-76614285D01*
X78550057Y-75804761D02*
X78502438Y-75757142D01*
X78502438Y-75757142D02*
X78454819Y-75661904D01*
X78454819Y-75661904D02*
X78454819Y-75423809D01*
X78454819Y-75423809D02*
X78502438Y-75328571D01*
X78502438Y-75328571D02*
X78550057Y-75280952D01*
X78550057Y-75280952D02*
X78645295Y-75233333D01*
X78645295Y-75233333D02*
X78740533Y-75233333D01*
X78740533Y-75233333D02*
X78883390Y-75280952D01*
X78883390Y-75280952D02*
X79454819Y-75852380D01*
X79454819Y-75852380D02*
X79454819Y-75233333D01*
X78454819Y-67333333D02*
X79169104Y-67333333D01*
X79169104Y-67333333D02*
X79311961Y-67380952D01*
X79311961Y-67380952D02*
X79407200Y-67476190D01*
X79407200Y-67476190D02*
X79454819Y-67619047D01*
X79454819Y-67619047D02*
X79454819Y-67714285D01*
X79454819Y-66333333D02*
X79454819Y-66904761D01*
X79454819Y-66619047D02*
X78454819Y-66619047D01*
X78454819Y-66619047D02*
X78597676Y-66714285D01*
X78597676Y-66714285D02*
X78692914Y-66809523D01*
X78692914Y-66809523D02*
X78740533Y-66904761D01*
D11*
%TO.C,U1*%
X87340000Y-116207280D02*
X113199999Y-116207280D01*
X113200000Y-52310000D02*
X87340001Y-52310000D01*
X113199999Y-116207280D02*
X113200000Y-52310000D01*
X87340001Y-52310000D02*
X87340000Y-116207280D01*
X91300120Y-46396880D02*
X109283320Y-46396880D01*
X109283320Y-46396880D02*
X109283320Y-52289680D01*
X91300120Y-52289680D02*
X91300120Y-46396880D01*
%TO.C,R12*%
X85195276Y-98827500D02*
X85704724Y-98827500D01*
X85195276Y-99872500D02*
X85704724Y-99872500D01*
%TO.C,R11*%
X85295276Y-96027500D02*
X85804724Y-96027500D01*
X85295276Y-97072500D02*
X85804724Y-97072500D01*
%TO.C,R1*%
X85345276Y-60477500D02*
X85854724Y-60477500D01*
X85345276Y-61522500D02*
X85854724Y-61522500D01*
%TO.C,J3*%
X81100000Y-94050000D02*
X85100000Y-94050000D01*
X80070000Y-93760000D02*
X86090000Y-93760000D01*
X86090000Y-93760000D02*
X86090000Y-80840000D01*
X80070000Y-93180000D02*
X80670000Y-93180000D01*
X80670000Y-93180000D02*
X80670000Y-91580000D01*
X85090000Y-92380000D02*
X84560000Y-92130000D01*
X85090000Y-92380000D02*
X85090000Y-82220000D01*
X86090000Y-92380000D02*
X85090000Y-92380000D01*
X84560000Y-92130000D02*
X84560000Y-82470000D01*
X86090000Y-92130000D02*
X85090000Y-92130000D01*
X80670000Y-91580000D02*
X80070000Y-91580000D01*
X80070000Y-90640000D02*
X80670000Y-90640000D01*
X80670000Y-90640000D02*
X80670000Y-89040000D01*
X80670000Y-89040000D02*
X80070000Y-89040000D01*
X80070000Y-88100000D02*
X80670000Y-88100000D01*
X80670000Y-88100000D02*
X80670000Y-86500000D01*
X80670000Y-86500000D02*
X80070000Y-86500000D01*
X80070000Y-85560000D02*
X80670000Y-85560000D01*
X80670000Y-85560000D02*
X80670000Y-83960000D01*
X80670000Y-83960000D02*
X80070000Y-83960000D01*
X80070000Y-83020000D02*
X80670000Y-83020000D01*
X80670000Y-83020000D02*
X80670000Y-81420000D01*
X84560000Y-82470000D02*
X85090000Y-82220000D01*
X86090000Y-82470000D02*
X85090000Y-82470000D01*
X85090000Y-82220000D02*
X86090000Y-82220000D01*
X80670000Y-81420000D02*
X80070000Y-81420000D01*
X80070000Y-80840000D02*
X80070000Y-93760000D01*
X86090000Y-80840000D02*
X80070000Y-80840000D01*
%TO.C,J2*%
X81120000Y-80110000D02*
X85120000Y-80110000D01*
X80090000Y-79820000D02*
X86110000Y-79820000D01*
X86110000Y-79820000D02*
X86110000Y-71980000D01*
X80090000Y-79240000D02*
X80690000Y-79240000D01*
X80690000Y-79240000D02*
X80690000Y-77640000D01*
X85110000Y-78440000D02*
X84580000Y-78190000D01*
X85110000Y-78440000D02*
X85110000Y-73360000D01*
X86110000Y-78440000D02*
X85110000Y-78440000D01*
X84580000Y-78190000D02*
X84580000Y-73610000D01*
X86110000Y-78190000D02*
X85110000Y-78190000D01*
X80690000Y-77640000D02*
X80090000Y-77640000D01*
X80090000Y-76700000D02*
X80690000Y-76700000D01*
X80690000Y-76700000D02*
X80690000Y-75100000D01*
X80690000Y-75100000D02*
X80090000Y-75100000D01*
X80090000Y-74160000D02*
X80690000Y-74160000D01*
X80690000Y-74160000D02*
X80690000Y-72560000D01*
X84580000Y-73610000D02*
X85110000Y-73360000D01*
X86110000Y-73610000D02*
X85110000Y-73610000D01*
X85110000Y-73360000D02*
X86110000Y-73360000D01*
X80690000Y-72560000D02*
X80090000Y-72560000D01*
X80090000Y-71980000D02*
X80090000Y-79820000D01*
X86110000Y-71980000D02*
X80090000Y-71980000D01*
%TO.C,J1*%
X81120000Y-71210000D02*
X85120000Y-71210000D01*
X80090000Y-70920000D02*
X86110000Y-70920000D01*
X86110000Y-70920000D02*
X86110000Y-63080000D01*
X80090000Y-70340000D02*
X80690000Y-70340000D01*
X80690000Y-70340000D02*
X80690000Y-68740000D01*
X85110000Y-69540000D02*
X84580000Y-69290000D01*
X85110000Y-69540000D02*
X85110000Y-64460000D01*
X86110000Y-69540000D02*
X85110000Y-69540000D01*
X84580000Y-69290000D02*
X84580000Y-64710000D01*
X86110000Y-69290000D02*
X85110000Y-69290000D01*
X80690000Y-68740000D02*
X80090000Y-68740000D01*
X80090000Y-67800000D02*
X80690000Y-67800000D01*
X80690000Y-67800000D02*
X80690000Y-66200000D01*
X80690000Y-66200000D02*
X80090000Y-66200000D01*
X80090000Y-65260000D02*
X80690000Y-65260000D01*
X80690000Y-65260000D02*
X80690000Y-63660000D01*
X84580000Y-64710000D02*
X85110000Y-64460000D01*
X86110000Y-64710000D02*
X85110000Y-64710000D01*
X85110000Y-64460000D02*
X86110000Y-64460000D01*
X80690000Y-63660000D02*
X80090000Y-63660000D01*
X80090000Y-63080000D02*
X80090000Y-70920000D01*
X86110000Y-63080000D02*
X80090000Y-63080000D01*
%TD*%
%LPC*%
D12*
%TO.C,U1*%
X88840000Y-53410000D03*
D13*
X88840000Y-55950000D03*
X88840000Y-58490000D03*
X88840000Y-61030000D03*
X88840000Y-63570000D03*
X88840000Y-66110000D03*
X88840000Y-68650000D03*
X88840000Y-71190000D03*
X88840000Y-73730000D03*
X88840000Y-76270000D03*
X88840000Y-78810000D03*
X88840000Y-81350000D03*
X88840000Y-83890000D03*
X88840000Y-86430000D03*
X88840000Y-88970000D03*
X88840000Y-91510000D03*
X88840000Y-94050000D03*
X88840000Y-96590000D03*
X88840000Y-99130000D03*
X88836320Y-101667280D03*
X88836320Y-104207280D03*
X88836320Y-106747280D03*
X111700000Y-106750000D03*
X111700000Y-104210000D03*
X111700000Y-101670000D03*
X111700000Y-99130000D03*
X111700000Y-96590000D03*
X111700000Y-94050000D03*
X111700000Y-91510000D03*
X111700000Y-88970000D03*
X111700000Y-86430000D03*
X111700000Y-83890000D03*
X111700000Y-81350000D03*
X111700000Y-78810000D03*
X111700000Y-76270000D03*
X111700000Y-73730000D03*
X111700000Y-71190000D03*
X111700000Y-68650000D03*
X111700000Y-66110000D03*
X111700000Y-63570000D03*
X111700000Y-61030000D03*
X111700000Y-58490000D03*
X111700000Y-55950000D03*
X111700000Y-53410000D03*
%TD*%
D14*
%TO.C,R12*%
X84537500Y-99350000D03*
X86362500Y-99350000D03*
%TD*%
%TO.C,R11*%
X84637500Y-96550000D03*
X86462500Y-96550000D03*
%TD*%
%TO.C,R1*%
X84687500Y-61000000D03*
X86512500Y-61000000D03*
%TD*%
D15*
%TO.C,J3*%
X83100000Y-92380000D03*
D16*
X83100000Y-89840000D03*
X83100000Y-87300000D03*
X83100000Y-84760000D03*
X83100000Y-82220000D03*
%TD*%
D15*
%TO.C,J2*%
X83120000Y-78440000D03*
D16*
X83120000Y-75900000D03*
X83120000Y-73360000D03*
%TD*%
D15*
%TO.C,J1*%
X83120000Y-69540000D03*
D16*
X83120000Y-67000000D03*
X83120000Y-64460000D03*
%TD*%
%LPD*%
M02*
