M48
; DRILL file {KiCad 9.0.5} date 2025-11-05T12:15:30-0600
; FORMAT={-:-/ absolute / metric / decimal}
; #@! TF.CreationDate,2025-11-05T12:15:30-06:00
; #@! TF.GenerationSoftware,Kicad,Pcbnew,9.0.5
; #@! TF.FileFunction,Plated,1,2,PTH
FMAT,2
METRIC
; #@! TA.AperFunction,Plated,PTH,ComponentDrill
T1C0.800
; #@! TA.AperFunction,Plated,PTH,ComponentDrill
T2C1.190
%
G90
G05
T1
X88.836Y-101.667
X88.836Y-104.207
X88.836Y-106.747
X88.84Y-53.41
X88.84Y-55.95
X88.84Y-58.49
X88.84Y-61.03
X88.84Y-63.57
X88.84Y-66.11
X88.84Y-68.65
X88.84Y-71.19
X88.84Y-73.73
X88.84Y-76.27
X88.84Y-78.81
X88.84Y-81.35
X88.84Y-83.89
X88.84Y-86.43
X88.84Y-88.97
X88.84Y-91.51
X88.84Y-94.05
X88.84Y-96.59
X88.84Y-99.13
X111.7Y-53.41
X111.7Y-55.95
X111.7Y-58.49
X111.7Y-61.03
X111.7Y-63.57
X111.7Y-66.11
X111.7Y-68.65
X111.7Y-71.19
X111.7Y-73.73
X111.7Y-76.27
X111.7Y-78.81
X111.7Y-81.35
X111.7Y-83.89
X111.7Y-86.43
X111.7Y-88.97
X111.7Y-91.51
X111.7Y-94.05
X111.7Y-96.59
X111.7Y-99.13
X111.7Y-101.67
X111.7Y-104.21
X111.7Y-106.75
T2
X83.1Y-82.22
X83.1Y-84.76
X83.1Y-87.3
X83.1Y-89.84
X83.1Y-92.38
X83.12Y-64.46
X83.12Y-67.0
X83.12Y-69.54
X83.12Y-73.36
X83.12Y-75.9
X83.12Y-78.44
M30
