%TF.GenerationSoftware,KiCad,Pcbnew,9.0.5*%
%TF.CreationDate,2025-11-05T12:15:29-06:00*%
%TF.ProjectId,MeshTemps,4d657368-5465-46d7-9073-2e6b69636164,rev?*%
%TF.SameCoordinates,Original*%
%TF.FileFunction,Legend,Bot*%
%TF.FilePolarity,Positive*%
%FSLAX46Y46*%
G04 Gerber Fmt 4.6, Leading zero omitted, Abs format (unit mm)*
G04 Created by KiCad (PCBNEW 9.0.5) date 2025-11-05 12:15:29*
%MOMM*%
%LPD*%
G01*
G04 APERTURE LIST*
G04 Aperture macros list*
%AMRoundRect*
0 Rectangle with rounded corners*
0 $1 Rounding radius*
0 $2 $3 $4 $5 $6 $7 $8 $9 X,Y pos of 4 corners*
0 Add a 4 corners polygon primitive as box body*
4,1,4,$2,$3,$4,$5,$6,$7,$8,$9,$2,$3,0*
0 Add four circle primitives for the rounded corners*
1,1,$1+$1,$2,$3*
1,1,$1+$1,$4,$5*
1,1,$1+$1,$6,$7*
1,1,$1+$1,$8,$9*
0 Add four rect primitives between the rounded corners*
20,1,$1+$1,$2,$3,$4,$5,0*
20,1,$1+$1,$4,$5,$6,$7,0*
20,1,$1+$1,$6,$7,$8,$9,0*
20,1,$1+$1,$8,$9,$2,$3,0*%
G04 Aperture macros list end*
%ADD10C,0.150000*%
%ADD11R,2.000000X1.200000*%
%ADD12O,2.000000X1.200000*%
%ADD13RoundRect,0.250000X0.845000X-0.620000X0.845000X0.620000X-0.845000X0.620000X-0.845000X-0.620000X0*%
%ADD14O,2.190000X1.740000*%
G04 APERTURE END LIST*
D10*
X105585714Y-77349931D02*
X105585714Y-76349931D01*
X105585714Y-76349931D02*
X105252381Y-77064216D01*
X105252381Y-77064216D02*
X104919048Y-76349931D01*
X104919048Y-76349931D02*
X104919048Y-77349931D01*
X104061905Y-77302312D02*
X104157143Y-77349931D01*
X104157143Y-77349931D02*
X104347619Y-77349931D01*
X104347619Y-77349931D02*
X104442857Y-77302312D01*
X104442857Y-77302312D02*
X104490476Y-77207073D01*
X104490476Y-77207073D02*
X104490476Y-76826121D01*
X104490476Y-76826121D02*
X104442857Y-76730883D01*
X104442857Y-76730883D02*
X104347619Y-76683264D01*
X104347619Y-76683264D02*
X104157143Y-76683264D01*
X104157143Y-76683264D02*
X104061905Y-76730883D01*
X104061905Y-76730883D02*
X104014286Y-76826121D01*
X104014286Y-76826121D02*
X104014286Y-76921359D01*
X104014286Y-76921359D02*
X104490476Y-77016597D01*
X103633333Y-77302312D02*
X103538095Y-77349931D01*
X103538095Y-77349931D02*
X103347619Y-77349931D01*
X103347619Y-77349931D02*
X103252381Y-77302312D01*
X103252381Y-77302312D02*
X103204762Y-77207073D01*
X103204762Y-77207073D02*
X103204762Y-77159454D01*
X103204762Y-77159454D02*
X103252381Y-77064216D01*
X103252381Y-77064216D02*
X103347619Y-77016597D01*
X103347619Y-77016597D02*
X103490476Y-77016597D01*
X103490476Y-77016597D02*
X103585714Y-76968978D01*
X103585714Y-76968978D02*
X103633333Y-76873740D01*
X103633333Y-76873740D02*
X103633333Y-76826121D01*
X103633333Y-76826121D02*
X103585714Y-76730883D01*
X103585714Y-76730883D02*
X103490476Y-76683264D01*
X103490476Y-76683264D02*
X103347619Y-76683264D01*
X103347619Y-76683264D02*
X103252381Y-76730883D01*
X102776190Y-77349931D02*
X102776190Y-76349931D01*
X102347619Y-77349931D02*
X102347619Y-76826121D01*
X102347619Y-76826121D02*
X102395238Y-76730883D01*
X102395238Y-76730883D02*
X102490476Y-76683264D01*
X102490476Y-76683264D02*
X102633333Y-76683264D01*
X102633333Y-76683264D02*
X102728571Y-76730883D01*
X102728571Y-76730883D02*
X102776190Y-76778502D01*
X102014285Y-76349931D02*
X101442857Y-76349931D01*
X101728571Y-77349931D02*
X101728571Y-76349931D01*
X100728571Y-77302312D02*
X100823809Y-77349931D01*
X100823809Y-77349931D02*
X101014285Y-77349931D01*
X101014285Y-77349931D02*
X101109523Y-77302312D01*
X101109523Y-77302312D02*
X101157142Y-77207073D01*
X101157142Y-77207073D02*
X101157142Y-76826121D01*
X101157142Y-76826121D02*
X101109523Y-76730883D01*
X101109523Y-76730883D02*
X101014285Y-76683264D01*
X101014285Y-76683264D02*
X100823809Y-76683264D01*
X100823809Y-76683264D02*
X100728571Y-76730883D01*
X100728571Y-76730883D02*
X100680952Y-76826121D01*
X100680952Y-76826121D02*
X100680952Y-76921359D01*
X100680952Y-76921359D02*
X101157142Y-77016597D01*
X100252380Y-77349931D02*
X100252380Y-76683264D01*
X100252380Y-76778502D02*
X100204761Y-76730883D01*
X100204761Y-76730883D02*
X100109523Y-76683264D01*
X100109523Y-76683264D02*
X99966666Y-76683264D01*
X99966666Y-76683264D02*
X99871428Y-76730883D01*
X99871428Y-76730883D02*
X99823809Y-76826121D01*
X99823809Y-76826121D02*
X99823809Y-77349931D01*
X99823809Y-76826121D02*
X99776190Y-76730883D01*
X99776190Y-76730883D02*
X99680952Y-76683264D01*
X99680952Y-76683264D02*
X99538095Y-76683264D01*
X99538095Y-76683264D02*
X99442856Y-76730883D01*
X99442856Y-76730883D02*
X99395237Y-76826121D01*
X99395237Y-76826121D02*
X99395237Y-77349931D01*
X98919047Y-76683264D02*
X98919047Y-77683264D01*
X98919047Y-76730883D02*
X98823809Y-76683264D01*
X98823809Y-76683264D02*
X98633333Y-76683264D01*
X98633333Y-76683264D02*
X98538095Y-76730883D01*
X98538095Y-76730883D02*
X98490476Y-76778502D01*
X98490476Y-76778502D02*
X98442857Y-76873740D01*
X98442857Y-76873740D02*
X98442857Y-77159454D01*
X98442857Y-77159454D02*
X98490476Y-77254692D01*
X98490476Y-77254692D02*
X98538095Y-77302312D01*
X98538095Y-77302312D02*
X98633333Y-77349931D01*
X98633333Y-77349931D02*
X98823809Y-77349931D01*
X98823809Y-77349931D02*
X98919047Y-77302312D01*
X97252380Y-77349931D02*
X97252380Y-76349931D01*
X97252380Y-76349931D02*
X96680952Y-77349931D01*
X96680952Y-77349931D02*
X96680952Y-76349931D01*
X96061904Y-77349931D02*
X96157142Y-77302312D01*
X96157142Y-77302312D02*
X96204761Y-77254692D01*
X96204761Y-77254692D02*
X96252380Y-77159454D01*
X96252380Y-77159454D02*
X96252380Y-76873740D01*
X96252380Y-76873740D02*
X96204761Y-76778502D01*
X96204761Y-76778502D02*
X96157142Y-76730883D01*
X96157142Y-76730883D02*
X96061904Y-76683264D01*
X96061904Y-76683264D02*
X95919047Y-76683264D01*
X95919047Y-76683264D02*
X95823809Y-76730883D01*
X95823809Y-76730883D02*
X95776190Y-76778502D01*
X95776190Y-76778502D02*
X95728571Y-76873740D01*
X95728571Y-76873740D02*
X95728571Y-77159454D01*
X95728571Y-77159454D02*
X95776190Y-77254692D01*
X95776190Y-77254692D02*
X95823809Y-77302312D01*
X95823809Y-77302312D02*
X95919047Y-77349931D01*
X95919047Y-77349931D02*
X96061904Y-77349931D01*
X94871428Y-77349931D02*
X94871428Y-76349931D01*
X94871428Y-77302312D02*
X94966666Y-77349931D01*
X94966666Y-77349931D02*
X95157142Y-77349931D01*
X95157142Y-77349931D02*
X95252380Y-77302312D01*
X95252380Y-77302312D02*
X95299999Y-77254692D01*
X95299999Y-77254692D02*
X95347618Y-77159454D01*
X95347618Y-77159454D02*
X95347618Y-76873740D01*
X95347618Y-76873740D02*
X95299999Y-76778502D01*
X95299999Y-76778502D02*
X95252380Y-76730883D01*
X95252380Y-76730883D02*
X95157142Y-76683264D01*
X95157142Y-76683264D02*
X94966666Y-76683264D01*
X94966666Y-76683264D02*
X94871428Y-76730883D01*
X94014285Y-77302312D02*
X94109523Y-77349931D01*
X94109523Y-77349931D02*
X94299999Y-77349931D01*
X94299999Y-77349931D02*
X94395237Y-77302312D01*
X94395237Y-77302312D02*
X94442856Y-77207073D01*
X94442856Y-77207073D02*
X94442856Y-76826121D01*
X94442856Y-76826121D02*
X94395237Y-76730883D01*
X94395237Y-76730883D02*
X94299999Y-76683264D01*
X94299999Y-76683264D02*
X94109523Y-76683264D01*
X94109523Y-76683264D02*
X94014285Y-76730883D01*
X94014285Y-76730883D02*
X93966666Y-76826121D01*
X93966666Y-76826121D02*
X93966666Y-76921359D01*
X93966666Y-76921359D02*
X94442856Y-77016597D01*
X101109524Y-78959875D02*
X101442857Y-78483684D01*
X101680952Y-78959875D02*
X101680952Y-77959875D01*
X101680952Y-77959875D02*
X101300000Y-77959875D01*
X101300000Y-77959875D02*
X101204762Y-78007494D01*
X101204762Y-78007494D02*
X101157143Y-78055113D01*
X101157143Y-78055113D02*
X101109524Y-78150351D01*
X101109524Y-78150351D02*
X101109524Y-78293208D01*
X101109524Y-78293208D02*
X101157143Y-78388446D01*
X101157143Y-78388446D02*
X101204762Y-78436065D01*
X101204762Y-78436065D02*
X101300000Y-78483684D01*
X101300000Y-78483684D02*
X101680952Y-78483684D01*
X100300000Y-78912256D02*
X100395238Y-78959875D01*
X100395238Y-78959875D02*
X100585714Y-78959875D01*
X100585714Y-78959875D02*
X100680952Y-78912256D01*
X100680952Y-78912256D02*
X100728571Y-78817017D01*
X100728571Y-78817017D02*
X100728571Y-78436065D01*
X100728571Y-78436065D02*
X100680952Y-78340827D01*
X100680952Y-78340827D02*
X100585714Y-78293208D01*
X100585714Y-78293208D02*
X100395238Y-78293208D01*
X100395238Y-78293208D02*
X100300000Y-78340827D01*
X100300000Y-78340827D02*
X100252381Y-78436065D01*
X100252381Y-78436065D02*
X100252381Y-78531303D01*
X100252381Y-78531303D02*
X100728571Y-78626541D01*
X99919047Y-78293208D02*
X99680952Y-78959875D01*
X99680952Y-78959875D02*
X99442857Y-78293208D01*
X98347618Y-78674160D02*
X97871428Y-78674160D01*
X98442856Y-78959875D02*
X98109523Y-77959875D01*
X98109523Y-77959875D02*
X97776190Y-78959875D01*
X105180953Y-80569819D02*
X105514286Y-80093628D01*
X105752381Y-80569819D02*
X105752381Y-79569819D01*
X105752381Y-79569819D02*
X105371429Y-79569819D01*
X105371429Y-79569819D02*
X105276191Y-79617438D01*
X105276191Y-79617438D02*
X105228572Y-79665057D01*
X105228572Y-79665057D02*
X105180953Y-79760295D01*
X105180953Y-79760295D02*
X105180953Y-79903152D01*
X105180953Y-79903152D02*
X105228572Y-79998390D01*
X105228572Y-79998390D02*
X105276191Y-80046009D01*
X105276191Y-80046009D02*
X105371429Y-80093628D01*
X105371429Y-80093628D02*
X105752381Y-80093628D01*
X104609524Y-80569819D02*
X104704762Y-80522200D01*
X104704762Y-80522200D02*
X104752381Y-80474580D01*
X104752381Y-80474580D02*
X104800000Y-80379342D01*
X104800000Y-80379342D02*
X104800000Y-80093628D01*
X104800000Y-80093628D02*
X104752381Y-79998390D01*
X104752381Y-79998390D02*
X104704762Y-79950771D01*
X104704762Y-79950771D02*
X104609524Y-79903152D01*
X104609524Y-79903152D02*
X104466667Y-79903152D01*
X104466667Y-79903152D02*
X104371429Y-79950771D01*
X104371429Y-79950771D02*
X104323810Y-79998390D01*
X104323810Y-79998390D02*
X104276191Y-80093628D01*
X104276191Y-80093628D02*
X104276191Y-80379342D01*
X104276191Y-80379342D02*
X104323810Y-80474580D01*
X104323810Y-80474580D02*
X104371429Y-80522200D01*
X104371429Y-80522200D02*
X104466667Y-80569819D01*
X104466667Y-80569819D02*
X104609524Y-80569819D01*
X103847619Y-80569819D02*
X103847619Y-79569819D01*
X103847619Y-79950771D02*
X103752381Y-79903152D01*
X103752381Y-79903152D02*
X103561905Y-79903152D01*
X103561905Y-79903152D02*
X103466667Y-79950771D01*
X103466667Y-79950771D02*
X103419048Y-79998390D01*
X103419048Y-79998390D02*
X103371429Y-80093628D01*
X103371429Y-80093628D02*
X103371429Y-80379342D01*
X103371429Y-80379342D02*
X103419048Y-80474580D01*
X103419048Y-80474580D02*
X103466667Y-80522200D01*
X103466667Y-80522200D02*
X103561905Y-80569819D01*
X103561905Y-80569819D02*
X103752381Y-80569819D01*
X103752381Y-80569819D02*
X103847619Y-80522200D01*
X102561905Y-80522200D02*
X102657143Y-80569819D01*
X102657143Y-80569819D02*
X102847619Y-80569819D01*
X102847619Y-80569819D02*
X102942857Y-80522200D01*
X102942857Y-80522200D02*
X102990476Y-80426961D01*
X102990476Y-80426961D02*
X102990476Y-80046009D01*
X102990476Y-80046009D02*
X102942857Y-79950771D01*
X102942857Y-79950771D02*
X102847619Y-79903152D01*
X102847619Y-79903152D02*
X102657143Y-79903152D01*
X102657143Y-79903152D02*
X102561905Y-79950771D01*
X102561905Y-79950771D02*
X102514286Y-80046009D01*
X102514286Y-80046009D02*
X102514286Y-80141247D01*
X102514286Y-80141247D02*
X102990476Y-80236485D01*
X102085714Y-80569819D02*
X102085714Y-79903152D01*
X102085714Y-80093628D02*
X102038095Y-79998390D01*
X102038095Y-79998390D02*
X101990476Y-79950771D01*
X101990476Y-79950771D02*
X101895238Y-79903152D01*
X101895238Y-79903152D02*
X101800000Y-79903152D01*
X101609523Y-79903152D02*
X101228571Y-79903152D01*
X101466666Y-79569819D02*
X101466666Y-80426961D01*
X101466666Y-80426961D02*
X101419047Y-80522200D01*
X101419047Y-80522200D02*
X101323809Y-80569819D01*
X101323809Y-80569819D02*
X101228571Y-80569819D01*
X100180951Y-80522200D02*
X100038094Y-80569819D01*
X100038094Y-80569819D02*
X99799999Y-80569819D01*
X99799999Y-80569819D02*
X99704761Y-80522200D01*
X99704761Y-80522200D02*
X99657142Y-80474580D01*
X99657142Y-80474580D02*
X99609523Y-80379342D01*
X99609523Y-80379342D02*
X99609523Y-80284104D01*
X99609523Y-80284104D02*
X99657142Y-80188866D01*
X99657142Y-80188866D02*
X99704761Y-80141247D01*
X99704761Y-80141247D02*
X99799999Y-80093628D01*
X99799999Y-80093628D02*
X99990475Y-80046009D01*
X99990475Y-80046009D02*
X100085713Y-79998390D01*
X100085713Y-79998390D02*
X100133332Y-79950771D01*
X100133332Y-79950771D02*
X100180951Y-79855533D01*
X100180951Y-79855533D02*
X100180951Y-79760295D01*
X100180951Y-79760295D02*
X100133332Y-79665057D01*
X100133332Y-79665057D02*
X100085713Y-79617438D01*
X100085713Y-79617438D02*
X99990475Y-79569819D01*
X99990475Y-79569819D02*
X99752380Y-79569819D01*
X99752380Y-79569819D02*
X99609523Y-79617438D01*
X98752380Y-79903152D02*
X98752380Y-80569819D01*
X99180951Y-79903152D02*
X99180951Y-80426961D01*
X99180951Y-80426961D02*
X99133332Y-80522200D01*
X99133332Y-80522200D02*
X99038094Y-80569819D01*
X99038094Y-80569819D02*
X98895237Y-80569819D01*
X98895237Y-80569819D02*
X98799999Y-80522200D01*
X98799999Y-80522200D02*
X98752380Y-80474580D01*
X98323808Y-80522200D02*
X98228570Y-80569819D01*
X98228570Y-80569819D02*
X98038094Y-80569819D01*
X98038094Y-80569819D02*
X97942856Y-80522200D01*
X97942856Y-80522200D02*
X97895237Y-80426961D01*
X97895237Y-80426961D02*
X97895237Y-80379342D01*
X97895237Y-80379342D02*
X97942856Y-80284104D01*
X97942856Y-80284104D02*
X98038094Y-80236485D01*
X98038094Y-80236485D02*
X98180951Y-80236485D01*
X98180951Y-80236485D02*
X98276189Y-80188866D01*
X98276189Y-80188866D02*
X98323808Y-80093628D01*
X98323808Y-80093628D02*
X98323808Y-80046009D01*
X98323808Y-80046009D02*
X98276189Y-79950771D01*
X98276189Y-79950771D02*
X98180951Y-79903152D01*
X98180951Y-79903152D02*
X98038094Y-79903152D01*
X98038094Y-79903152D02*
X97942856Y-79950771D01*
X97466665Y-80569819D02*
X97466665Y-79903152D01*
X97466665Y-79998390D02*
X97419046Y-79950771D01*
X97419046Y-79950771D02*
X97323808Y-79903152D01*
X97323808Y-79903152D02*
X97180951Y-79903152D01*
X97180951Y-79903152D02*
X97085713Y-79950771D01*
X97085713Y-79950771D02*
X97038094Y-80046009D01*
X97038094Y-80046009D02*
X97038094Y-80569819D01*
X97038094Y-80046009D02*
X96990475Y-79950771D01*
X96990475Y-79950771D02*
X96895237Y-79903152D01*
X96895237Y-79903152D02*
X96752380Y-79903152D01*
X96752380Y-79903152D02*
X96657141Y-79950771D01*
X96657141Y-79950771D02*
X96609522Y-80046009D01*
X96609522Y-80046009D02*
X96609522Y-80569819D01*
X96133332Y-80569819D02*
X96133332Y-79903152D01*
X96133332Y-79569819D02*
X96180951Y-79617438D01*
X96180951Y-79617438D02*
X96133332Y-79665057D01*
X96133332Y-79665057D02*
X96085713Y-79617438D01*
X96085713Y-79617438D02*
X96133332Y-79569819D01*
X96133332Y-79569819D02*
X96133332Y-79665057D01*
X95514285Y-80569819D02*
X95609523Y-80522200D01*
X95609523Y-80522200D02*
X95657142Y-80426961D01*
X95657142Y-80426961D02*
X95657142Y-79569819D01*
X94704761Y-80522200D02*
X94799999Y-80569819D01*
X94799999Y-80569819D02*
X94990475Y-80569819D01*
X94990475Y-80569819D02*
X95085713Y-80522200D01*
X95085713Y-80522200D02*
X95133332Y-80474580D01*
X95133332Y-80474580D02*
X95180951Y-80379342D01*
X95180951Y-80379342D02*
X95180951Y-80093628D01*
X95180951Y-80093628D02*
X95133332Y-79998390D01*
X95133332Y-79998390D02*
X95085713Y-79950771D01*
X95085713Y-79950771D02*
X94990475Y-79903152D01*
X94990475Y-79903152D02*
X94799999Y-79903152D01*
X94799999Y-79903152D02*
X94704761Y-79950771D01*
X94276189Y-80569819D02*
X94276189Y-79569819D01*
X93847618Y-80569819D02*
X93847618Y-80046009D01*
X93847618Y-80046009D02*
X93895237Y-79950771D01*
X93895237Y-79950771D02*
X93990475Y-79903152D01*
X93990475Y-79903152D02*
X94133332Y-79903152D01*
X94133332Y-79903152D02*
X94228570Y-79950771D01*
X94228570Y-79950771D02*
X94276189Y-79998390D01*
%LPC*%
D11*
%TO.C,U1*%
X88840000Y-53410000D03*
D12*
X88840000Y-55950000D03*
X88840000Y-58490000D03*
X88840000Y-61030000D03*
X88840000Y-63570000D03*
X88840000Y-66110000D03*
X88840000Y-68650000D03*
X88840000Y-71190000D03*
X88840000Y-73730000D03*
X88840000Y-76270000D03*
X88840000Y-78810000D03*
X88840000Y-81350000D03*
X88840000Y-83890000D03*
X88840000Y-86430000D03*
X88840000Y-88970000D03*
X88840000Y-91510000D03*
X88840000Y-94050000D03*
X88840000Y-96590000D03*
X88840000Y-99130000D03*
X88836320Y-101667280D03*
X88836320Y-104207280D03*
X88836320Y-106747280D03*
X111700000Y-106750000D03*
X111700000Y-104210000D03*
X111700000Y-101670000D03*
X111700000Y-99130000D03*
X111700000Y-96590000D03*
X111700000Y-94050000D03*
X111700000Y-91510000D03*
X111700000Y-88970000D03*
X111700000Y-86430000D03*
X111700000Y-83890000D03*
X111700000Y-81350000D03*
X111700000Y-78810000D03*
X111700000Y-76270000D03*
X111700000Y-73730000D03*
X111700000Y-71190000D03*
X111700000Y-68650000D03*
X111700000Y-66110000D03*
X111700000Y-63570000D03*
X111700000Y-61030000D03*
X111700000Y-58490000D03*
X111700000Y-55950000D03*
X111700000Y-53410000D03*
%TD*%
D13*
%TO.C,J3*%
X83100000Y-92380000D03*
D14*
X83100000Y-89840000D03*
X83100000Y-87300000D03*
X83100000Y-84760000D03*
X83100000Y-82220000D03*
%TD*%
D13*
%TO.C,J2*%
X83120000Y-78440000D03*
D14*
X83120000Y-75900000D03*
X83120000Y-73360000D03*
%TD*%
D13*
%TO.C,J1*%
X83120000Y-69540000D03*
D14*
X83120000Y-67000000D03*
X83120000Y-64460000D03*
%TD*%
%LPD*%
M02*
